<svg xmlns="http://www.w3.org/2000/svg" width="436" height="399" fill="none" viewBox="0 0 436 399">
  <path fill="#2E2E47" d="m111.154 199.098-13.503 5.331s-6.042 7.964 15.458 14.554 86.616 10.199 108.074-6.442c0 0-50.682-12.554-65.075-13.443-14.392-.888-44.954 0-44.954 0Z"/>
  <path fill="#EAE6E4" d="M210.292 47.738s62.935 42.52 67.307 44.706c5.33 2.666 68.768 18.94 68.768 18.94s8.864 19.253-1.096 27.01c0 0-52.486-10.872-67.45-15.754-14.965-4.881-63.181-22.866-67.529-74.902Z"/>
  <path fill="#2E2E47" d="M240.77 103.424c-1.362-9.708-18.578-42.089-18.578-42.089l-.702 20.88c5.401 8.666 12.2 15.635 19.28 21.209Z"/>
  <path fill="#84CECA" d="M164.566 398.76c90.887 0 164.566-7.66 164.566-17.109 0-9.449-73.679-17.109-164.566-17.109S0 372.202 0 381.651c0 9.449 73.679 17.109 164.566 17.109Z"/>
  <path fill="#2E2E47" d="M195.34 372.3s15.209 9.268 15.207 10.729c-.003 3.533-5.61 4.37-13.59 3.517-7.98-.852-14.234-4.505-14.234-4.505l-1.726-1.826v2.069l-6.363-2.069s-1.43-4.96-.647-9.254c.174-.955 1.631-3.129 3.312-3.599 3.914-1.091 10.529.757 18.041 4.938Z"/>
  <path fill="#FFA982" d="M188.541 369.433s-2.8-1.096-3.855-.041c-1.056 1.055-5.172 3.638-5.764 2.516-1.907-3.612-3.262-3.354-3.262-3.547 0-.193-2.014-9.522.746-10.009 2.76-.487 10.315-3.086 10.884-1.95.568 1.137.683 12.706 1.251 13.031Z"/>
  <path fill="#2E2E47" d="M62.897 371.601s-17.128 7.793-17.667 11.324c-.54 3.531 6.225 3.775 14.309 2.922 8.084-.852 14.785-4.505 14.785-4.505l1.95-1.826-.254 2.07 6.616-2.07s2.037-4.96 1.778-9.254c-.058-.955-1.248-3.129-2.872-3.599-3.78-1.091-10.622.757-18.645 4.938Z"/>
  <path fill="#FFA982" d="M70.046 368.734s2.934-1.096 3.86-.041c.927 1.056 4.727 3.638 5.456 2.517 2.35-3.613 3.672-3.354 3.696-3.548.023-.193 3.178-9.522.477-10.008-2.7-.487-9.149 1.136-9.856 2.272-.707 1.137-3.025 8.483-3.633 8.808Z"/>
  <path fill="#9C6F43" d="M194.641 161.471c-9.225-1.047-19.648-2.614-25.526-3.535-26.353-2.917-52.156 27.866-52.156 27.866-20.118 72.71-39.439 148.712-53.527 178.608 0 0 4.47 1.945 13.905 1.945 8.056 0 13.538-1.945 13.538-1.945l80.29-160.047-6.499 160.046s6.098 3.152 18.133 2.27c8.162-.598 11.634-2.528 11.634-2.528s14.755-83.18 24.151-165.806c5.777-41.16-12.653-35.383-23.943-36.874Z"/>
  <path fill="#fff" d="M170.666 360.278a.302.302 0 0 1-.298-.349c.166-1.039.427-4.063.757-7.891.633-7.354 1.502-17.426 2.513-23.263 1.072-6.19 1.29-12.478 1.52-19.135.273-7.886.555-16.039 2.331-24.462 1.976-9.364 1.761-12.309 1.406-17.189-.23-3.162-.517-7.097-.329-14.049.476-17.617 2.856-45.472 2.88-45.751a.302.302 0 0 1 .601.051c-.025.279-2.403 28.117-2.878 45.717-.187 6.921.098 10.84.327 13.989.359 4.932.576 7.909-1.417 17.357-1.766 8.371-2.047 16.498-2.319 24.358-.231 6.678-.449 12.986-1.529 19.218-1.006 5.811-1.873 15.867-2.506 23.21-.331 3.841-.593 6.874-.762 7.935a.301.301 0 0 1-.297.254Zm-102.041 4.174a.302.302 0 0 1-.288-.39c.028-.093 2.914-9.423 5.058-15.615.776-2.243 2.688-7.591 5.108-14.362 4.188-11.715 9.923-27.758 12.703-35.943 2.029-5.973 3.596-11.201 5.255-16.735 1.942-6.476 3.95-13.173 7.021-22.259 3.372-9.976 4.211-13.516 5.022-16.94.578-2.439 1.175-4.961 2.678-9.772 3.572-11.429 12.011-34.445 12.096-34.676a.301.301 0 1 1 .565.208c-.085.231-8.518 23.233-12.085 34.647-1.498 4.791-2.092 7.303-2.668 9.732-.814 3.437-1.656 6.991-5.037 16.993-3.068 9.077-5.075 15.768-7.015 22.239-1.66 5.54-3.23 10.772-5.261 16.756-2.782 8.189-8.518 24.236-12.706 35.952-2.42 6.77-4.331 12.116-5.107 14.357-2.14 6.182-5.023 15.502-5.052 15.595a.301.301 0 0 1-.287.213Z"/>
  <path fill="#EAE6E4" d="M227.368 73.32s-12.011-43.282-48.099-28.186c-6.877 2.877-13.765 9.564-23.269 32.093-14.457 34.272-45.41 100.309-58.35 127.202 0 0 9.24.355 35.351 13.47 5.603 2.813 21.898 4.369 29.361 3.256 3.41-.508 19.204-33.104 21.23-32.895 1.726.177-8.688 29.555-6.513 29.813 4.983.589 29.24.273 44.877-5.826 0-30.51 11.441-108.753 5.412-138.927Z"/>
  <path fill="#fff" d="M195.287 41.648s-3.998.023-5.864 1.445c-1.865 1.421 4.709 27.63 5.331 33.05.622 5.418 3.198 61.655 5.419 61.388 2.221-.266 11.372-50.106 12.971-64.41 1.599-14.303-2.843-31.94-17.857-31.473Z"/>
  <path fill="#2E2E47" d="M192.224 14.136s-3.203 13.097 4.681 16.133c7.885 3.037 7.58-15.352 6.349-17.152-1.23-1.799-9.595-.661-11.03 1.02Z"/>
  <path fill="#FFA982" d="M199.312 30.272s-2.633 7.617-5.961 11.656c-1.947 2.363 5.549 10.077 10.139 11.4 4.59 1.323 2.851-7.914 2.899-10.19.048-2.275 1.393-8.592 1.308-9.596-.086-1.004-6.76-4.209-8.385-3.27Z"/>
  <path fill="#2E2E47" d="M206.433 44.202c-.03-.43-.05-.796-.044-1.064.027-1.26.45-3.757.809-5.907l-5.771-2.602s1.919 7.187 5.006 9.573Z"/>
  <path fill="#FFA982" d="m221.761 13.12.925 10.39c.216 2.424.894 4.807.75 8.427-.143 3.62-2.022 9.954-8.728 10.435-6.706.48-13.549-4.495-14.927-8.213-1.378-3.717-1.06-5.374-1.06-5.374s-2.078.185-3.133-2.514c-1.055-2.699-2.192-6.27.222-6.601 2.414-.332 2.884.972 3.451.805.567-.167 3.013-6.668 6.079-7.523 3.065-.854 14.602-3.277 16.421.168Z"/>
  <path fill="#2E2E47" d="M215.276 20.302a.303.303 0 0 1-.259-.147c-.023-.04-.596-.96-2.054-1.106-1.579-.159-4.039.36-4.064.365a.301.301 0 0 1-.125-.59c.104-.022 2.578-.542 4.248-.375 1.776.177 2.484 1.35 2.514 1.399a.302.302 0 0 1-.26.454Z"/>
  <path fill="#F2836D" d="M207.764 27.987c.073.812 1.38 1.359 2.921 1.222s2.731-.907 2.659-1.719c-.072-.812-1.38-1.359-2.921-1.222-1.541.138-2.731.907-2.659 1.719Zm13.006-.537c.072.812.876 1.404 1.794 1.322.918-.082 1.604-.806 1.531-1.618-.072-.812-.875-1.404-1.793-1.323-.918.082-1.604.807-1.532 1.619Z"/>
  <path fill="#2E2E47" d="M209.703 23.776a.301.301 0 0 1-.053-.598c.026-.005 2.636-.476 4.547-.921a.3.3 0 1 1 .136.587c-1.925.448-4.55.922-4.576.927a.299.299 0 0 1-.054.005Z"/>
  <path fill="#2E2E47" d="M212.978 22.984s.242-.055.616.25c.373.305.349 1.723-.526 2.402-.874.678-1.628.13-1.802-.732-.175-.861.187-2.099 1.712-1.92Zm6.882.213c-.493 0-.829-.014-.863-.015a.301.301 0 0 1 .026-.602c.02 0 2.016.082 3.546-.162a.302.302 0 1 1 .094.595c-.957.153-2.059.184-2.803.184Z"/>
  <path fill="#2E2E47" d="M221.762 23.047s.225.024.432.423c.207.4-.318 1.706-1.298 2.062-.979.355-1.422-.387-1.263-1.24.159-.853.904-1.887 2.129-1.245Zm-24.263-4.118s1.769 4.698 3.829 5.152c2.06.453 2.122-6.878 2.426-8.256.304-1.377 1.586-2.872 1.586-2.872s-10.169-.213-7.841 5.976Z"/>
  <path fill="#2E2E47" d="M218.608 32.32c-.929 0-1.952-.358-3.059-1.07a.302.302 0 1 1 .326-.507c.576.37 2.329 1.5 3.955.69.506-.251.8-.563.899-.952.153-.596-.14-1.412-.893-2.495-1.012-1.454-2.564-6.207-1.349-7.771 1.168-1.505 3.887-.466 4.003-.421a.301.301 0 0 1-.219.561c-.024-.01-2.415-.921-3.308.23-.931 1.198.35 5.595 1.367 7.057.872 1.253 1.184 2.202.983 2.989-.143.56-.552 1.012-1.215 1.342a3.296 3.296 0 0 1-1.49.347Z"/>
  <path fill="#82664B" d="m356.625 150.426-11.962-1.36-12.998 114.322 11.963 1.36 12.997-114.322Z"/>
  <path fill="#FA634B" d="M409.271 92.511 308.135 80.995c-3.254-.37-6.22 1.988-6.59 5.242l-6.964 61.16c-.371 3.253 1.988 6.218 5.242 6.589l101.137 11.517c3.253.37 6.219-1.989 6.589-5.243l6.965-61.159c.37-3.254-1.989-6.22-5.243-6.59Z"/>
  <path fill="#fff" d="m344.413 111.249-2.554 22.556s5.452.421 5.512.128c.061-.293 1.023-11.656 1.023-11.656s3.809-1.014 4.335-4.229c.525-3.215-.968-6.971-8.316-6.799Zm19.24 7.583-1.221 15.939 4.719-.209.664-11.334s1.453-2.568 3.89-2.053c2.437.515 2.984.934 2.984.934l1.536-4.103s-5.485-2.17-8.743-.045l-.269-1.454-3.333.331-.227 1.994Zm14.686 9.42c.568-.13 6.707.28 6.487-3.442-.227-3.839-4.44-3.553-7.421-2.075-2.981 1.477-3.275 10.92-.036 11.981s5.355-1.745 5.355-1.745l-2.438-1.919s-.845.563-1.352.214c-.508-.348-1.35-2.553-.595-3.014Zm-69.931 1.392 13.546 1.121.465-4.083-8.013-.786.023-3.542 6.94.579.119-4.755-6.635-.291-.079-4.862 7.212.609.341-4.307-12.043-.864-1.876 21.181Zm47.266-7.913-2.971 12.671 4.428.351 1.757-12.656-3.214-.366Zm.665-4.627-.456 3.263 3.503.548.374-3.221-3.421-.59Zm44.358-12.499-3.844 18.844s-4.608-3.068-7.839-.291c-3.231 2.777-3.977 10.6.873 11.229 4.851.629 6.659-1.488 6.659-1.488l.025 3.225 5.524.694s-.307-7.152.089-9.476c1.073-6.296 3.841-21.161 3.841-21.161l-5.328-1.576Zm-60.851 12.777-2.314-2.912-5.309 5.751-3.88-6.798-2.91 2.318 4.03 7.47-5.568 6.031 2.6 3.315 4.966-5.644 3.57 6.616 3.278-2.645-4.069-7.129 5.606-6.373Z"/>
  <path fill="#FFA982" d="M306.888 141.245c2.533-.61 11.509-2.891 11.682-.555.172 2.336-2.858 2.471-6.888 3.886-1.33.467 14.717 5.492 13.457 7.439-1.049 1.622-8-1.787-8.048-.718-.049 1.069 8.732 1.697 8.682 3.093-.05 1.395-8.987.549-9.045.886-.059.337 7.94 1.717 7.75 2.647-.19.931-8.728-.643-9.03-.019-.302.623 6.299 1.111 5.567 2.299-.732 1.188-11.949-1.681-13.57-1.922-3.183-.474-11.478-3.094-12.665-6.915-2.121-6.831 10.606-9.759 12.108-10.121Z"/>
  <path fill="#2E2E47" d="m227.937 128.513-44.344-42.528s6.586 46.704 42.687 64.709c.607-7.39 1.184-14.865 1.657-22.181Z"/>
  <path fill="#EF9A6A" d="m212.924 306.149 29.814-40.755 60.856-22.45-28.036 40.099-62.634 23.106Z"/>
  <path fill="#F2B368" d="m305.373 366.855-62.635 23.106V265.394l62.635-23.106v124.567Z"/>
  <path fill="#EF9A6A" d="M411.965 242.288H305.373v124.567h106.592V242.288Z"/>
  <path fill="#fff" d="m271.757 231.834-18.454 19.854 38.925 36.178 18.453-19.853-38.924-36.179Z"/>
  <path fill="#EAE6E4" d="m269.574 229.807-18.453 19.854 5.32 4.944 18.453-19.854-5.32-4.944Z"/>
  <path fill="#84CECA" d="m299.612 257.743-14.101 6.234-4.136 13.82 10.843 10.079 18.453-19.854-11.059-10.279Zm-9.56-8.886 4.456 4.142-14.1 6.234-4.137 13.82-4.457-4.142 4.137-13.82 14.101-6.234Z"/>
  <path fill="#EAE6E4" d="m270.3 245.15 6.728 6.252 2.338-2.516-6.728-6.252-2.338 2.516Zm-5.611 6.038 6.728 6.252 1.67-1.797-6.728-6.252-1.67 1.797Zm118.131-36.603-30.878 43.374a2.305 2.305 0 0 0 .541 3.216l19.773 14.077a2.307 2.307 0 0 0 3.216-.541l30.878-43.375a2.304 2.304 0 0 0-.541-3.215l-19.773-14.077a2.305 2.305 0 0 0-3.216.541Z"/>
  <path fill="#2E2E47" d="M364.69 265.254a.301.301 0 0 1-.245-.476l29.13-40.918a.3.3 0 0 1 .491.35l-29.13 40.918a.303.303 0 0 1-.246.126Z"/>
  <path fill="#fff" d="M374.658 231.36a.903.903 0 0 1-.736-1.428l9.112-12.799a.903.903 0 1 1 1.472 1.048l-9.111 12.799a.906.906 0 0 1-.737.38Z"/>
  <path fill="#FFC97D" d="M358.705 257.633a2.366 2.366 0 0 0 .417 3.309 2.366 2.366 0 0 0 3.31-.417l1.901-2.449-3.727-2.893-1.901 2.45Z"/>
  <path fill="#878446" d="m362.507 252.735-1.901 2.449 3.727 2.892 1.9-2.449a2.365 2.365 0 0 0-.416-3.309 2.365 2.365 0 0 0-3.31.417Z"/>
  <path fill="#FFC97D" d="M369.165 242.905a2.367 2.367 0 0 0 .417 3.31 2.367 2.367 0 0 0 3.31-.417l1.9-2.449-3.726-2.893-1.901 2.449Z"/>
  <path fill="#878446" d="m372.967 238.007-1.901 2.449 3.726 2.893 1.901-2.449a2.366 2.366 0 0 0-.417-3.31 2.366 2.366 0 0 0-3.309.417Z"/>
  <path fill="#FFC97D" d="M382.94 223.156a2.366 2.366 0 0 1 3.267-.674 2.365 2.365 0 0 1 .674 3.267l-1.704 2.589-3.941-2.592 1.704-2.59Z"/>
  <path fill="#878446" d="m379.532 228.335 1.704-2.59 3.941 2.593-1.704 2.59a2.366 2.366 0 0 1-3.267.674 2.366 2.366 0 0 1-.674-3.267Z"/>
  <path fill="#FFC97D" d="M394.873 232.163a2.366 2.366 0 0 1 3.267-.674 2.366 2.366 0 0 1 .675 3.267l-1.704 2.59-3.941-2.593 1.703-2.59Z"/>
  <path fill="#878446" d="m391.466 237.343 1.704-2.59 3.941 2.593-1.704 2.59a2.366 2.366 0 0 1-3.267.674 2.366 2.366 0 0 1-.674-3.267Z"/>
  <path fill="#FFC97D" d="M384.313 246.819a2.366 2.366 0 0 1 3.267-.674 2.366 2.366 0 0 1 .675 3.267l-1.704 2.59-3.941-2.593 1.703-2.59Z"/>
  <path fill="#878446" d="m380.906 251.999 1.704-2.59 3.941 2.593-1.704 2.59a2.366 2.366 0 0 1-3.267.674 2.366 2.366 0 0 1-.674-3.267Z"/>
  <path fill="#FFC97D" d="M370.756 265.559a2.366 2.366 0 0 0 .417 3.309 2.366 2.366 0 0 0 3.31-.416l1.901-2.45-3.727-2.892-1.901 2.449Z"/>
  <path fill="#878446" d="m374.558 260.661-1.901 2.449 3.727 2.893 1.901-2.449a2.367 2.367 0 0 0-.417-3.31 2.366 2.366 0 0 0-3.31.417Z"/>
  <path fill="#9C6F43" d="m328.863 229.672-1.291-.507c-2.299-.903-3.852-3.457-3.852-6.335v-2.734h-16.103v2.734c0 2.878-1.553 5.432-3.852 6.335l-1.291.507c-3.85 1.513-6.451 5.789-6.451 10.609v37.952c0 3.021 2.062 5.47 4.604 5.47h30.084c2.542 0 4.603-2.449 4.603-5.47v-37.952c0-4.82-2.601-9.096-6.451-10.609Z"/>
  <path fill="#EAE6E4" d="M329.132 214.011h-26.927v9.944h26.927v-9.944Z"/>
  <path fill="#fff" d="M335.314 245.045h-29.369v19.076h29.369v-19.076Z"/>
  <path fill="#84CECA" d="m352.976 225.754-34.671 40.408a2.306 2.306 0 0 0 .248 3.251l18.422 15.806a2.304 2.304 0 0 0 3.25-.249l34.671-40.408a2.305 2.305 0 0 0-.248-3.25l-18.421-15.806a2.306 2.306 0 0 0-3.251.248Z"/>
  <path fill="#fff" d="M329.13 263.672a3.81 3.81 0 1 1-4.96 5.783 3.81 3.81 0 0 1 4.96-5.783Zm10.193-6.116a3.81 3.81 0 1 0-6.659-3.706 3.81 3.81 0 0 0 6.659 3.706Zm9.361-10.94a3.81 3.81 0 1 0-6.73-3.575 3.81 3.81 0 0 0 6.73 3.575Zm9.3-10.809a3.81 3.81 0 1 0-6.657-3.707 3.81 3.81 0 0 0 6.657 3.707Zm-17.276 43.206a3.81 3.81 0 1 0-5.387-5.388 3.81 3.81 0 0 0 5.387 5.388Zm9.985-11.7a3.81 3.81 0 1 0-6.656-3.707 3.81 3.81 0 0 0 6.656 3.707Zm9.361-10.941a3.809 3.809 0 1 0-6.728-3.575 3.809 3.809 0 1 0 6.728 3.575Zm9.301-10.808a3.81 3.81 0 1 0-6.659-3.708 3.81 3.81 0 0 0 6.659 3.708Z"/>
  <path fill="#2E2E47" d="M330.37 274.58a.301.301 0 0 1-.229-.498l32.707-38.119a.302.302 0 0 1 .458.393l-32.708 38.119a.3.3 0 0 1-.228.105Z"/>
  <path fill="#FFC97D" d="M349.331 265.394H242.738v124.567h106.593V265.394Z"/>
  <path fill="#F2B368" d="m411.965 366.855-62.634 23.106V265.394l62.634-23.106v124.567Z"/>
  <path fill="#F2B368" d="m242.738 265.394-8.251 35.183h96.834l18.01-35.183H242.738Z"/>
  <path fill="#FFC97D" d="m349.331 265.394 29.372 33.784 57.184-26.992-23.922-29.898-62.634 23.106Z"/>
  <path fill="#2E2E47" d="M355.614 366.568v17.298l17.416-6.516v-16.113l-2.014.711.118 13.624-1.54.593-.237-12.085-2.581.83v12.321l-1.684.711V365.67l-2.37.898.356 12.085-1.955.829v-12.203l-2.903 1.066v12.203l-1.303.356v-15.047l-1.303.711Zm24.238 8.464 4.881-1.704v-11.154l2.306-.805-5.685-6.918-4.756 10.617 2.986-1.043.268 11.007Zm11.683-4.272 4.88-1.704v-11.154l2.306-.806-5.684-6.917-4.756 10.617 2.986-1.043.268 11.007ZM217.34 34.96c-2.307 0-4.689-.907-4.799-.95a.3.3 0 1 1 .216-.561c.029.01 2.88 1.095 5.24.88 2.235-.204 2.657-.392 2.674-.4a.291.291 0 0 1 .406.097.311.311 0 0 1-.103.422c-.092.059-.573.267-2.922.481a7.895 7.895 0 0 1-.712.032Z"/>
  <path fill="#EAE6E4" d="M177.785 52.409s5.798-5.296 10.484-.965c15.399 14.234 45.855 53.055 47.694 54.894 2.399 2.399 64.423 32.881 64.423 32.881s5.302 20.522-5.877 26.386c0 0-60.087-18.124-73.672-28.785-12.383-9.717-44.118-41.425-43.052-84.411Z"/>
  <path fill="#fff" d="M205.052 49.953s-5.497-4.062-7.304-5.751c-1.923-1.797-3.611-4.205-3.611-4.205l-4.025 3.302 10.256 13.594 4.303-3.11 3.856 2.46s-.708-7.98-.827-9.04c-.118-1.059-1.226-2.452-1.226-2.452l-1.422 5.202Z"/>
  <path fill="#2E2E47" d="M202.726 57.185s.661.829 2.124 1.003c1.282.153 2.465-.947 2.465-.947s3.479 1.642 4.116 1.287c.637-.356-.885-3.002-.562-4.463.153-.69-.075-3.91-1.066-3.396-.99.513-3.166 2.805-3.166 2.805s-1.469-.515-2.247-.278c-.779.237-1.628.79-1.628.79s-4.211-2.962-4.919-2.527c-.708.434.458 3.949.477 4.423.019.474.017 3.724.849 3.896.833.171 3.557-2.593 3.557-2.593Zm-18.189 129.244a.302.302 0 0 1-.28-.413c10.399-26.24 15.926-47.486 15.98-47.697a.301.301 0 1 1 .583.15c-.054.212-5.59 21.492-16.003 47.769a.3.3 0 0 1-.28.191Zm-34.043-10.859c-.228 0-.455-.005-.683-.015-3.702-.166-6.24-1.574-7.544-4.184-2.014-4.031-.637-10.15.874-14.574 1.884-5.519 4.644-10.54 6.435-13.163l.125-.183 27.011 8.339-.138.31c-.026.06-2.733 6.099-7.345 11.968-5.923 7.539-12.386 11.502-18.735 11.502Zm-.545-31.412c-4.194 6.235-10.471 20.282-7.143 26.944 1.199 2.4 3.565 3.695 7.032 3.851.224.01.447.015.668.015 14.107.002 24.077-20.057 25.375-22.804l-25.932-8.006Zm63.567 42.657c-.777 0-1.573-.288-2.357-.859-2.336-1.701-4.42-5.852-5.573-11.103-1.297-5.899-1.338-12.658-.117-19.033l.057-.295 15.338 2.901v.249c0 1.004-.065 24.602-5.754 27.716a3.28 3.28 0 0 1-1.594.424Zm-7.511-30.586c-2.427 13.117.931 25.905 5.509 29.24 1.146.835 2.259.968 3.307.394 2.198-1.203 3.838-6.265 4.742-14.639.611-5.658.688-11.088.697-12.299l-14.255-2.696Zm10.482-32.264a.496.496 0 0 1-.278-.082c-.408-.267-.416-.98.801-3.71 1.209-2.712 4.873-5.828 10.888-9.261a94.77 94.77 0 0 1 8.655-4.341.3.3 0 0 1 .395.159.3.3 0 0 1-.159.395c-.164.07-16.457 7.078-19.229 13.294-.928 2.081-1.012 2.735-.998 2.931.632-.185 2.765-2.525 3.932-3.806l.12-.133c2.657-2.915 13.462-9.362 13.92-9.635a.302.302 0 0 1 .369.47c-.077.078-7.706 7.861-9.132 11.234a.302.302 0 0 1-.555-.235c1.07-2.529 5.312-7.249 7.668-9.76-3.325 2.048-9.901 6.221-11.824 8.332l-.121.132c-2.604 2.859-3.783 4.016-4.452 4.016Zm56.096-9.167c-.275.001-.62-.125-.958-.587-2.606-3.566 5.359-21.145 5.7-21.892a.3.3 0 1 1 .548.25c-2.278 4.997-7.753 18.561-5.761 21.286.286.391.481.347.545.333.831-.189 2.827-4.102 4.645-13.803a.302.302 0 0 1 .598.071c-.127 2.391-.172 8.897 1.13 10.27a.696.696 0 0 0 .288.194c.394-1.138 1.167-8.393 1.579-12.906a.301.301 0 0 1 .6.055c-.003.033-.306 3.341-.67 6.607-.764 6.869-1.002 6.869-1.362 6.869-.324 0-.617-.136-.871-.404-1.07-1.127-1.322-4.757-1.353-7.484-.923 4.126-2.664 10.714-4.451 11.119a1.019 1.019 0 0 1-.207.022Zm-49.418-84.195a5.47 5.47 0 0 1-1.856-.344c-.664-.24-1.23-.84-1.637-1.735-.643-1.415-.788-3.34-.486-4.117.559-1.44 6.359-.912 6.416-.903.232.038.415.211.545.515.473 1.108.292 4.419-.454 5.507-.427.624-1.346 1.077-2.528 1.077Zm.457-6.612c-1.673 0-3.698.18-3.874.634-.218.56-.14 2.302.473 3.65.236.519.652 1.186 1.293 1.417 1.737.628 3.193.208 3.683-.506.513-.75.786-3.289.494-4.605-.091-.412-.198-.485-.2-.486-.407-.066-1.101-.104-1.869-.104Zm-11.646 6.986a7.702 7.702 0 0 1-2.201-.337c-2.161-.646-2.891-3.738-2.692-5.287.031-.236.083-.434.156-.59.652-1.39 7.599-.894 7.668-.884.205.028.49.166.686.667.484 1.24.233 4.341-.626 5.378-.505.61-1.593 1.053-2.991 1.053Zm.568-6.607c-2.054 0-4.542.185-4.76.65a1.399 1.399 0 0 0-.103.41c-.166 1.293.483 4.1 2.267 4.633 2.146.642 3.948.21 4.555-.523.702-.847.935-3.732.528-4.775-.085-.218-.169-.284-.206-.289-.499-.068-1.345-.106-2.281-.106Z"/>
  <path fill="#2E2E47" d="M215.532 26.887a.301.301 0 0 1-.149-.564c1.376-.777 3.887-.448 3.994-.433a.301.301 0 0 1-.081.597c-.024-.004-2.417-.317-3.616.361a.3.3 0 0 1-.148.04Zm-8.021-1.694a.3.3 0 0 1-.142-.035l-8.251-4.417a.301.301 0 0 1 .285-.531l8.251 4.416a.302.302 0 0 1-.143.567Zm15.945-18.557c-2.267-2.66-3.709-6.456-11.4-6.612-7.691-.157-11.916.47-12.464 1.487-.548 1.017-.509 1.213-.509 1.213s-2.645-.352-4.707 1.682c-2.061 2.035-4.409 10.564-2.022 12.403l10.329-3.404c.117 0 4.035 1.8 9.373 2.543 5.339.744 11.396 3.587 13.32.861.579-.82-1.252-3.365-1.604-3.678 0 0 1.402.933 1.8.665 1.549-1.04.151-4.5-2.116-7.16Z"/>
</svg>
