<svg xmlns="http://www.w3.org/2000/svg" width="588" height="438" fill="none" viewBox="0 0 588 438">
  <path fill="#F5F2FD" fill-rule="evenodd" d="M279.393 19.665c281.791-7.37 308.693 199.81 249.534 201.494-114.327 3.252-121.85 66.057-197.19 135.612C210.05 469.121 66.856 475.536 75.399 182.648 78.99 59.724 165.054 22.655 279.393 19.665Z" clip-rule="evenodd"/>
  <path fill="#F5F2FD" fill-rule="evenodd" d="M474.953 248.565c81.424-18.181 97.091 18.418 80.001 22.26-33.024 7.426-28.524 18.903-51.537 37.259-33.585 26.793-72.333 16.302-81.423-17.283-6.054-22.376 19.92-34.857 52.959-42.236Z" clip-rule="evenodd"/>
  <path fill="url(#a)" d="M446.843 330.718c-5.38-1.557-10.2-3.071-15.203-5.159-6.512-2.559-12.239-6.831-18.597-9.693-6.056-2.91-12.666-4.079-18.974-6.26-3.456-1.044-7.188-2.945-11.044-4.078 1.376-.387 2.81-.808 4.228-1.182.881-.204 1.778-.454 2.618-.672a40.97 40.97 0 0 0 3.854 1.69c2.893 1.155 5.86 2.232 8.894 2.976 6.986 1.603 14.096 2.843 21.335 3.16 7.632.149 14.874-2.028 22.148-2.36 2.413-.08 4.887.216 7.154.287.388-.017.886-.354.841-.777-.327-.571-1.125-.744-1.66-1.134-5.158-3.158-10.816-5.421-16.891-5.793-7.618-.601-15.145 1.016-22.328-.705a44.281 44.281 0 0 1-5.611-1.433c2.678-1.261 5.374-2.568 7.973-4.008 4.38-2.454 8.421-5.584 12.569-8.474 6.031-4.325 12.419-8.168 17.915-13.29.808-.685 2.777-2.65.604-2.436-2.81.809-5.57 1.889-8.416 2.532a76.026 76.026 0 0 0-44.178 22.722c-1.662 1.766-3.253 3.606-4.577 5.642-.094.115-.17.243-.227.38-2.736.732-5.4 1.541-8.124 2.378-.102.016-.159.047-.259.063-1.015.31-2.03.621-3.001.947.724-1.124 1.494-2.384 2.102-3.039 1.892-2.297 3.705-3.4 5.902-5.336 5.341-4.816 10.028-10.777 12.605-17.67 2.384-6.198 5-11.552 8.769-17.066 1.797-5.331-18.872 15.096-19.862 16.025-4.68 4.284-7.713 10.155-10.188 16.066-1.17 3.106-2.11 6.648-3.523 9.212-.615 1.365-1.582 2.506-2.31 3.78a.75.75 0 0 0 .023.211c-2.161.727-4.311 1.562-6.444 2.35-.059.031-.101.015-.159.046-.987.371-1.974.741-2.935 1.172.047-.136.052-.287.099-.424a9.565 9.565 0 0 1 .855-2.197c4.363-7.09 9.921-13.357 14.635-20.224 2.491-3.617 4.973-7.337 6.59-11.458 1.18-3 1.757-6.872 3.01-9.389 1.55-2.822 3.408-5.437 5.293-7.99.258-.47 2.111-2.374 2.589-3.48.24-1.799-2.255.034-2.966.297-6.458 3.77-12.17 8.967-16.76 15.063-3.056 3.726-6.015 7.587-8.071 12.014-3.775 7.599-5.264 17.006-8.739 24.149a30.938 30.938 0 0 1-3.777 5.816c-.312.35-.22.635.034.723-2.747 1.186-5.428 2.449-8.122 3.754.686-4.19 3.228-8.501 5.589-12.568 2.784-4.735 5.217-9.695 7.606-14.668 1.583-3.471 3.054-7.033 3.828-10.786 1.008-5.809 1.139-11.564 2.478-16.952a35.936 35.936 0 0 1 1.719-5.104c.267-.772.822-1.548.632-2.377-.189-.421-.767-.265-1.091-.021-.8.793-1.321 1.884-2.05 2.751a200.71 200.71 0 0 0-7.711 10.561c-4.813 7.289-9.197 15.136-11.239 23.791-1.516 6.448-1.501 13.576-2.773 19.597-.419 2.452-.81 4.962-1.969 7.206-.033.092-.138.258-.121.213-.095.272-.391.577-.299.864.01.023.026.042.045.057a.153.153 0 0 0 .067.031c-3.601 1.858-7.123 3.896-10.617 5.996.045-.545-.038-1.132.109-1.693.09-1.087.587-2.8 1.048-4.268 1.226-3.544 3.087-6.716 4.477-10.459 3.008-6.898 3.208-14.511 3.891-21.857.661-8.116-.002-16.131-.073-24.196.031-1.359.135-2.716.308-4.065l.047-.137c.308-1.363.546-2.741.713-4.129.104-.575-.578-.81-.975-.49-.583.307-.505 1.046-.651 1.607-.218 1.044-.335 2.072-.453 3.099-.883 4.07-2.249 8.432-3.576 12.4-2.503 6.409-5.945 12.495-7.571 19.26-1.433 5.661-1.011 11.607-.147 17.249.558 2.94 1.238 5.109 1.03 8.193-.001 2.9-.208 5.424-.886 7.937-.319 1.059-.707 2.044-1.112 3.074a.421.421 0 0 0 .061.378.472.472 0 0 0 .341.118 383.856 383.856 0 0 0-7.343 4.532c.535-.851.989-1.75 1.359-2.685 1.619-3.714 2.114-7.765 2.637-11.758.682-5.005.821-10.095-.15-15.011-.722-4.117-2.14-8.016-3.08-12.057a67.466 67.466 0 0 1-1.545-14.426c.01-.263.036-.526.08-.786.15-.711.285-1.376.379-2.056-1.074-1.034-1.541.178-1.733 2.249-.965 4.856-2.772 10.49-3.257 15.615-.542 7.495.32 15.07 1.925 22.291.866 4.116 2.864 7.86 2.932 11.801.043 2.356-.586 4.174-1.334 6.612-.067.332-.396.729-.133 1.073l.085.03a.657.657 0 0 0-.052.287c-11.082 7.206-21.694 15.39-31.085 25.015-1.158 1.278-2.374 2.587-3.463 3.941-.23.529.409.751.818.536 1.387-1.25 2.484-2.905 3.845-4.216 10.603-10.782 22.629-19.747 35.543-27.694 4.117 3.409 7.208 7.99 11.176 11.551 7.708 6.687 18.029 8.579 27.061 12.672.911.265 2.362 1.174 3.016-.026a.42.42 0 0 0-.13-.452c-.576-.401-1.199-.668-1.807-.981-3.593-1.753-6.252-3.995-9.15-6.931-1-1.05-2.032-2.069-3.094-3.056 1.478.97 3.03 1.863 4.581 2.756 4.791 2.98 10.746 4.94 15.641 6.379a43.371 43.371 0 0 1 13.292 8.061c.902.566 1.731 1.615 2.789 1.728 1.679-.436.237-1.648-.39-2.324-5.23-5.015-9.747-10.852-15.487-15.23-3.329-2.374-6.48-4.024-9.46-6.581-3.229-2.39-5.978-5.478-9.387-7.625-4.384-2.637-9.55-3.153-13.825-5.141-1.231-.578-2.144-1.25-3.058-1.921 3.214-1.841 6.396-3.59 9.691-5.246l2.306 2.018c4.197 4.149 9.062 7.461 14.097 10.425 3.919 2.323 8.272 3.677 11.981 6.333 8.116 5.506 14.756 14.724 23.388 20.255 2.182 1.417 4.26 3.001 6.472 4.327.906.416 2.182 1.416 3.06.396.353-.742-.596-1.172-.972-1.606-1.255-1.198-2.553-2.412-3.66-3.761-5.689-7.007-10.826-14.637-17.847-20.271-7.434-6.236-15.253-12.046-23.984-16.188-3.226-1.574-6.484-3.464-10.17-3.57a9.02 9.02 0 0 1-1.261-.079c3.103-1.522 6.303-2.907 9.573-4.22 1.003-.415 1.989-.786 2.992-1.201 1.854 1.811 3.011 4.399 5.204 5.921 7.286 5.423 15.358 9.538 23.822 12.518 13.304 4.858 26.379 11.061 40.684 12.195 1.175.052 2.396.525 3.57.168 1.653-1.056-1.275-1.56-1.926-1.887-2.411-.886-4.122-1.326-6.615-2.393-2.741-1.456-5.36-3.126-8.039-4.764-7.003-4.308-13.986-8.809-21.616-11.858-7.976-3.015-15.733-4.732-23.297-8.52a75.183 75.183 0 0 1-6.602-3.404c3.849-1.467 7.665-2.843 11.578-4.083.13.452.881.762 1.186 1.122 2.73 2.318 6.091 3.634 9.169 5.36 4.822 2.89 9.369 6.296 14.448 8.716 7.925 3.302 15.607 6.062 24.151 7.848 5.36 1.193 10.823 2.372 16.379 2.31.923.372 5.137.048 3.674-1.373Zm-114.164-3.532c.027.061.069.074.097.135.027.061.77 1.08.509.736 1.331 2.495 3.159 4.656 5.02 6.724.333.419.681.795 1.027 1.169a35.097 35.097 0 0 0-10.514-4.503c-.824-.236-1.481-.41-2.12-.632 1.962-1.255 3.95-2.45 5.981-3.629Z"/>
  <path fill="url(#b)" d="M392.382 211.768c-5.255 3.837-10.056 7.222-15.427 10.513-6.868 4.351-14.429 7.301-21.412 11.392-6.787 3.818-12.685 8.855-19.116 13.199-3.41 2.444-7.675 4.75-11.454 7.493.753-1.321 1.527-2.706 2.322-4.058.517-.828 1.011-1.688 1.483-2.487a66.395 66.395 0 0 0 4.197-2.5c3.065-1.925 6.129-3.947 8.995-6.169 6.509-5.162 12.843-10.589 18.581-16.522 5.907-6.337 9.773-13.354 15.047-19.599 1.773-2.06 3.875-4.006 5.651-5.874.28-.335.405-.899.054-1.044-.677.027-1.415.621-2.113.9-6.291 2.957-12.292 6.721-17.185 11.654-6.238 6.129-10.738 13.142-17.489 18.42-1.518 1.312-3.537 2.82-5.341 4.086 1.087-2.795 2.152-5.622 3.044-8.427 1.482-4.737 2.199-9.484 3.179-14.218 1.329-6.932 3.291-13.958 3.615-20.787.098-.978.117-3.48-1.373-1.565-1.526 2.708-2.81 5.49-4.488 8.157-10.722 14.761-16.829 31.483-16.474 46.907.066 2.159.241 4.293.764 6.285a.925.925 0 0 0 .114.355c-1.527 2.611-2.943 5.198-4.384 7.845-.064.092-.086.154-.15.246-.537.985-1.074 1.97-1.567 2.926-.296-1.094-.658-2.286-.688-3.08-.289-2.583.26-4.581.473-7.265.435-6.569-.485-13.086-3.71-18.236-2.85-4.687-4.886-9.203-6.169-14.757-2.642-3.819-2.987 22.376-3.039 23.609-.334 5.783 1.775 10.873 4.337 15.513 1.448 2.329 3.396 4.652 4.251 6.95.559 1.108.682 2.413 1.087 3.577.088.036.111.069.177.072-1.094 2.128-2.1 4.292-3.129 6.424-.022.062-.066.092-.086.154-.471.988-.944 1.977-1.349 2.969-.066-.099-.177-.168-.243-.266a5.607 5.607 0 0 1-1.002-1.671c-2.017-6.734-2.507-14.114-4.089-21.047-.825-3.656-1.739-7.351-3.609-10.495-1.357-2.292-3.829-4.455-4.771-6.598-.944-2.525-1.498-5.217-1.984-7.906-.158-.421-.182-2.799-.651-3.681-1.169-.981-1.687 1.907-2.03 2.616-2.072 7.052-2.501 14.097-1.407 20.591.481 4.178 1.136 8.335 2.902 11.982 2.844 6.461 8.785 11.79 11.515 17.803a19.664 19.664 0 0 1 1.503 5.691c.026.414.311.461.571.286-1.196 2.818-2.282 5.613-3.348 8.44-2.627-2.393-3.937-6.395-5.201-10.14-1.446-4.389-3.326-8.579-5.252-12.742-1.407-2.834-2.967-5.613-5.199-7.888-3.601-3.365-7.829-5.971-10.862-9.432a21.045 21.045 0 0 1-2.532-3.655c-.377-.559-.538-1.361-1.307-1.56-.459-.026-.782.528-.843.904-.012 1.014.414 1.925.511 2.912a131.818 131.818 0 0 0 2.083 11.05c1.824 7.199 4.39 14.278 9.347 19.746 3.697 4.067 9.066 7.147 12.627 10.826 1.524 1.414 3.113 2.831 3.922 4.777.043.066.09.227.067.194.133.197.137.578.422.625.056 0 .11-.019.153-.056-1.34 3.827-2.481 7.663-3.558 11.503-.374-.273-.88-.458-1.19-.824-.749-.549-1.658-1.707-2.413-2.73-1.733-2.566-2.704-5.502-4.46-8.293-2.902-5.515-8.473-8.986-13.477-12.743-5.599-4.076-12.128-6.997-18.245-10.433a25.018 25.018 0 0 1-2.822-2.022l-.068-.099a24.847 24.847 0 0 0-2.562-2.389c-.353-.338-1.048.133-1.108.606-.213.621.401.876.711 1.243.625.614 1.29 1.191 1.988 1.722 2.389 2.507 4.63 5.544 6.605 8.378 2.917 4.881 4.877 10.408 8.728 14.705 3.167 3.658 7.959 5.881 12.855 7.606 2.634.808 4.782 1.177 6.941 2.689 2.18 1.258 3.922 2.526 5.295 4.186a23.308 23.308 0 0 1 1.466 2.266c.04.047.09.083.149.102a.317.317 0 0 0 .18.011.733.733 0 0 0 .348-.236 360.129 360.129 0 0 0-2.169 8.124 9.854 9.854 0 0 0-.987-2.303c-1.563-2.969-4.231-5.142-6.835-7.311-3.245-2.745-6.967-5.07-11.4-6.387-3.644-1.179-7.652-1.681-11.404-2.646a50.69 50.69 0 0 1-12.019-4.962 3.94 3.94 0 0 1-.528-.409c-.4-.423-.821-.827-1.261-1.208-1.593.452-1.035 1.37.376 2.429 2.917 2.916 5.781 6.874 9.264 9.504 5.224 3.705 11.573 6.267 18.221 8.054 3.752 1.059 8.084 1.007 11.098 2.661 1.804.985 2.693 2.301 3.956 3.987.2.201.248.646.707.577l.086-.059c.04.073.103.132.177.168-3 12.421-4.908 24.869-4.806 36.921.081 1.525.142 3.113.332 4.614.224.424.875-.017 1.023-.452.115-1.705-.296-3.345-.249-5.053-.052-13.569 2.343-27.545 6.179-41.823 5.69-1.974 11.481-2.58 17.174-4.363 10.88-3.563 20.142-11.398 30.08-17.2.89-.649 2.677-1.471 2.272-2.54a.373.373 0 0 0-.438-.086c-.741.308-1.416.717-2.112 1.091-4.047 2.254-7.753 3.511-12.16 4.667a99.678 99.678 0 0 0-4.647 1.27c1.851-.819 3.702-1.734 5.551-2.648 5.88-2.725 11.875-6.87 16.675-10.35a68.423 68.423 0 0 1 16.155-7.652c1.112-.511 2.531-.75 3.42-1.59.945-1.598-1.06-.914-2.043-.682-7.743 2.213-15.564 3.47-23.213 6.384-4.314 1.762-7.948 3.689-12.135 5.079-4.249 1.673-8.658 2.637-12.86 4.566-5.312 2.533-9.625 6.641-14.366 9.365-1.21.67-2.47 1.248-3.767 1.73 1.058-3.493 2.161-6.921 3.416-10.403l3.271-1.059c6.305-1.718 12.491-4.363 18.542-7.3 4.724-2.28 9.047-5.342 13.862-7.301 10.303-4.418 22.275-5.988 32.991-10.829 2.721-1.216 5.49-2.27 8.168-3.551.999-.58 2.722-1.216 2.622-2.395-.291-.618-1.334-.008-1.946.116-1.853.535-3.752 1.098-5.608 1.441-9.587 1.731-19.225 2.73-28.795 6.175-10.334 3.529-20.641 7.568-30.385 13.095-3.632 2.022-7.53 3.933-10.407 6.979-.322.358-.662.699-1.018 1.023 1.213-3.262 2.602-6.546 4.1-9.858.448-1.022.919-2.01 1.367-3.032 2.771-.769 5.596-.616 8.406-1.795 9.609-3.759 18.836-8.744 27.505-14.551 13.755-9.05 28.352-17.324 40.07-28.83.93-.963 2.213-1.782 2.836-2.921.462-1.844-2.14.391-2.881.795-2.498 1.641-4.126 2.884-6.823 4.513-3.177 1.666-6.422 3.139-9.687 4.673-8.558 4.007-17.248 7.911-25.333 12.987-8.325 5.383-15.508 11.143-24.101 15.844a121.493 121.493 0 0 1-7.573 4.06c1.82-3.865 3.684-7.661 5.724-11.483.438.087 1.243-.408 1.745-.507 3.816-1.283 7.358-3.532 10.994-5.364 5.835-2.791 11.85-5.128 17.527-8.338 8.501-5.213 16.411-10.459 24.244-16.849 4.969-3.979 10.002-8.05 14.177-12.736.981-.613 3.94-4.287 1.759-3.678Zm-89.368 94.216c.066.003.109-.026.175-.021.066.003 1.397-.178.938-.109 2.888-.035 5.902-.63 8.87-1.295.568-.095 1.113-.225 1.66-.353a57.1 57.1 0 0 0-11.373 6.864c-.803.591-1.432 1.064-2.085 1.505a160.25 160.25 0 0 1 1.815-6.591Z"/>
  <path fill="url(#c)" d="M71.77 333.668c-.836-3.757.648-8.07 3.395-10.658l.817-.686c-.667-.462-1.434-.931-1.983-1.586-1.015-1.096-1.44-2.597-1.465-4.063a4.662 4.662 0 0 1 1.162-2.928c.616-.703 1.47-1.234 2.223-1.776 1.206-1.107 2.778-1.778 4.31-1.392.763-2.407 2.806-3.846 6.195-3.35 2.642.379 5.246 2.372 5.203 5.194.116 1.573-.64 3.326-.144 4.579.571 1.564 2.76 2.511 3.58.613.686-1.506.07-3.123-1.075-4.484-2.296-2.621-5.52-5.021-4.373-8.958 1.895-6.145 12.151-7.428 14.954-1.33a3.5 3.5 0 0 1 .286.781c.055-.045.055-.045.155-.036a5.339 5.339 0 0 1 .184-1.55c.359-1.231.955-2.289 1.051-3.392.141-1.047-.199-1.783-.84-2.545-1.207-1.214-3.37-2.462-3.744-4.564-.176-.872.019-1.967.764-2.406.69-.393 1.893-.289 2.061.684.056.509-.333.929-.751 1.095-.21.084-.602-.051-.576-.353.064-.145.273-.228.327-.273l.109-.092c.307-.63-.168-.973-.758-.57-.888.932-.398 2.842.764 4.002.64.761 1.845 1.423 2.568 2.392.541.755.964 1.699.831 2.648-.112 1.302-.998 2.789-1.139 3.836-.015.286-.057.57-.124.849a7.26 7.26 0 0 1 1.601-.418c2.485-.138 5.095 1.198 6.315 3.425a11.426 11.426 0 0 1 1.4 3.653c1.274-.142 2.72-.521 4.06-.254.1.008.246.072.346.081-.175-.319-.303-.582-.478-.9-3.586-8.132-5.499-16.93-9.24-25.025-.377-.892-.809-1.737-1.232-2.682-.109.092-.272.23-.28.329-.889.933-1.749 2.121-3.003 2.618a3.954 3.954 0 0 1-3.826-.686c-.658-.561-1.053-1.252-1.602-1.905-.732-.87-1.782-1.566-2.795-2.108-1.505-.686-3.274-1.242-4.156-2.732-.668-1.017-1.02-2.208-1.225-3.337-3.11.944-6.514 1.204-9.18-.642-.21.083-.473.211-.482.311a22.563 22.563 0 0 1-3.96 2.028c-4.926 2.097-10.426-.246-11.733-5.558-.066-.408-.177-.872-.243-1.283-2.367-.053-3.413-1.961-4.078-4.188-.297-1.238-.239-2.493-.481-3.778-.094-.663-.28-1.435-.456-2.309-1.579 1.326-3.379 4.048-5.67 2.538-3.545-2.781-3.862-8.461-1.236-11.969a12.868 12.868 0 0 0-1.632-.393c-.492-.144-2.276.055-3.215-.178-2.14-.336-1.887-2.687-1.01-4.074a14.602 14.602 0 0 1 6.53-6.046c.155-.038.264-.13.418-.166-.128-.264-.248-.627-.331-.837a3.638 3.638 0 0 1 .2-2.304c1.84-3.778 7.27-2.954 11.08-2.069a7.108 7.108 0 0 1 1.614-5.816c2.22-2.332 5.88-4.387 8.966-2.708 1.28-.796 2.891-.758 4.314-.282 1.111.353 2.157.887 3.094 1.581.191.118.329.28.52.398-.774-2.136-1.448-4.264-2.276-6.354a.807.807 0 0 1-.53-.299c-.78-1.481-1.71-1.813-3.06-2.535-2.427-1.119-4.36-1.539-7.113-2.383-2.708-.789-5.352-1.726-7.988-2.761-1.06 1.17-2.24 1.977-3.283 2.947-.888.931-1.201 2.218-1.714 3.485-.812 1.797-1.979 3.613-3.814 4.415a7.313 7.313 0 0 1-4.186.545c-.1-.008-.146-.062-.2-.017a.546.546 0 0 1-.127.293c-.794 1.596-1.89 3.168-3.516 3.883-1.426.736-3.748.736-4.93.987-1.957.436-3.226 1.69-5.253 2.372-1.773.654-3.885.571-5.51-.476-1.488-.887-2.28-2.822-1.732-4.491a5.864 5.864 0 0 1 .958-1.733 11.07 11.07 0 0 1-1.591-1.451c-1.436-1.488-1.755-3.634-.396-5.333.561-.658 1.613-1.728 1.866-2.313 1.049-1.624.366-3.653.74-5.639.652-2.871 2.864-5.101 5.49-6.287-1.1-1.863-.207-4.006.695-5.694.505-1.167.454-2.332-.097-3.541-.652-1.217-1.175-2.171-.332-3.158-.384-.235-.713-.516-1.142-.807-1.333-.922-2.234-2.766-1.594-4.326.387-.977 1.204-1.662 1.92-2.357a8.237 8.237 0 0 0 1.752-3.331c.313-1.286.49-2.734 1.504-3.958 2.564-2.806 7.959-3.904 10.604-.647 1.227 1.57 1.156 4.138 3.08 4.657.204.035.413.018.61-.048-1.54-2.05-2.379-4.597-4.487-5.889-1.58-.995-3.76-2.043-5.016-3.868-.66-1.116-.977-2.707-.317-3.912.587-.96 1.687-1.418 2.695-1.988l.163-.137a299.994 299.994 0 0 0-1.764-1.767l-.055.045a2.345 2.345 0 0 1-3.189-.478c-.457-.544-.686-.816-1.161-1.16a.602.602 0 0 0-.392-.135c-.701-.061-1.274.142-2.13.119-2.568-.071-3.144-2.746-2.114-4.727.361-.675.905-1.132 1.495-1.535-.411-.49-.878-.933-1.29-1.423-.108.091-.317.173-.426.264-1.29.899-1.7 2.731-2.057 4.518-.347 1.684-1.314 3.519-3.078 4.073-2.39.802-5.01-.432-6.51-2.33-.999-1.298-1.579-2.761-3.03-3.492-.475-.345-2.052-.784-2.819-1.254a4.12 4.12 0 0 1-1.876-2.231 3.882 3.882 0 0 1-.225-1.484l-.109.092a5.786 5.786 0 0 0-1.353 2.81c-.15 1.148.356 2.302.842 3.101.834 1.435 2.582 3.403 1.333 5.012-.68.848-1.782.753-2.746.822-.055.045 0 0 .1.009-1.157-.05-2.128.673-2.251 1.52-.115.748.841.779 1.54.286l.218-.184c.146.063-.3-.026-.347-.081-.283-.225.044-.501.344-.475.456-.01 1.085.296.787.826-.353.575-1.08.814-1.69.862-1.93.137-2.083-1.592-.73-2.636 1.034-.87 2.774-.568 3.493-.707 1.4-.434 1-2.235.286-3.307-1.21-1.771-2.585-3.959-1.638-6.148.378-.876.82-1.897 1.72-2.375a.248.248 0 0 0-.083-.08.282.282 0 0 0-.11-.038c-.666-.46-.95-.687-1.633-.949-1.505-.685-4.132.501-6.519.092-2.45-.261-4.71-2.729-4.038-5.246.494-1.622 1.91-2.812 3.39-3.593-1.854-1.321-4.33-1.282-6.296-3.067-1.39-1.434 1.101-2.227 2.1-2.696.791-.386 2.453-1.505 3.764-1.491.154-.038.3.026.455-.012l-.046-.054c-.102-.564-.142-1.274.256-1.795 1.657-2.228 7.488-1.371 10.1.521l-.046-.054a6.528 6.528 0 0 1-.62-4.496 7.182 7.182 0 0 1 7.218-4.675l.1.009a17.784 17.784 0 0 1-1.453-1.286 14.634 14.634 0 0 0-2.566-1.837c-3.13-1.735-6.857-2.41-9.69-4.675-.658-.561-1.564-1.751-.74-2.537.7-.495 1.639-.263 2.44-.193 1.64.294 3.607.311 5.116-.213 1.81-.499 3.563-1.508 5.512-1.289.205-.173.377-.379.508-.612 1.973-2.404 5.278-2.674 8.218-2.823 2.03-.128 3.685-.588 5.275-1.461 3.443-1.873 6.652-5.128 10.794-5.173a5.646 5.646 0 0 1 4.682 2.474c1.255 1.825.866 4.567-1.37 5.333-2.692.777-4.009-2.668-6.233-3.214-.246-.073-.993-.187-1.357-.067-.48.171-.929.422-1.326.742-.544.459-.997 1.025-1.578 1.328.137.163.22.373-.015.755-.789.942-2.154.975-3.162 1.545-1.263.597-2.75 2.032-3.837 3.502-.968 1.28-1.769 3.532-2.664 5.12a10.598 10.598 0 0 1-2.971 3.428c-.23.176-.48.324-.745.441.005 1.11.064 2.175.078 3.186.054-.047.154-.038.209-.083a5.934 5.934 0 0 0 1.317-.644c1.281-.797 2.395-2.014 3.887-2.337.873-.177 1.821-.045 2.534.47.666.463 1.252 1.27 1.283 2.08.18 1.428-.69 2.716-1.449 3.913-.361.675-.622 1.359-.51 1.823.145.366.427.662.786.826.592.152 1.265-.044 2.238-.211.2-.046.406-.061.61-.047l.035-.402c.082-2.112 1.632-3.695 3.745-3.613 4.406-.173 7.632 6.87 2 7.794-.819.132-1.738.255-2.54.186a15 15 0 0 1 .163 1.629 2.8 2.8 0 0 1 .803.623c.741.771.8 1.835.714 2.838a5.564 5.564 0 0 1-1.887 3.722c-1.252 1.053-2.719 1.077-3.624 2.211-.39.421-.513 1.268-.41 1.832.185.772.516 1.61.547 2.419a4.069 4.069 0 0 1-.185 1.549l1.373 1.633.164-.137a36.574 36.574 0 0 0 3.022-2.263c1.922-1.802 3.143-3.665 4.207-6.046.252-.583.505-1.167.703-1.705-2.084-3.915 1.862-5.189 1.645-9.093a17.017 17.017 0 0 0-.293-2.448 5.14 5.14 0 0 1-1.032-2.665c-.05-1.165.246-2.251-.123-3.239-.314-1.037-.937-2-.842-3.103.039-1.61 1.922-1.801 3.145-1.342 2.361.708 4.28 2.44 5.573 4.419.843 1.335 1.423 2.798 1.54 4.373-.01.101.036.154-.018.201a6.53 6.53 0 0 0 1.664-.563c.1.009 1.017-.67 1.471-.68a3.113 3.113 0 0 1 1.978.474c1.462 1.186 1.899 3.141 2.662 4.822 1.277 2.736 2.537 5.672 2.114 8.814-.026.302-.098.548-.124.847a7.426 7.426 0 0 1 2.35.255c1.076.396 2.144.891 2.876 1.762a3.416 3.416 0 0 1 .114 3.342c-.785 1.497-2.048 2.095-3.054 3.218-1.324 1.299-1.268 3.576-2.426 5.291-.814 1.243-1.82 2.367-3.1 3.165-.11.09-.319.173-.428.265.092.109.129.263.22.372.25.629.535 1.41.78 1.481.84.225 2.237-.766 3.632-.544 2.186.391 3.88 2.407 3.99 4.637-.02 1.966-1.332 3.72-2.155 5.062a5.36 5.36 0 0 0-.614 1.259c2.926.606 5.645 1.851 7.893 3.863 1.399 1.333 2.972 2.983 3.045 5.059-.137 2.157-2.454 3.268-3.511 4.995-.47.767-.638 2.115-.37 3.097a20.73 20.73 0 0 0 1.9 5.464c.983 2.054 2.267 4.133 2.113 6.493a5.696 5.696 0 0 1-.646 2.216c-.063.145-.18.337-.244.483 1.149 2.472 2.252 4.889 3.292 7.452 1.748 4.29 3.242 8.608 4.781 12.981a.965.965 0 0 0 .356-.019c3.185-.078 7.421 2.308 6.499 5.963a7.615 7.615 0 0 1-1.044 2.736c-.055.045-.118.19-.172.237a10.212 10.212 0 0 1 2.148 2.003c1.43 2.142 1.67 5.191.415 7.455-.277.431-.582.843-.915 1.233l-.217.184c.617 1.617 1.233 3.236 1.904 4.808 2.812-.414 3.603 1.523 5.231 3.126.786.826 1.671 1.105 2.307.755.899-.476.994-1.579.646-2.216-.824-.98-2.665-1.29-4.024-1.913-1.122-.45-2.209-1.3-2.715-2.455a7.078 7.078 0 0 1-.19-4.206c.356-1.786 2.55-6.139 4.791-5.793a4.472 4.472 0 0 1 1.247-2.164c1.977-1.847 5.215-2.526 7.616-1.108.675.362 1.342.824 1.745 1.413.444.762.715 1.613.794 2.491a.719.719 0 0 1 .011.456c.319-.013.639-.002.956.033 1.44.275 3.366 1.35 4.396 1.693 1.231.358 2.58.524 3.621 1.321 2.548 2.038 2.718 5.334 1.219 8.08-.244.485-.533.912-.769 1.297 1.697.803 3.34 1.652 5.037 2.455 3.275 1.797 4.934 4.212 3.571 7.123 2.758 1.954 4.698 5.807 2.907 8.982-1.745 2.677-5.348 3.475-7.242 5.532-.833.886-1.621 1.828-2.675 2.342a5.53 5.53 0 0 1-2.758.367c-.107.092-.225.283-.334.374-1.035.869-2.492.795-3.723.435-1.878-.464-3.17-2.445-4.666-3.229-.438-.191-1.103-.097-1.529.17-.845.431-1.653 1.018-2.58 1.241a158.746 158.746 0 0 1 3.355 7.305c3.695 8.042 5.508 16.83 9.203 24.872 1.178 2.727 2.89 5.096 4.786 7.682.116-.748.331-1.485.838-2.098 1.015-1.224 2.294-2.022 2.962-3.326.958-1.735.795-3.92 2.043-5.526 2.156-2.741 6.493-2.113 8.77.152 1.27 1.07 1.658 2.415 1.736 3.835 2.415-1.659 4.922-3.208 7.826-3.511 2.446-.295 5.547.632 6.55 3.04.382 2.001-1.03 3.745-1.834 5.443-.597 1.058-.891 2.144-1.143 3.283l.101.009c2.104.181 4.263.318 6.392.199 2.121-.018 4.541-.566 6.512.564 1.35.722 2.069 2.35 1.392 3.754-1.489 3.203-5.773 4.295-9.059 4.363-3.532-.002-6.302-.09-9.086 2.344-.879.831-2.239 2.531-3.39 3.593-1.378 1.343-2.902 2.624-4.692 3.48-.189.053-.367.14-.526.256 2.554 3.149 5.099 6.397 7.434 9.728.312.482.724.972.982 1.498.073.31-.3.53-.608.604-.919.123-1.241-.813-1.645-1.404-1.118-1.662-2.391-3.286-3.618-4.855-4.083-5.299-8.394-10.317-12.423-15.662-3.471-4.792-7.361-9.418-10.351-14.524-.699.495-1.481.781-2.134 1.33-.971.724-2.229 2.432-2.251 3.843-.282 2.095.283 4.315 1.155 5.904.88 1.489 1.922 2.286 3.442 2.216.3.026.999-.467.78-.839-.229-.274-.376-.336-.831-.326-.255.03-.475-.343-.211-.472.262-.129.51-.056.765-.085 1.139.251 1.598 1.35.436 1.956-1.009.57-2.34.203-3.307-.285-2.046-1.439-2.931-4.04-3.078-6.424a6.374 6.374 0 0 1 2.578-5.885c.645-.448 1.281-.796 1.971-1.191-1.34-.268-2.794.213-4.469.32-.355.019-.702-.06-1.056-.041l.091.109c.183.218.761 1.125.863 1.69.851 3-2.568 4.017-4.899 4.119-2.439.192-4.683-.71-6.673.128a6.25 6.25 0 0 0-2.071 1.184c.721.416 1.497.784 2.218 1.202 2.318 1.208 4.618 2.619 5.93 4.953 1.587 2.661 2.42 5.862 1.605 8.872-.429 2.032-1.621 4.15-3.712 4.977-1.655.462-2.768-.088-3.529-1.213.444 3.622-.23 7.903-2.822 10.455-1.877 1.856-4.792 3.472-7.41 2.235a6.551 6.551 0 0 1-2.907-2.572c-.789-1.382-1.03-2.663-2.21-3.624-.858-.578-1.723-.502-2.752-.843a4.458 4.458 0 0 1-2.626-2.904 19.028 19.028 0 0 1-.345-1.845c-.773.185-1.6.415-2.574.583-1.957.436-3.428-1.205-5.017-2.098-.95-.689-3.194-1.59-3.693-3.401Zm-17.4-124.353.108-.092c.255-.028.427-.265.553-.557a8.272 8.272 0 0 0 .91-2.345c.285-1.539.132-3.268-.766-4.558-.898-1.288-2.283-1.61-3.664-.821-.953.523-2.709.977-2.43 2.414.764 1.681 2.598 2.647 3.579 4.146.295.345.55.723.76 1.126.266.426.423.945.95.687Zm-2.7-45.204c.588-.958 2.123-1.783 2.713-2.187.662-.649 1.123-1.316 1.339-2.055-2.2-1.402-5.189-1.863-7.236-1.534-1.128.204-1.77 1.208-2.404 2.112 1.628 1.605 3.247 3.311 4.82 4.961.187-.47.446-.908.769-1.297Zm-6.178.827c-1.716 1.166-1.195 3.886.45 5.29 1.344 1.378 3.897 2.204 5.416 3.9.97 1.043 1.467 2.298 2.273 3.477.174.319.586.809.806 1.181a1.82 1.82 0 0 0 .719-1.3 1.832 1.832 0 0 0-.485-1.406 2.368 2.368 0 0 0-.85-.679 2.5 2.5 0 0 1 .315 1.037.71.71 0 0 1 .01.455c-.171.238-.772.186-.746-.116-.077-.863-.591-1.918-1.432-2.697-.998-1.299-4.398-2.247-3.936-4.682.187-.992.758-1.75 1.465-2.346l.436-.365c-.879-.935-1.757-1.868-2.589-2.748-.58.303-1.308.542-1.852.999Zm-26.853-32.051c.654 1.773.446 4.178 1.934 5.063.438.19.519-.156.387-.975-.067-.966-.628-2.074-1.36-2.945-.266-.426-.64-.762-.96-1.143Zm37.434 11.265c-.446-.089-1.21-.004-1.263.597-.078.902-.056 1.813.33 2.604.175.317.286.781.695.715l.055-.045c.037.154.283.227.437.189.355-.019.436-.366.508-.611.27-.785.557-1.77.17-2.561a1.086 1.086 0 0 0-.932-.888Zm15.065 95.938c.397 1.246 1.715 2.924 2.917 3.028 1.383-.234.58-2.625-.326-3.812-.577-.909-1.91-1.832-2.87-2.419.006 1.11.01 2.221.279 3.203Zm20.857 5.693c-1.118.659-2.5.893-3.757.834.08 1.976.062 3.942-.85 5.731-1.193 2.117-3.753 3.714-5.612 1.281-.275-.325-.495-.699-.724-.971-1.028.215-2.084.173-2.866.459-1.798.955-1.405 3.41.5 4.131 1.368.523 2.854.853 3.915 2.005.641.761 1.118 1.662 1.814 2.377l.228.273.01-.1c-.06-1.065-.895-2.5-.782-3.804.343-2.796 3.021-4.583 5.292-5.75 1.264-.597 2.115-1.684 3.469-2.173.31-.072.673-.194.982-.266-.58-1.465-1.122-2.774-1.62-4.027Zm43.283 83.64c.375.429.723.881 1.044 1.354l.199.017c.547.097 1.047.14 1.357.066.665-.094 1.726-.708 1.78-1.309.121-1.402-1.64-2.06-2.95-2.072-.302-.026-1.292.342-1.61.516-.21.083-.373.219-.638.349.246.379.518.741.818 1.081v-.002Z"/>
  <path fill="#E3DBF9" fill-rule="evenodd" d="M196.885 24.655c.277-.43.857-.94 1.511-1.478 1.941-1.579 4.713-3.256 4.978-3.435 4.209-2.776 8.632-5.322 12.878-8.066a102.989 102.989 0 0 0 5.407-3.734c.566-.431 4.345-3.007 5.166-4.846.203-.432.261-.918.163-1.385A1.846 1.846 0 0 0 226.03.55c-.881-.48-2.103-.62-3.44-.519-2.507.19-5.481 1.2-7.005 1.61a147.864 147.864 0 0 0-14.933 4.942c-4.914 1.897-9.727 3.987-14.466 6.131-13.482 6.11-26.763 12.7-39.617 19.86-13.028 7.264-25.617 15.117-37.499 23.663-5.431 3.899-11.416 8.06-16.57 12.75-3.63 3.306-6.842 6.878-9.174 10.793a1.255 1.255 0 0 0 .077 1.397 1.255 1.255 0 0 0 1.763.253c.132-.1.243-.225.328-.367 2.192-3.726 5.228-7.121 8.657-10.278 5.053-4.654 10.937-8.79 16.267-12.668 11.783-8.558 24.257-16.434 37.173-23.721 12.764-7.197 25.97-13.818 39.376-19.968 4.689-2.147 9.464-4.241 14.341-6.143a146.313 146.313 0 0 1 14.743-4.934c1.272-.344 3.578-1.138 5.746-1.464 1.311-.2 2.557-.26 3.388.194.241.128.052.335-.1.571-.35.515-.765.982-1.235 1.39-1.284 1.187-2.886 2.261-3.225 2.52-1.714 1.287-3.503 2.502-5.305 3.68-4.247 2.756-8.657 5.31-12.866 8.095-.353.233-4.662 2.867-6.426 4.725a3.885 3.885 0 0 0-.844 1.24c-.265.734-.076 1.307.592 1.684 1.285.707 3.553.715 6.162.276 4.737-.8 10.672-2.945 12.878-3.515 10.333-2.653 20.666-5.323 31.123-7.583 6.919-1.498 13.9-2.815 20.957-3.835 24.834-3.573 51.549-4.455 77.921-2.298 26.474 2.166 52.609 7.395 76.123 16.001a1.262 1.262 0 0 0 1.686-1.242 1.263 1.263 0 0 0-.831-1.127c-23.738-8.548-50.112-13.674-76.813-15.732-26.525-2.043-53.39-1.063-78.351 2.631-7.082 1.046-14.101 2.395-21.069 3.917-10.459 2.288-20.816 4.974-31.161 7.65-2.18.564-8.053 2.696-12.74 3.486-1.966.33-3.693.466-4.776.04Zm276.789 311.693c7.509-1.194 15.196-3.684 22.315-7.258 7.12-3.577 13.671-8.241 18.837-13.889 4.89-5.233 8.43-11.82 12.993-17.424 1.902-2.344 3.994-4.505 6.451-6.314 2.456-1.816 5.19-3.025 8.064-3.849 2.899-.835 5.948-1.267 8.984-1.52a1.261 1.261 0 0 0-.239-2.509c-3.189.345-6.376.885-9.413 1.835-3.087.966-6.023 2.352-8.657 4.382-2.545 1.96-4.7 4.286-6.678 6.789-4.448 5.643-7.912 12.218-12.727 17.476-5.09 5.425-11.505 9.912-18.486 13.263a73.677 73.677 0 0 1-21.811 6.523 1.279 1.279 0 0 0-.849.487 1.254 1.254 0 0 0-.076 1.416 1.253 1.253 0 0 0 1.29.591l.002.001Z" clip-rule="evenodd"/>
  <path fill="#FB9C9A" fill-rule="evenodd" d="M266.965 225.817c12.644 31.58 56.049 81.753 95.045 81.746 56.328.002 116.626-147.509 116.626-147.509 22.767-15.502 8.83-37.028-1.458-55.076l-15.672 38.685s-67.806 94.832-97.029 90.559c-29.227-4.262-62.078-114.754-78.329-116.157-16.252-1.402-31.826 76.166-19.183 107.752Z" clip-rule="evenodd"/>
  <mask id="d" width="229" height="204" x="262" y="104" maskUnits="userSpaceOnUse" style="mask-type:luminance">
    <path fill="#fff" d="M266.965 225.817c12.644 31.58 56.049 81.753 95.045 81.746 56.328.002 116.626-147.509 116.626-147.509 22.767-15.502 8.83-37.028-1.458-55.076l-15.672 38.685s-67.806 94.832-97.029 90.559c-29.227-4.262-62.078-114.754-78.329-116.157-16.252-1.402-31.826 76.166-19.183 107.752Z"/>
  </mask>
  <g mask="url(#d)">
    <path fill="url(#e)" fill-rule="evenodd" d="M431.641 147.45c-29.8-38.452-47.617-93.268-97.706-110.377-35.143-12.005-66.733 6.158-86.642 35.206-30.998 45.236-41.016 110.144-23.036 162.125 25.82 74.637 113.243 99.851 182.006 70.844 21.308-8.991 42.491-22.458 54.297-42.974 8.822-15.326 17.149-45.632 1.638-60.288-5.116-4.837-13.735-2.8-18.119-8.375-3.339-4.234-1.702-9.873-3.642-14.602-3.164-7.756-15.146-9.484-22.467-8.553l13.671-23.006Z" clip-rule="evenodd"/>
  </g>
  <path fill="url(#f)" fill-rule="evenodd" d="M261.922 266.031c18.037-21.935 45.534-116.225 31.472-142.685-14.06-26.46-88.619-54.671-115.842-16.079-23.924 33.912-6.444 121.223 7.618 147.683 12.125 22.828 60.333 31.047 76.752 11.081Z" clip-rule="evenodd"/>
  <path fill="#fff" fill-rule="evenodd" d="M256.179 148.139a10.126 10.126 0 0 0-13.048-5.897L100.962 195.9a10.125 10.125 0 0 0-6.537 9.149 10.115 10.115 0 0 0 .648 3.894l83.906 222.313a10.114 10.114 0 0 0 5.298 5.65 10.124 10.124 0 0 0 7.739.251l142.171-53.659a10.122 10.122 0 0 0 5.649-5.303 10.136 10.136 0 0 0 .25-7.742l-83.907-222.314Z" clip-rule="evenodd"/>
  <path fill="#E3E3FE" fill-rule="evenodd" d="M148.878 217.88a2.646 2.646 0 0 0-3.415-1.544l-24.462 9.231a2.651 2.651 0 0 0-1.543 3.416l.001.004a2.652 2.652 0 0 0 3.415 1.542l24.461-9.231a2.656 2.656 0 0 0 1.544-3.416l-.001-.002Zm-3.844-10.184a2.653 2.653 0 0 0-3.414-1.544l-24.462 9.231a2.653 2.653 0 0 0-1.544 3.416v.002a2.64 2.64 0 0 0 1.388 1.479 2.657 2.657 0 0 0 2.028.065l24.461-9.231a2.653 2.653 0 0 0 1.545-3.416l-.002-.002Z" clip-rule="evenodd"/>
  <path fill="#fff" fill-rule="evenodd" d="M255.754 147.015a8.894 8.894 0 0 0-1.84-2.953 8.921 8.921 0 0 0-9.654-2.241L99.845 196.326a8.925 8.925 0 0 0-5.766 8.061 8.924 8.924 0 0 0 .57 3.434v.001a8.926 8.926 0 0 0 4.671 4.978 8.926 8.926 0 0 0 6.823.216l144.416-54.506a8.908 8.908 0 0 0 4.977-4.67 8.902 8.902 0 0 0 .218-6.823v-.002Z" clip-rule="evenodd"/>
  <path fill="url(#g)" fill-rule="evenodd" d="M217.689 275.636a.418.418 0 0 1-.438-.268l-17.548-46.492a8.214 8.214 0 0 0-10.585-4.784l-.005.002a8.17 8.17 0 0 0-2.72 1.695 8.214 8.214 0 0 0-2.587 5.727 8.215 8.215 0 0 0 .528 3.16l17.689 46.871v.002l-.007.002-.77.291a.93.93 0 0 1-.661 0 .926.926 0 0 1-.49-.444c-2.185-4.248-13.282-25.842-18.924-36.815a7.22 7.22 0 0 0-9.72-3.125c-.007.003-.007.003-.005.003a7.217 7.217 0 0 0-3.125 9.725l14.709 28.621a265.913 265.913 0 0 1 12.274 27.659l-11.926-12.151a8.766 8.766 0 0 0-6.181-2.625 8.781 8.781 0 0 0-6.227 2.512v.002a8.712 8.712 0 0 0-2.608 6.174 8.71 8.71 0 0 0 2.549 6.198c5.866 5.88 14.938 14.956 22.878 22.912a35.95 35.95 0 0 0 38.128 8.227c18.758-7.08 28.226-28.024 21.147-46.78l-3.042-8.059s-3.044-31.426-4.448-45.937a7.23 7.23 0 0 0-2.601-4.879 7.22 7.22 0 0 0-5.287-1.611v-.002a7.228 7.228 0 0 0-6.496 7.886c1.052 10.835 2.919 30.107 2.919 30.107l-.144.053a.622.622 0 0 1-.672-.455c-1.087-4.164-7.164-27.442-10.448-40.015a8.331 8.331 0 0 0-10.162-5.956l-.007.004a8.318 8.318 0 0 0-6.144 6.918 8.335 8.335 0 0 0 .194 3.245c3.719 14.24 11.06 42.368 11.06 42.368l-.097.034Z" clip-rule="evenodd"/>
  <path fill="#E3E3FE" fill-rule="evenodd" d="m309.903 333.175 6.314 16.726a10.071 10.071 0 0 1-5.862 12.972l-17.659 6.664-1.644-4.36 17.658-6.664a5.36 5.36 0 0 0 1.792-1.115 5.382 5.382 0 0 0 1.229-1.716 5.388 5.388 0 0 0 .135-4.137l-6.313-16.729 4.35-1.641Zm-129.079 48.717 6.313 16.728a5.402 5.402 0 0 0 4.884 3.496 5.405 5.405 0 0 0 2.08-.346l17.658-6.664 1.645 4.359-17.659 6.664a10.064 10.064 0 0 1-12.969-5.862l-6.315-16.729 4.363-1.646Zm-30.357-149.185 1.645 4.36-17.659 6.664a5.394 5.394 0 0 0-3.492 4.884c-.022.71.096 1.416.347 2.081l6.312 16.727-4.359 1.646-6.315-16.728a10.066 10.066 0 0 1 5.863-12.97l17.658-6.664Zm79.291-29.926 17.658-6.666a10.068 10.068 0 0 1 12.97 5.864l6.314 16.727-4.351 1.643-6.312-16.729a5.424 5.424 0 0 0-2.836-3.017 5.415 5.415 0 0 0-4.14-.127l-17.657 6.664-1.646-4.359Z" clip-rule="evenodd"/>
  <path fill="#20238C" d="M192.896 364.412c.846-.32 1.625-.267 2.333.157.844.503 1.579 1.586 2.208 3.249.625 1.66.779 2.965.481 3.907-.242.776-.794 1.325-1.641 1.645a2.667 2.667 0 0 1-1.243.19 2.649 2.649 0 0 1-1.191-.396c-.78-.457-1.477-1.531-2.113-3.213-.623-1.652-.786-2.949-.488-3.891.255-.779.805-1.33 1.654-1.648Zm.526 1.394a.915.915 0 0 0-.478.403 1.468 1.468 0 0 0-.106.835c.052.477.267 1.232.657 2.262.387 1.029.706 1.716.954 2.064.256.341.476.553.687.618.201.07.417.064.615-.013a.896.896 0 0 0 .467-.399c.125-.259.161-.552.104-.836-.04-.476-.265-1.226-.653-2.254-.389-1.03-.706-1.718-.954-2.064-.247-.346-.478-.554-.68-.625a.885.885 0 0 0-.613.009Zm6.285-3.965c.848-.32 1.625-.269 2.335.157.843.502 1.578 1.586 2.206 3.25.627 1.659.791 2.959.493 3.901-.254.781-.805 1.33-1.653 1.65a2.689 2.689 0 0 1-2.434-.206c-.769-.461-1.475-1.529-2.111-3.214-.623-1.651-.786-2.948-.478-3.893.243-.776.795-1.325 1.642-1.645Zm.526 1.394a.87.87 0 0 0-.467.4 1.397 1.397 0 0 0-.115.838c.052.477.277 1.229.665 2.259.39 1.028.707 1.716.954 2.064.248.346.478.552.679.621a.906.906 0 0 0 .614-.014.9.9 0 0 0 .466-.398c.125-.261.165-.554.116-.839-.05-.473-.265-1.226-.653-2.256-.389-1.029-.706-1.716-.954-2.063-.258-.342-.477-.554-.69-.621a.863.863 0 0 0-.615.009Zm11.07 4.292-1.674.632-2.391-6.337a6.186 6.186 0 0 1-1.695 2.095l-.576-1.526c.45-.384.829-.843 1.121-1.357a3.3 3.3 0 0 0 .534-1.804l1.357-.513 3.324 8.81Zm6.148-2.32-1.684.635-2.391-6.337a6.177 6.177 0 0 1-1.695 2.095l-.575-1.525a5.121 5.121 0 0 0 1.12-1.358c.35-.536.533-1.163.533-1.804l1.368-.516 3.324 8.81Zm6.138-2.317-1.685.635-2.391-6.336a6.163 6.163 0 0 1-1.695 2.095l-.574-1.526c.45-.388.832-.846 1.13-1.361a3.345 3.345 0 0 0 .523-1.8l1.368-.516 3.324 8.809Zm2.028-10.828c.848-.32 1.625-.268 2.335.158.843.502 1.577 1.586 2.206 3.248.627 1.66.791 2.96.493 3.902-.254.781-.805 1.33-1.653 1.65a2.677 2.677 0 0 1-1.242.189 2.66 2.66 0 0 1-1.192-.395c-.769-.46-1.476-1.529-2.111-3.213-.623-1.652-.786-2.949-.478-3.894.243-.776.795-1.326 1.642-1.645Zm.526 1.394a.888.888 0 0 0-.468.4 1.318 1.318 0 0 0-.103.834c.041.482.266 1.233.654 2.263.388 1.029.706 1.716.954 2.062.248.348.476.554.679.624a.897.897 0 0 0 .613-.013.917.917 0 0 0 .477-.401 1.46 1.46 0 0 0 .104-.838c-.05-.473-.263-1.224-.652-2.254-.388-1.031-.707-1.718-.954-2.064-.248-.347-.477-.554-.69-.622a.871.871 0 0 0-.614.009Zm6.297-3.968c.846-.321 1.626-.269 2.334.157.843.502 1.568 1.59 2.197 3.252.625 1.66.789 2.96.492 3.902-.245.777-.795 1.326-1.644 1.645a2.648 2.648 0 0 1-1.241.192 2.655 2.655 0 0 1-1.193-.398c-.779-.455-1.475-1.529-2.11-3.212-.624-1.652-.786-2.948-.489-3.89.255-.779.795-1.325 1.654-1.648Zm.524 1.393a.923.923 0 0 0-.477.404 1.473 1.473 0 0 0-.104.834c.052.478.266 1.233.656 2.263.388 1.029.705 1.716.952 2.062.248.348.478.554.689.62a.88.88 0 0 0 .613-.014.893.893 0 0 0 .468-.398c.124-.26.161-.554.103-.836-.039-.478-.263-1.226-.652-2.255-.388-1.03-.707-1.717-.954-2.063-.246-.347-.476-.554-.679-.625a.885.885 0 0 0-.615.008Zm6.287-3.964c.848-.321 1.626-.269 2.336.157.841.502 1.577 1.584 2.205 3.248.627 1.66.79 2.961.492 3.903-.253.78-.803 1.329-1.652 1.65a2.676 2.676 0 0 1-2.434-.206c-.769-.461-1.477-1.529-2.112-3.214-.624-1.652-.786-2.948-.478-3.894.244-.775.795-1.326 1.643-1.644Zm.526 1.393a.867.867 0 0 0-.467.4 1.4 1.4 0 0 0-.116.838c.052.478.268 1.233.656 2.263.39 1.028.706 1.716.964 2.06.248.347.477.553.679.624a.914.914 0 0 0 1.08-.412c.125-.262.165-.556.115-.84-.05-.475-.263-1.226-.653-2.256-.388-1.029-.706-1.716-.963-2.059-.247-.346-.467-.557-.68-.626a.874.874 0 0 0-.615.008Zm11.071 4.292-1.675.632-2.392-6.337a6.174 6.174 0 0 1-1.694 2.095l-.576-1.525a5.147 5.147 0 0 0 1.122-1.357c.344-.539.53-1.164.531-1.804l1.359-.513 3.325 8.809Zm6.137-2.316-1.674.632-2.393-6.337a6.169 6.169 0 0 1-1.693 2.095l-.576-1.525c.45-.385.829-.844 1.121-1.358a3.298 3.298 0 0 0 .532-1.804l1.359-.512 3.324 8.809Zm6.148-2.32-1.684.635-2.393-6.337a6.17 6.17 0 0 1-1.693 2.095l-.577-1.525c.449-.384.83-.843 1.122-1.357a3.31 3.31 0 0 0 .532-1.805l1.367-.515 3.326 8.809Zm6.138-2.317-1.685.636-2.391-6.337a6.198 6.198 0 0 1-1.695 2.095l-.576-1.526a5.171 5.171 0 0 0 1.132-1.36 3.37 3.37 0 0 0 .523-1.801l1.368-.516 3.324 8.809Zm2.027-10.83c.859-.323 1.626-.266 2.336.16.842.502 1.577 1.584 2.206 3.248.627 1.66.791 2.96.492 3.902-.253.779-.795 1.327-1.652 1.65a2.69 2.69 0 0 1-2.434-.206c-.769-.46-1.476-1.529-2.113-3.213-.623-1.652-.786-2.949-.478-3.894.245-.776.795-1.326 1.643-1.647Zm.527 1.396a.897.897 0 0 0-.468.398c-.124.26-.161.554-.105.836.041.482.268 1.233.656 2.262.388 1.03.706 1.717.954 2.063.247.347.476.553.679.624a.9.9 0 0 0 .612-.014.922.922 0 0 0 .478-.402c.116-.263.151-.554.104-.836-.05-.475-.263-1.226-.652-2.256-.388-1.029-.707-1.716-.954-2.064-.248-.346-.477-.554-.69-.621a.866.866 0 0 0-.614.01Zm6.295-3.97c.848-.319 1.628-.267 2.336.159.843.502 1.577 1.584 2.205 3.248.627 1.661.781 2.964.483 3.906-.244.776-.794 1.326-1.643 1.645a2.66 2.66 0 0 1-2.434-.206c-.779-.455-1.475-1.529-2.11-3.213-.624-1.65-.786-2.947-.489-3.889.255-.779.805-1.33 1.652-1.65Zm.526 1.395a.924.924 0 0 0-.477.402 1.481 1.481 0 0 0-.104.836c.052.478.266 1.233.654 2.261.39 1.031.706 1.718.954 2.064.248.347.478.553.689.62a.886.886 0 0 0 .613-.014.884.884 0 0 0 .468-.398c.124-.26.161-.554.103-.836-.039-.478-.263-1.226-.652-2.256-.388-1.029-.707-1.716-.954-2.062-.248-.348-.476-.554-.679-.627a.897.897 0 0 0-.615.01Zm6.287-3.966c.847-.319 1.626-.267 2.334.159.843.502 1.579 1.584 2.207 3.248.625 1.661.79 2.961.492 3.903-.253.779-.805 1.329-1.652 1.65a2.68 2.68 0 0 1-2.434-.206c-.769-.461-1.477-1.529-2.112-3.214-.624-1.651-.786-2.948-.478-3.894.244-.775.795-1.326 1.643-1.646Zm.526 1.395a.868.868 0 0 0-.467.399 1.394 1.394 0 0 0-.116.839c.052.478.266 1.233.656 2.263.388 1.029.717 1.712.964 2.059.248.346.477.552.677.623a.885.885 0 0 0 .615-.014.87.87 0 0 0 .467-.398c.123-.261.163-.554.115-.84-.051-.472-.265-1.226-.653-2.254-.39-1.03-.706-1.717-.964-2.06-.248-.347-.478-.554-.679-.625a.863.863 0 0 0-.615.008Zm-82.412 55.816-1.687.637-2.391-6.337a6.172 6.172 0 0 1-1.695 2.095l-.575-1.527a5.17 5.17 0 0 0 1.122-1.355 3.301 3.301 0 0 0 .532-1.805l1.368-.517 3.326 8.809Zm6.137-2.317-1.684.638-2.393-6.337a6.224 6.224 0 0 1-1.683 2.091l-.577-1.525a5.326 5.326 0 0 0 1.122-1.357 3.274 3.274 0 0 0 .521-1.801l1.368-.516 3.326 8.807Zm6.138-2.316-1.685.637-2.393-6.337a6.235 6.235 0 0 1-1.682 2.092l-.577-1.526a5.292 5.292 0 0 0 1.122-1.357 3.382 3.382 0 0 0 .532-1.804l1.359-.513 3.324 8.808Zm2.038-10.832c.846-.32 1.625-.266 2.334.158.832.507 1.568 1.589 2.197 3.253.625 1.661.789 2.961.491 3.903-.244.775-.794 1.324-1.643 1.644a2.704 2.704 0 0 1-2.444-.202c-.769-.461-1.465-1.532-2.101-3.217-.623-1.652-.786-2.948-.488-3.89.244-.776.795-1.325 1.654-1.649Zm.524 1.394a.937.937 0 0 0-.478.404 1.318 1.318 0 0 0-.103.834c.051.478.266 1.233.656 2.263.388 1.03.704 1.718.952 2.064.248.346.478.552.679.623a.926.926 0 0 0 1.09-.415c.116-.264.153-.554.104-.837-.05-.474-.263-1.226-.652-2.256-.388-1.028-.707-1.715-.954-2.062-.248-.346-.477-.554-.679-.626a.92.92 0 0 0-.615.008Zm6.287-3.965c.848-.32 1.626-.266 2.335.16.842.502 1.578 1.584 2.206 3.248.627 1.658.79 2.96.483 3.906-.244.775-.796 1.326-1.643 1.644a2.68 2.68 0 0 1-2.434-.206c-.769-.46-1.477-1.528-2.112-3.213-.624-1.652-.786-2.948-.489-3.89.255-.779.805-1.328 1.654-1.649Zm.526 1.394a.878.878 0 0 0-.467.4 1.392 1.392 0 0 0-.116.838c.052.478.268 1.235.656 2.263.388 1.03.706 1.717.954 2.064.258.343.476.552.689.618a.891.891 0 0 0 .613-.012.884.884 0 0 0 .467-.399c.125-.261.161-.554.104-.836-.04-.478-.254-1.231-.642-2.259-.39-1.03-.717-1.714-.964-2.061-.248-.348-.478-.554-.681-.625a.903.903 0 0 0-.613.009Zm6.285-3.965c.848-.32 1.626-.266 2.336.158.841.504 1.577 1.586 2.205 3.25.627 1.658.792 2.96.492 3.902-.253.779-.803 1.33-1.652 1.648a2.703 2.703 0 0 1-1.241.191 2.69 2.69 0 0 1-1.193-.397c-.769-.458-1.475-1.528-2.112-3.211-.623-1.652-.786-2.949-.478-3.896.246-.774.796-1.324 1.643-1.645Zm.526 1.394a.894.894 0 0 0-.467.4 1.32 1.32 0 0 0-.106.834c.042.482.267 1.233.656 2.263.388 1.029.707 1.716.954 2.064.248.346.477.552.679.623a.93.93 0 0 0 1.091-.415c.116-.263.151-.554.104-.836-.05-.475-.265-1.226-.653-2.256-.39-1.029-.706-1.716-.954-2.064-.248-.346-.478-.552-.689-.622a.891.891 0 0 0-.615.009Zm11.081 4.289-1.685.637-2.391-6.339a6.181 6.181 0 0 1-1.695 2.097l-.574-1.527a5.15 5.15 0 0 0 1.12-1.356 3.29 3.29 0 0 0 .533-1.804l1.368-.518 3.324 8.81Zm6.139-2.317-1.684.635-2.393-6.335a6.177 6.177 0 0 1-1.693 2.094l-.577-1.526a5.134 5.134 0 0 0 1.122-1.355 3.311 3.311 0 0 0 .532-1.804l1.368-.518 3.325 8.809Zm6.138-2.316-1.686.635-2.391-6.337a6.194 6.194 0 0 1-1.685 2.093l-.575-1.527a5.275 5.275 0 0 0 1.121-1.355 3.272 3.272 0 0 0 .522-1.801l1.368-.518 3.326 8.81Zm6.138-2.317-1.685.635-2.393-6.335a6.232 6.232 0 0 1-1.682 2.092l-.577-1.527a5.304 5.304 0 0 0 1.122-1.356 3.381 3.381 0 0 0 .531-1.804l1.36-.512 3.324 8.807Zm2.036-10.831c.848-.321 1.627-.269 2.336.157.843.502 1.568 1.59 2.195 3.253.627 1.659.791 2.961.493 3.903-.244.775-.794 1.324-1.643 1.645a2.714 2.714 0 0 1-2.444-.203c-.769-.461-1.465-1.532-2.101-3.217-.623-1.652-.786-2.948-.488-3.89.255-.779.795-1.325 1.652-1.648Zm.526 1.393a.929.929 0 0 0-.478.404 1.49 1.49 0 0 0-.104.834c.052.478.267 1.233.655 2.263.389 1.03.706 1.718.954 2.064.248.346.478.552.689.618a.88.88 0 0 0 .613-.014.907.907 0 0 0 .467-.398c.125-.26.161-.552.104-.836-.04-.476-.263-1.226-.652-2.255-.388-1.03-.707-1.717-.954-2.063-.248-.347-.477-.554-.679-.625a.915.915 0 0 0-.615.008Zm6.287-3.965c.846-.32 1.626-.266 2.334.158.843.502 1.579 1.586 2.207 3.25.625 1.658.79 2.96.481 3.906-.244.775-.794 1.324-1.641 1.645a2.68 2.68 0 0 1-2.434-.206c-.769-.461-1.477-1.529-2.112-3.214-.624-1.652-.786-2.948-.489-3.89.255-.779.805-1.328 1.654-1.649Zm.526 1.394a.878.878 0 0 0-.467.4 1.392 1.392 0 0 0-.116.838c.052.478.266 1.233.656 2.263.388 1.03.706 1.718.964 2.06.248.347.468.556.677.624a.885.885 0 0 0 .615-.014.866.866 0 0 0 .467-.398 1.42 1.42 0 0 0 .115-.84c-.051-.473-.265-1.226-.653-2.254-.39-1.031-.707-1.718-.965-2.061-.247-.346-.477-.554-.678-.626a.903.903 0 0 0-.615.008Zm11.07 4.292-1.674.632-2.393-6.337a6.226 6.226 0 0 1-1.693 2.095l-.576-1.525a5.179 5.179 0 0 0 1.122-1.357 3.381 3.381 0 0 0 .531-1.804l1.359-.513 3.324 8.809Zm6.138-2.316-1.674.632-2.393-6.337a6.16 6.16 0 0 1-1.693 2.095l-.577-1.525c.449-.385.83-.844 1.122-1.358a3.298 3.298 0 0 0 .532-1.804l1.359-.512 3.324 8.809Zm2.038-10.832c.847-.32 1.626-.268 2.334.158.843.502 1.579 1.586 2.207 3.248.625 1.66.79 2.961.482 3.908-.245.775-.795 1.324-1.642 1.644a2.68 2.68 0 0 1-2.436-.206c-.768-.46-1.475-1.53-2.11-3.213-.624-1.652-.786-2.949-.489-3.89.255-.78.806-1.328 1.654-1.649Zm.526 1.394a.878.878 0 0 0-.467.4 1.391 1.391 0 0 0-.116.838c.052.478.266 1.233.656 2.263.388 1.028.706 1.716.954 2.064.256.341.476.552.687.618a.885.885 0 0 0 .615-.014.877.877 0 0 0 .467-.398 1.42 1.42 0 0 0 .115-.84c-.051-.473-.276-1.222-.663-2.251-.39-1.028-.707-1.717-.954-2.064-.248-.346-.478-.554-.679-.625a.897.897 0 0 0-.615.009Z"/>
  <path fill="#6562F9" fill-rule="evenodd" d="M234.557 326.571a16.22 16.22 0 0 1-6.582 2.332 1.352 1.352 0 0 0-.892.497 1.29 1.29 0 0 0-.235.464 1.286 1.286 0 0 0-.038.52 1.304 1.304 0 0 0 .507.885 1.316 1.316 0 0 0 .987.261 18.854 18.854 0 0 0 7.652-2.713 1.323 1.323 0 0 0-1.399-2.246Zm7.849-10.587a21.049 21.049 0 0 1-3.252 6.347 1.338 1.338 0 0 0-.083 1.472 1.333 1.333 0 0 0 1.816.469c.15-.089.28-.206.385-.344a24.057 24.057 0 0 0 3.655-7.137 1.325 1.325 0 0 0-.861-1.652 1.331 1.331 0 0 0-1.004.082 1.318 1.318 0 0 0-.656.763Zm-20.688 12.54a21.235 21.235 0 0 1-6.55-2.83 1.33 1.33 0 0 0-.999-.179 1.336 1.336 0 0 0-.833.58 1.331 1.331 0 0 0 .03 1.473c.1.143.227.265.374.359a24.385 24.385 0 0 0 7.353 3.174 1.324 1.324 0 0 0 1.44-1.978 1.328 1.328 0 0 0-.815-.599Zm21.337-26.107c.465 2.384.634 4.817.502 7.242a1.33 1.33 0 0 0 .334.956 1.324 1.324 0 0 0 2.312-.805 32 32 0 0 0-.558-7.898 1.31 1.31 0 0 0-1.032-1.055 1.347 1.347 0 0 0-.518-.003c-.171.034-.335.1-.481.197a1.342 1.342 0 0 0-.563.847c-.032.171-.031.348.004.519Zm-32.83 19.154a29.19 29.19 0 0 1-4.28-5.869 1.311 1.311 0 0 0-.333-.393 1.313 1.313 0 0 0-1.461-.123 1.328 1.328 0 0 0-.517 1.801 31.725 31.725 0 0 0 4.659 6.399 1.323 1.323 0 0 0 1.868.059 1.343 1.343 0 0 0 .064-1.874Zm27.317-31.68a30.934 30.934 0 0 1 3.61 6.317 1.323 1.323 0 0 0 1.733.702c.16-.07.305-.167.426-.291.121-.123.218-.27.282-.431.066-.161.099-.333.097-.506a1.3 1.3 0 0 0-.104-.505 34.054 34.054 0 0 0-3.914-6.867 1.327 1.327 0 0 0-2.13 1.581ZM203.4 309.727a30.66 30.66 0 0 1-1.309-7.154 1.321 1.321 0 1 0-2.64.156c.161 2.64.637 5.251 1.421 7.779a1.33 1.33 0 0 0 2.44.223 1.34 1.34 0 0 0 .088-1.006v.002Zm23.605-28.308a23.474 23.474 0 0 1 6.115 3.762c.134.113.288.196.454.248a1.32 1.32 0 0 0 1.57-1.872 1.302 1.302 0 0 0-.322-.401 26.503 26.503 0 0 0-6.797-4.18 1.327 1.327 0 0 0-1.731.712 1.322 1.322 0 0 0 .711 1.731Zm-24.538 14.706a23.11 23.11 0 0 1 2.285-6.788 1.333 1.333 0 0 0-.145-1.47 1.313 1.313 0 0 0-1.415-.421 1.324 1.324 0 0 0-.779.654 26.215 26.215 0 0 0-2.559 7.561 1.33 1.33 0 0 0 1.075 1.536 1.33 1.33 0 0 0 1.538-1.072Zm11.295-15.097.192-.075a16.502 16.502 0 0 1 6.917-1.011 1.32 1.32 0 0 0 1.39-1.235 1.32 1.32 0 0 0-1.217-1.405 19.086 19.086 0 0 0-7.784 1.087l-.242.089a18.962 18.962 0 0 0-6.256 3.892 1.316 1.316 0 0 0-.421.921 1.327 1.327 0 0 0 1.276 1.369c.352.012.693-.116.949-.355a16.433 16.433 0 0 1 5.194-3.279l.002.002Zm15.054 36.016a9.908 9.908 0 0 1-1.065.472c-3.919 1.481-8.234.438-11.563-2.292a1.336 1.336 0 0 0-.455-.244c-.166-.05-.34-.067-.513-.05a1.328 1.328 0 0 0-1.134.931c-.05.166-.066.339-.05.513a1.333 1.333 0 0 0 .477.891c4.069 3.349 9.367 4.542 14.172 2.727.455-.171.898-.367 1.331-.589a1.318 1.318 0 0 0 .731-1.284 1.31 1.31 0 0 0-.461-.907 1.307 1.307 0 0 0-.971-.312 1.353 1.353 0 0 0-.499.145v-.001Zm5.023-17.378c.078.187.152.376.221.566 1.699 4.498 1.242 9.22-.895 12.717a1.32 1.32 0 0 0-.155 1.002 1.313 1.313 0 0 0 .597.818 1.32 1.32 0 0 0 1.001.155c.169-.039.329-.114.469-.216.14-.104.26-.232.35-.381 2.522-4.134 3.119-9.713 1.113-15.03a9.31 9.31 0 0 0-.265-.654 1.333 1.333 0 0 0-.717-.719 1.303 1.303 0 0 0-.509-.098 1.307 1.307 0 0 0-1.221.825 1.33 1.33 0 0 0 .011 1.015Zm-21.512 10.714a14.925 14.925 0 0 1-.741-1.666c-1.534-4.063-1.301-8.31.329-11.674a1.322 1.322 0 0 0-1.626-1.829 1.327 1.327 0 0 0-.757.674c-1.927 3.966-2.233 8.973-.424 13.766.249.661.537 1.307.859 1.935a1.323 1.323 0 0 0 1.776.565 1.326 1.326 0 0 0 .584-1.771Zm5.436-18.896.142-.056c4.28-1.615 9.034-.225 12.45 3.099.253.242.591.375.941.369.349-.007.682-.151.926-.401.243-.251.378-.588.375-.937a1.322 1.322 0 0 0-.393-.93c-4.115-3.993-9.825-5.597-14.993-3.764l-.241.088c-.915.345-1.788.791-2.604 1.33-.145.095-.268.22-.365.364a1.269 1.269 0 0 0-.199.477 1.314 1.314 0 0 0 .194.994 1.325 1.325 0 0 0 1.837.371 10.312 10.312 0 0 1 1.93-1.004Zm7.641 12.891c-.718.396-1.463.738-2.23 1.025-.951.365-1.933.639-2.935.819a1.316 1.316 0 0 0-1.068 1.01 1.305 1.305 0 0 0 .169.999 1.346 1.346 0 0 0 .826.587c.17.038.345.043.516.013a18.956 18.956 0 0 0 3.427-.952 19.38 19.38 0 0 0 2.578-1.188 1.3 1.3 0 0 0 .63-.793 1.327 1.327 0 0 0-.114-1.006 1.326 1.326 0 0 0-1.799-.514Zm-3.236-.71.304-.119c1.898-.715 3.695-1.054 4.897-.942.173.019.35.002.516-.048.168-.051.323-.134.459-.244a1.339 1.339 0 0 0 .477-.901 1.32 1.32 0 0 0-1.206-1.442c-1.448-.133-3.589.194-5.856 1.02l-.22.081c-1.972.745-3.636 1.712-4.719 2.646a1.311 1.311 0 0 0-.402 1.421c.054.166.142.32.256.452a1.315 1.315 0 0 0 1.425.39 1.31 1.31 0 0 0 .45-.26c.838-.724 2.118-1.458 3.619-2.054Z" clip-rule="evenodd"/>
  <path fill="#FB9C9A" fill-rule="evenodd" d="M135.667 118.321c-25.99 16.05-83.575 66.448-75.277 104.547 11.996 55.04 68.85 113.098 68.85 113.098 2.182 19.036 18.443 23.409 21.853 24.635 2.947 1.053-8.591-25.698-7.346-27.842 4.007-6.885 11.895 3.536 13.723-3.198 1.158-4.25-8.923-12.041-17.887-11.047 0 0-40.5-75.81-28.979-109.848 11.529-34.039 92.569-31.492 98.125-94.38 1.485-16.807-5.167-37.893-73.062 4.035Z" clip-rule="evenodd"/>
  <mask id="h" width="150" height="268" x="59" y="93" maskUnits="userSpaceOnUse" style="mask-type:luminance">
    <path fill="#fff" d="M135.667 118.321c-25.99 16.05-83.575 66.448-75.277 104.547 11.996 55.04 68.85 113.098 68.85 113.098 2.182 19.036 18.443 23.409 21.853 24.635 2.947 1.053-8.591-25.698-7.346-27.842 4.007-6.885 11.895 3.536 13.723-3.198 1.158-4.25-8.923-12.041-17.887-11.047 0 0-40.5-75.81-28.979-109.848 11.529-34.039 92.569-31.492 98.125-94.38 1.485-16.807-5.167-37.893-73.062 4.035Z"/>
  </mask>
  <g mask="url(#h)">
    <path fill="url(#i)" fill-rule="evenodd" d="M164.93 277.402c30.838-37.624 80.301-67.216 85.81-119.858 3.866-36.935-20.883-63.68-53.641-76.61-51.007-20.13-116.516-15.422-163.18 13.697-67 41.813-72.085 132.657-28.474 193.22 13.516 18.766 31.367 36.412 54 43.347 16.907 5.18 48.307 6.542 59.135-11.846 3.574-6.067-.334-14.014 4.124-19.532 3.383-4.199 9.246-3.859 13.422-6.806 6.856-4.813 5.867-16.879 3.327-23.808l25.477 8.196Z" clip-rule="evenodd"/>
  </g>
  <path fill="url(#j)" fill-rule="evenodd" d="M587.315 72.525s-32.163-9.469-54.872-33.958c-25.508 22.938-58.722 33.958-58.722 33.958v51.726a59.43 59.43 0 0 0 7.481 28.869 59.43 59.43 0 0 0 20.56 21.602c.931.586 1.868 1.162 2.791 1.74a48.416 48.416 0 0 0 25.3 7.303 48.385 48.385 0 0 0 25.378-7.022 66.65 66.65 0 0 0 32.084-56.99V72.525Z" clip-rule="evenodd"/>
  <path fill="#fff" fill-rule="evenodd" d="M572.271 83.715s-23.643-6.996-40.339-25.09c-18.752 16.947-43.168 25.09-43.168 25.09v38.287a43.903 43.903 0 0 0 20.626 37.23c.672.415 1.344.836 2.01 1.257a35.522 35.522 0 0 0 37.316.208h.005a49.14 49.14 0 0 0 23.55-41.953V83.715Z" clip-rule="evenodd"/>
  <path fill="url(#k)" fill-rule="evenodd" d="m507.081 124.45 15.625 20.936c1.304 1.744 3.293 2.724 5.362 2.647a6.497 6.497 0 0 0 2.97-.881 6.502 6.502 0 0 0 2.221-2.157l29.184-45.177c2.069-3.208 1.331-7.621-1.661-9.85-2.99-2.228-7.088-1.428-9.169 1.782l-24.151 37.386-10.106-13.538c-2.266-3.047-6.416-3.539-9.249-1.096-2.844 2.443-3.293 6.901-1.026 9.948Z" clip-rule="evenodd"/>
  <path fill="#FB9C9A" fill-rule="evenodd" d="M468.127 123.488c.949-5.35 3.989-10.818 5.786-11.446 11.999-4.173 18.351 7.82 5.982 11.539-5.982 1.801-11.976 17.245-11.976 17.245s-.511-13.235.208-17.338Z" clip-rule="evenodd"/>
  <path fill="url(#l)" fill-rule="evenodd" d="M246.365 26.137c-15.904 0-27.499 14.602-25.238 34.425 1.607 14.046 19.357 29.149 33.904 30.574 11.991 1.172 16.685-10.995 16.685-30.943 0-19.95-9.457-34.056-25.351-34.056Z" clip-rule="evenodd"/>
  <path fill="url(#m)" fill-rule="evenodd" d="M252.442 77.744c.302-1.387 1.474-2.617 2.431-3.598.845-.864 1.726-1.702 2.772-2.313a7.518 7.518 0 0 1 2.005-.88c4.121-.99 6.086 2.504 9.285 4.199 1.237.654 2.559.772 3.932.82 3.906 5.956-3.024 12.475-8.102 14.6-2.533 1.062-9.149 9.47-17.214-.195-1.826-2.185-11.73-1.523-8.631-12.63.807-2.905-.365-6.609-.58-9.599-.315-4.387.039-9.487-4.245-12.178-.677-.42-1.395-.77-2.143-1.042-.528-.194-1.134-.613-1.638-.376-3.717 1.728 2.394 8.53-6.766 11.325.592 3.035-2.319 5.166-4.99 5.57-4.183.632-8.669-1.183-11.441-4.362-2.559-2.936-5.658-7.505-6.188-11.297-.642-4.642-.415-14.714 3.894-20.675 3.364-4.655 8.33-8.272 14.251-7.909-.062-1.175.718-2.349 1.324-3.29a22.448 22.448 0 0 1 5.317-5.742c3.364-2.52 7.523-4.396 11.744-4.713 5.658-.426 11.706 2.706 14.163 7.918 1.071-1.15 2.697-1.518 4.184-1.812 3.642-.72 7.068-.265 10.307 1.607 7.019 4.06 9.438 11.978 6.477 19.311-1.059-.341-2.294-.349-3.39-.508-2.645-.377 6.439 5.246-12.008 8.491-4.802.845-11.921-2.824-15.385 1.69-2.268 2.945-.693 6.458-.227 9.696.415 2.895.201 5.855.743 8.731.768 4.093 3.906 9.107 8.303 10.025l1.816-.864Z" clip-rule="evenodd"/>
  <defs>
    <linearGradient id="a" x1="460.545" x2="171.193" y1="232.546" y2="470.321" gradientUnits="userSpaceOnUse">
      <stop stop-color="#E3DBF9"/>
      <stop offset=".54" stop-color="#CCBBFA"/>
      <stop offset="1" stop-color="#7848FC"/>
    </linearGradient>
    <linearGradient id="b" x1="357.259" x2="264.508" y1="207.253" y2="357.705" gradientUnits="userSpaceOnUse">
      <stop stop-color="#E3DBF9"/>
      <stop offset=".54" stop-color="#CCBBFA"/>
      <stop offset="1" stop-color="#7848FC"/>
    </linearGradient>
    <linearGradient id="c" x1="-10.45" x2="241.89" y1="158.861" y2="366.098" gradientUnits="userSpaceOnUse">
      <stop stop-color="#E3DBF9"/>
      <stop offset=".56" stop-color="#CDBDFA"/>
      <stop offset="1" stop-color="#7848FC"/>
    </linearGradient>
    <linearGradient id="e" x1="337.957" x2="353.938" y1="140.002" y2="334.551" gradientUnits="userSpaceOnUse">
      <stop stop-color="#272BAA"/>
      <stop offset=".45" stop-color="#1D2190"/>
      <stop offset="1" stop-color="#050751"/>
    </linearGradient>
    <linearGradient id="f" x1="248.275" x2="206.097" y1="64.838" y2="281.424" gradientUnits="userSpaceOnUse">
      <stop stop-color="#3E42D3"/>
      <stop offset="1" stop-color="#050751"/>
    </linearGradient>
    <linearGradient id="g" x1="217.516" x2="202.974" y1="219.133" y2="356.652" gradientUnits="userSpaceOnUse">
      <stop stop-color="#E3E3FE"/>
      <stop offset=".47" stop-color="#BBBBFE"/>
      <stop offset="1" stop-color="#4F4FFF"/>
    </linearGradient>
    <linearGradient id="i" x1="193.86" x2="37.972" y1="83.68" y2="249.354" gradientUnits="userSpaceOnUse">
      <stop stop-color="#292DB3"/>
      <stop offset=".56" stop-color="#22259F"/>
      <stop offset="1" stop-color="#050751"/>
    </linearGradient>
    <linearGradient id="j" x1="564.153" x2="457.785" y1="39.998" y2="239.816" gradientUnits="userSpaceOnUse">
      <stop stop-color="#AADBFF"/>
      <stop offset=".6" stop-color="#91D1FF"/>
      <stop offset=".81" stop-color="#5AB9FF"/>
      <stop offset="1" stop-color="#22A1FF"/>
    </linearGradient>
    <linearGradient id="k" x1="557.178" x2="490.955" y1="71.473" y2="180.38" gradientUnits="userSpaceOnUse">
      <stop stop-color="#AADBFF"/>
      <stop offset=".47" stop-color="#85CBFF"/>
      <stop offset="1" stop-color="#22A1FF"/>
    </linearGradient>
    <linearGradient id="l" x1="266.053" x2="222.95" y1="31.942" y2="97.812" gradientUnits="userSpaceOnUse">
      <stop stop-color="#FB9C9A"/>
      <stop offset=".64" stop-color="#FC8886"/>
      <stop offset=".84" stop-color="#FD5450"/>
      <stop offset="1" stop-color="#FF1712"/>
    </linearGradient>
    <linearGradient id="m" x1="253.215" x2="226.505" y1="92.666" y2="8.14" gradientUnits="userSpaceOnUse">
      <stop/>
      <stop offset=".53" stop-color="#121212"/>
      <stop offset="1" stop-color="#4D4D4D"/>
    </linearGradient>
  </defs>
</svg>
