<svg xmlns="http://www.w3.org/2000/svg" width="511" height="407" fill="none" viewBox="0 0 511 407">
  <path fill="#2A94F4" d="M354.874 380.297c10.621-5.023 179.791-2.643 152.881-125.782-26.91-123.139-198.801-108.484-240.678-194.076C225.2-25.118 112.684 11.56 49.076 75.093-15.553 139.684-78.142 432.045 293.57 300.256c144.641-51.295 54.161 75.545 54.161 75.545" opacity=".1"/>
  <path fill="#FFBE55" d="M258.838 21.91c-20.258-3.361-40.328 7.14-48.982 25.761-2.533 5.44-4.724 11.786-6.35 19.15-8.428 38.378-13.077 64.555-48.189 90.769-35.111 26.214 41.764 107.501 81.032 73.846 39.27-33.656 105.713 8.649 120.718-16.243 14.967-24.892-12.095-52.013.945-72.599 13.039-20.586 25.322-96.358-10.243-121.628-35.602-25.27-80.427-30.86-88.931.944Z"/>
  <path fill="#2A94F4" d="M248.369 180.971s-85.115-7.705-68.258 194.303h185.384s17.537-190.11-68.296-194.303h-48.83Z"/>
  <path fill="#FCD2B1" d="M254.075 122.272s-6.538 64.327-5.631 77.434 40.441 24.326 47.735 5.629c4.422-11.332-7.294-83.025-7.294-83.025h-34.81v-.038Z"/>
  <path fill="#FFE3CA" d="M328.191 42.534s47.735 110.032-24.378 120.156c-18.633 2.606-45.543-17.981-49.738-32.938-3.703-13.107-9.978-3.06-14.777-14.241-6.539-15.26-2.042-59.228 11.981-30.936 10.317 20.813 31.822-38.678 52.421-29.311 20.598 9.368 24.491-12.73 24.491-12.73Z"/>
  <path fill="#0E538C" d="m219.229 403.981-67.691-213.68s-54.236 24.93-86.815 46.045c0 0 19.918 54.619 34.696 84.535 14.777 29.916 22.412 39.586 46.941 52.127 24.566 12.54 72.869 30.973 72.869 30.973Z"/>
  <path fill="#0E538C" d="m219.229 403.981-67.691-213.68s58.695-10.803 97.51-12.276c0 0 15.157 56.13 20.297 89.105 5.14 32.938 4.459 45.252-8.39 69.653-12.814 24.326-41.726 67.198-41.726 67.198Z"/>
  <path fill="#F9F3ED" d="M74.171 239.519c5.519 14.844 20.6 54.43 32.202 77.925 13.946 28.254 20.561 36.904 43.54 48.688 18.935 9.67 52.837 23.155 66.33 28.406l-62.362-196.833c-6.689 3.135-50.078 23.494-79.71 41.814Zm179.943 93.638c12.018-22.853 12.434-33.731 7.559-64.856-4.007-25.874-14.514-66.932-18.52-82.268-34.809 2.077-82.015 10.349-89.272 11.672l62.362 196.833c8.013-12.049 27.969-42.569 37.871-61.381Z"/>
  <path fill="#0E538C" d="M79.841 241.483c6.538 17.338 20.03 52.39 30.689 73.921 13.38 27.083 19.238 35.204 41.499 46.611 17.272 8.839 47.206 20.889 62.4 26.857l-59.112-186.711c-6.803 3.174-46.752 21.984-75.476 39.322Z"/>
  <path fill="#0E538C" d="M250.032 331.004c11.641-22.135 11.754-32.107 7.106-61.985-3.705-23.721-12.813-60.172-17.462-78.076-33.486 2.342-76.95 9.934-84.359 11.256l59.15 186.673c8.957-13.636 26.532-40.719 35.565-57.868Z"/>
  <path fill="#D3D3D3" d="m298.787 393.632 118.411 12.955a6.611 6.611 0 0 0 7.333-5.893l22.525-205.558a6.608 6.608 0 0 0-5.895-7.328l-125.026-13.711-23.282 212.169a6.72 6.72 0 0 0 5.934 7.366Z"/>
  <path fill="#F7F7F7" d="m438.666 187.544-4.422-.492-118.071-12.918-4.422-.49c-5.065-.568-9.6 3.096-10.167 8.159l-21.997 200.496c-.566 5.062 3.099 9.595 8.164 10.162l113.347 12.427c5.064.566 9.6-3.097 10.167-8.159l10.054-91.637 4.422.492c5.064.566 9.599-3.098 10.167-8.159l10.922-99.72c.529-5.1-3.099-9.632-8.164-10.161Z"/>
  <path fill="#CCE9FF" d="M235.745 300.257v-33.58c0-10.727 9.903-18.734 17.915-18.734h19.276c13.492 0 20.673 7.969 20.673 18.734v33.58h16.517v-33.58c0-19.831-14.589-35.241-37.19-35.241H253.66c-17.083 0-34.431 15.41-34.431 35.241v33.58h16.516Z"/>
  <path fill="#FFBE55" d="M318.365 386.152c0 9.104-5.519 15.978-14.59 15.978H228.3c-9.109 0-17.349-6.874-17.349-15.978v-80.946c0-9.104 8.278-10.464 17.349-10.464h75.475c9.11 0 14.59 1.36 14.59 10.464v80.946Z"/>
  <path fill="#FFBE55" d="M279.511 336.897c0-7.706-6.047-14.052-13.757-14.052s-13.493 6.346-13.493 14.052c0 5.515 2.759 9.896 8.277 12.39v25.874c0 3.588 1.928 6.346 5.518 6.346 3.591 0 5.518-2.758 5.518-6.346v-25.874c5.48-2.494 7.937-6.913 7.937-12.39Z"/>
  <path fill="#000" d="M279.511 336.897c0-7.706-6.047-14.052-13.757-14.052s-13.493 6.346-13.493 14.052c0 5.515 2.759 9.896 8.277 12.39v25.874c0 3.588 1.928 6.346 5.518 6.346 3.591 0 5.518-2.758 5.518-6.346v-25.874c5.48-2.494 7.937-6.913 7.937-12.39Z" opacity=".13"/>
  <path fill="#FFE3CA" d="m192.886 372.895 22.148-5.742s2.684-10.539 7.748-14.542c5.064-4.005 11.111-7.027 13.833-6.687 2.683.341-3.024 7.744-5.745 11.106-2.722 3.361 1.361 4.382 12.133-3.022 10.77-7.403 19.879-9.783 22.562 5.364 2.684 15.184-12.812 22.248-31.672 22.248-18.859 0-33.675 10.614-33.675 10.614s-28.119-2.493-7.332-19.339Z"/>
  <path fill="#2A94F4" d="M99.456 320.881s-8.276.453-15.76 15.411c-7.483 14.959 2.08 86.538 132.584 58.246l-8.579-27.121c-.037 0-100.799-30.445-108.245-46.536Z"/>
  <path fill="#FFE3CA" d="m340.097 372.895-22.148-5.742s-2.684-10.539-7.748-14.542c-5.064-4.005-11.111-7.027-13.833-6.687-2.684.341 3.024 7.744 5.745 11.106 2.721 3.361-1.361 4.382-12.132-3.022-10.771-7.403-19.881-9.783-22.563 5.364-2.684 15.184 12.812 22.248 31.672 22.248 18.859 0 33.675 10.614 33.675 10.614s28.119-2.493 7.332-19.339Z"/>
  <path fill="#2A94F4" d="M433.337 320.881s8.277.453 15.76 15.411c7.484 14.959-2.078 86.538-132.584 58.246l8.579-27.121c.037 0 100.762-30.445 108.245-46.536Z"/>
</svg>
