<svg xmlns="http://www.w3.org/2000/svg" width="700" height="611" fill="none" viewBox="0 0 700 611">
  <g clip-path="url(#a)">
    <path fill="#E4F0FF" d="M554.184 231.441c0-113.454-91.971-205.426-205.422-205.426-113.452 0-205.423 91.972-205.423 205.426v174.132C143.339 519.027 235.31 611 348.762 611c113.451 0 205.422-91.973 205.422-205.427V231.441Z"/>
    <path fill="#BDDBFE" d="M176.471 180.64s15.639-16.165 18.379-35.496c2.741-19.332 20.242-23.918 32.205-20.242 11.963 3.676 23.024 37.159 52.514 36.983 29.49-.175 79.138-24.101 80.976-30.542 1.838-6.441 4.603-18.379 24.845-21.161 20.242-2.782 21.161-22.088 50.609-22.088s81.285 4.937 85.888 6.775c4.603 1.838 26.349 4.895 30.91 30.392 0 0 3.701 10.727-2.74 41.069-6.441 30.342 38.646 49.673 49.69 49.673 11.044 0 43.249 68.094 7.36 126.063-35.889 57.969-31.286 80.048-69.013 57.05-37.727-22.999-34.043.919-37.727-23.007-3.684-23.926-22.08-11.044-27.568-23.926-5.489-12.882 13.801-38.646.919-44.168-12.882-5.522-45.112 4.603-51.528-28.521-6.416-33.124-46.015 6.441-27.569 36.808s-20.242 7.36-20.242 25.764-22.079 33.124-11.044 46.925c11.036 13.801 39.574 91.101-48.762 89.254-88.336-1.846-38.655 15.648-57.05 17.486-18.396 1.837-28.605-23.008-58.053-23.008-29.448 0-130.657-5.513-127.9-49.681 2.756-44.168 29.305-35.923 28.913-74.535-.393-38.613-44.937-83.282 22.422-124 67.359-40.717 53.566-43.867 53.566-43.867Z"/>
    <path fill="url(#b)" d="M167.758 78.403H25.329v332.634h142.429V78.403Z"/>
    <path fill="#68ACFD" d="M100.483 137.892c12.383 0 22.422-10.039 22.422-22.422 0-12.384-10.039-22.422-22.422-22.422-12.384 0-22.423 10.038-22.423 22.422 0 12.383 10.04 22.422 22.423 22.422Zm14.862 23.993H42.639a3.86 3.86 0 0 0-3.86 3.86v1.178a3.86 3.86 0 0 0 3.86 3.859h72.706a3.86 3.86 0 0 0 3.859-3.859v-1.178a3.86 3.86 0 0 0-3.859-3.86Zm38.646 0H141.86a3.86 3.86 0 0 0-3.859 3.86v1.178a3.86 3.86 0 0 0 3.859 3.859h12.131a3.86 3.86 0 0 0 3.859-3.859v-1.178a3.86 3.86 0 0 0-3.859-3.86ZM90.567 180.64H42.639a3.86 3.86 0 0 0-3.86 3.86v1.178a3.86 3.86 0 0 0 3.86 3.859h47.928a3.86 3.86 0 0 0 3.86-3.859V184.5a3.86 3.86 0 0 0-3.86-3.86Zm63.415 0h-2.205a3.86 3.86 0 0 0-3.86 3.86v1.178a3.86 3.86 0 0 0 3.86 3.859h2.205a3.86 3.86 0 0 0 3.86-3.859V184.5a3.86 3.86 0 0 0-3.86-3.86Zm-29.523 20.843H43.333a3.86 3.86 0 0 0-3.86 3.86v1.178a3.86 3.86 0 0 0 3.86 3.86h81.126a3.86 3.86 0 0 0 3.859-3.86v-1.178a3.86 3.86 0 0 0-3.859-3.86Zm30.217 0h-6.517a3.86 3.86 0 0 0-3.859 3.86v1.178a3.86 3.86 0 0 0 3.859 3.86h6.517a3.86 3.86 0 0 0 3.859-3.86v-1.178a3.86 3.86 0 0 0-3.859-3.86Zm-44.553 18.58h-66.79a3.86 3.86 0 0 0-3.86 3.86v1.177a3.86 3.86 0 0 0 3.86 3.86h66.79a3.86 3.86 0 0 0 3.86-3.86v-1.177a3.86 3.86 0 0 0-3.86-3.86Zm44.561 0h-12.13a3.86 3.86 0 0 0-3.86 3.86v1.177a3.86 3.86 0 0 0 3.86 3.86h12.13a3.86 3.86 0 0 0 3.86-3.86v-1.177a3.86 3.86 0 0 0-3.86-3.86ZM80.04 239.511H43.332a3.86 3.86 0 0 0-3.859 3.86v1.178a3.86 3.86 0 0 0 3.86 3.859H80.04a3.86 3.86 0 0 0 3.86-3.859v-1.178a3.86 3.86 0 0 0-3.86-3.86Zm74.644 0H135.01a3.86 3.86 0 0 0-3.859 3.86v1.178a3.86 3.86 0 0 0 3.859 3.859h19.674a3.86 3.86 0 0 0 3.86-3.859v-1.178a3.86 3.86 0 0 0-3.86-3.86Zm-46.332 18.755h-65.02a3.86 3.86 0 0 0-3.859 3.86v1.178a3.86 3.86 0 0 0 3.86 3.859h65.019a3.86 3.86 0 0 0 3.86-3.859v-1.178a3.86 3.86 0 0 0-3.86-3.86Zm46.332 0h-12.13a3.86 3.86 0 0 0-3.86 3.86v1.178a3.86 3.86 0 0 0 3.86 3.859h12.13a3.86 3.86 0 0 0 3.86-3.859v-1.178a3.86 3.86 0 0 0-3.86-3.86Zm252.31 141.117a26.011 26.011 0 0 1 3.951-30.183c5.288-5.631 9.59-12.941 9.24-21.637-.836-21.721 19.983-29.532 23.458-19.975 3.475 9.557 1.738 42.606 15.63 45.171 13.893 2.564 34.753 18.379 18.246 38.278-16.508 19.899-23.45-11.353-16.508 19.924 6.942 31.278-33.007 57.025-42.606 33.283-9.599-23.742-39.047-15.338-18.237-31.545 13.901-10.835 12.122-23.425 6.826-33.316Z"/>
    <path stroke="#fff" stroke-linecap="round" stroke-miterlimit="10" d="m501.42 145.16 2.289-2.422"/>
    <path stroke="#fff" stroke-dasharray="6.35 6.35" stroke-linecap="round" stroke-miterlimit="10" d="M507.351 138.886c3.392-3.6 7.911-8.42 12.681-13.542"/>
    <path stroke="#fff" stroke-linecap="round" stroke-miterlimit="10" d="m521.837 123.398 2.272-2.456"/>
    <path fill="#fff" d="M524.109 125.269a6.416 6.416 0 1 0 0-12.832 6.416 6.416 0 0 0 0 12.832Zm-30.066 33.199a6.416 6.416 0 1 0 0-12.832 6.416 6.416 0 0 0 0 12.832Z"/>
    <path stroke="#fff" stroke-linecap="round" stroke-miterlimit="10" d="M178.485 315.867s.326-1.111 1.119-3.141"/>
    <path stroke="#fff" stroke-dasharray="8.03 8.03" stroke-linecap="round" stroke-miterlimit="10" d="M182.311 306.578c12.79-26.683 62.781-103.031 222.569-125.061"/>
    <path stroke="#fff" stroke-linecap="round" stroke-miterlimit="10" d="m408.222 181.066 3.341-.426M172.019 322.743s.61 1.027 1.729 2.849"/>
    <path stroke="#fff" stroke-dasharray="8.42 8.42" stroke-linecap="round" stroke-miterlimit="10" d="M177.474 331.54c9.782 15.405 31.102 47.058 50.433 62.889"/>
    <path stroke="#fff" stroke-linecap="round" stroke-miterlimit="10" d="M230.681 396.618a52.894 52.894 0 0 0 2.723 1.921"/>
    <path stroke="#fff" stroke-miterlimit="10" stroke-width="4" d="M172.019 350.462c15.839 0 28.679-12.841 28.679-28.68s-12.84-28.679-28.679-28.679c-15.84 0-28.68 12.84-28.68 28.679 0 15.839 12.84 28.68 28.68 28.68Z"/>
    <path fill="#fff" d="M172.019 334.121c6.284 0 11.378-5.094 11.378-11.378s-5.094-11.378-11.378-11.378-11.379 5.094-11.379 11.378 5.095 11.378 11.379 11.378Z"/>
    <path stroke="#fff" stroke-miterlimit="10" stroke-width="4" d="M462.932 205.928c15.84 0 28.68-12.84 28.68-28.68 0-15.839-12.84-28.679-28.68-28.679-15.839 0-28.679 12.84-28.679 28.679 0 15.84 12.84 28.68 28.679 28.68Z"/>
    <path fill="#fff" d="M462.932 189.596c6.284 0 11.379-5.095 11.379-11.379s-5.095-11.378-11.379-11.378-11.378 5.094-11.378 11.378 5.094 11.379 11.378 11.379Zm-41.001-3.501a6.416 6.416 0 1 0 0-12.832 6.416 6.416 0 0 0 0 12.832ZM233.404 404.964a6.416 6.416 0 1 0 0-12.832 6.416 6.416 0 0 0 0 12.832Z"/>
    <path fill="#F8F8FF" d="M318.708 398.548h-67.033a1.93 1.93 0 0 0-1.93 1.929v.585a1.93 1.93 0 0 0 1.93 1.93h67.033a1.93 1.93 0 0 0 1.929-1.93v-.585a1.93 1.93 0 0 0-1.929-1.929Zm0 12.489h-67.033a1.93 1.93 0 0 0-1.93 1.93v.585a1.93 1.93 0 0 0 1.93 1.929h67.033a1.93 1.93 0 0 0 1.929-1.929v-.585a1.93 1.93 0 0 0-1.929-1.93Zm0 15.739h-67.033a1.93 1.93 0 0 0-1.93 1.93v.585a1.93 1.93 0 0 0 1.93 1.929h67.033a1.93 1.93 0 0 0 1.929-1.929v-.585a1.93 1.93 0 0 0-1.929-1.93Zm-25.497 12.539h-41.536a1.93 1.93 0 0 0-1.93 1.93v.585a1.93 1.93 0 0 0 1.93 1.93h41.536a1.93 1.93 0 0 0 1.93-1.93v-.585a1.93 1.93 0 0 0-1.93-1.93Z"/>
    <path fill="#E1E6FB" d="M600.449 128.051h-67.033a1.93 1.93 0 0 0-1.93 1.93v.585a1.93 1.93 0 0 0 1.93 1.93h67.033a1.93 1.93 0 0 0 1.93-1.93v-.585a1.93 1.93 0 0 0-1.93-1.93Zm0 12.49h-67.033a1.93 1.93 0 0 0-1.93 1.929v.585a1.93 1.93 0 0 0 1.93 1.93h67.033a1.93 1.93 0 0 0 1.93-1.93v-.585a1.93 1.93 0 0 0-1.93-1.929Zm0 15.739h-67.033a1.93 1.93 0 0 0-1.93 1.929v.585a1.93 1.93 0 0 0 1.93 1.93h67.033a1.93 1.93 0 0 0 1.93-1.93v-.585a1.93 1.93 0 0 0-1.93-1.929Zm-25.497 12.539h-41.536a1.93 1.93 0 0 0-1.93 1.93v.585a1.93 1.93 0 0 0 1.93 1.929h41.536a1.93 1.93 0 0 0 1.93-1.929v-.585a1.93 1.93 0 0 0-1.93-1.93Z"/>
    <path stroke="#BAC5F4" stroke-miterlimit="10" d="M239.82 398.539s1.162.192 3.342.46"/>
    <path stroke="#BAC5F4" stroke-dasharray="7.86 7.86" stroke-miterlimit="10" d="M249.653 399.709c45.947 4.377 236.796 9.874 214.048-203.53"/>
    <path stroke="#BAC5F4" stroke-miterlimit="10" d="M463.358 192.904a291.418 291.418 0 0 0-.4-3.342"/>
    <path fill="#68ACFD" d="M598.076 192.21s-13.575-13.809-.835-23.583c12.74-9.774 16.157-9.19 16.265.551.109 9.741-9.423 11.22-3.65 21.487 5.772 10.267-1.212 12.957-5.531 10.727-4.319-2.231-6.249-9.182-6.249-9.182Zm-2.305 3.158s.835 7.519 7.627 10.752c6.792 3.233 18.32 10.86 17.301 16.917-1.019 6.057-14.519-10.86-18.746-9.373-4.228 1.487-13.467-4.052-16.241-11.161-2.773-7.11-2.247-12.765 1.947-12.715 4.194.05 8.112 5.58 8.112 5.58Z"/>
    <path fill="#E4F0FF" fill-opacity=".4" d="M572.045 70.767h106.849c17.159 0 26.942-20.1 15.872-33.249-6.449-7.677-18.245-13.433-39.347-12.598 0 0-29.498-55.972-70.826-.084 0 0-34.001-3.341-36.608 18.38l-.075.643a24.215 24.215 0 0 0 14.229 24.816 24.23 24.23 0 0 0 9.906 2.092ZM24.285 551.586h106.816c17.159 0 26.941-20.1 15.872-33.241-6.457-7.686-18.245-13.433-39.356-12.606 0 0-29.49-55.973-70.826-.076 0 0-33.992-3.341-36.599 18.421 0 .217-.05.435-.075.643a24.232 24.232 0 0 0 6.075 18.837 24.216 24.216 0 0 0 18.093 8.022Z"/>
  </g>
  <defs>
    <linearGradient id="b" x1="97.174" x2="93.967" y1="183.731" y2="493.767" gradientUnits="userSpaceOnUse">
      <stop offset=".03" stop-color="#F9F9F9"/>
      <stop offset="1" stop-color="#fff" stop-opacity="0"/>
    </linearGradient>
    <clipPath id="a">
      <path fill="#fff" d="M0 0h699.445v611H0z"/>
    </clipPath>
  </defs>
</svg>
