<svg xmlns="http://www.w3.org/2000/svg" width="564" height="402" fill="none" viewBox="0 0 564 402">
  <path fill="#F5F2FD" d="M110.945 318.964c37.447-18.813 60.034 15.598 60.034 15.598 13.597-43.05 32.855-69.054 32.855-69.054s25.164-36.343 58.357-38.265c33.354-1.931 73.851 32.243 73.851 32.243C460.72 382.357 520.65 401.029 520.65 401.029l-490.815-.142c-.002-.001 31.988-57.245 81.11-81.923Z"/>
  <path fill="#167FFC" d="M356.975 180.552s-29.857 15.24-38.779.219c0 0-4.14-3.838-4.027-19.422l-1.773-21.301-1.018-18.725 1.521-25.29s2.119-14.862 6.184-25.252c1.731-5.807 7.106-13.574 16.654-19.862 6.157-4.054 28.719-5.306 28.719-5.306l11.424-.66 15.833 2.219-.903 7.114s-39.111 62.753-40.919 74.197c-1.807 11.443-7.453 27.329 10.39 37.344l-3.306 14.725Z"/>
  <path fill="#9495DD" d="M410.916 57.9s15.698 3.275 21.909 11.406c6.212 8.13 8.471 11.745 8.471 11.745s27.255 7.68 32.225 21.231c4.969 13.552 11.565 28.315-25.124 56.395 0 0-1.823 8.504-2.689 11.056-.715 2.105-3.635 7.573-3.635 7.573s-10.713 3.878-24.115 5.385c-13.402 1.508-55.413 2.411-60.984-1.956l3.312-14.907s-17.016-6.4-12.046-28.986l2.861-11.67s-15.058-10.579-15.849-23.905c-.79-13.326.226-17.73 6.551-24.167 0 0 10.049-13.815 20.29-5.382 0 0 6.475 4.592 6.475 7.98 0 0 .465-4.728 2.99-3.3 0 0 .839-4.6 2.505-3.101.32.288 1.039 1.675 1.039 1.675s5.798-22.796 16.16-25.43c2.801-.712 6.996-.38 9.078-.27 10.184.533 10.576 8.628 10.576 8.628Z"/>
  <path fill="#9495DD" d="M409.835 66.65c.289-2.91.579-5.927.849-8.89.562-6.451.995-12.613.995-16.715a9.477 9.477 0 0 0-1.754-1.608 12.536 12.536 0 0 0-3.884-1.88 15.447 15.447 0 0 0-4.626-.632 13.5 13.5 0 0 0-1.68.09 5.27 5.27 0 0 0-.776.127c-5.873 1.228-7.373 9.467-7.699 12.395-3.794.723-7.046 4.608-9.612 9.053-2.945 5.095-5.733 13.828-6.547 16.377a18.72 18.72 0 0 0-.6-1.066c-2.15-3.505-2.945 2.494-2.945 2.494a1.555 1.555 0 0 0-.41-.21c2.083 16.767 9.042 33.355 22.022 43.131 6.902-7.689 12.115-19.136 14.553-33.894 0 .002 1.084-8.69 2.114-18.773Z"/>
  <path fill="#9495DD" d="M375.102 74.97v-.002l-.001.001h.001Zm-3.956 1.216c-1.287-.442-2.143 1.587-2.58 3.51.699-2.142-6.09-9.776-12.884-10.354-4.192-.38-9.179 1.518-14.672 8.096-.18.216-.362.433-.523.65-12.467 15.738-3.994 36.88 10.697 46.818 3.415 2.331 7.156 4.03 11.058 4.933.904.217 1.79.379 2.693.488 3.252.488 6.451.433 9.54-.09 6.915-1.218 13.317-4.928 18.694-10.919-12.981-9.777-19.94-26.365-22.023-43.132Z"/>
  <path fill="#595BD4" d="m341.311 212.657 17.768-6.926 1.104-27.152-21.281 8.329-.151 7.53 2.56 18.219Z"/>
  <path fill="#FFDDB9" d="M439.061 44.953s-1.15-20.41-2.505-23.346-48.792 8.286-48.792 8.286.43 6.414 4.112 9.418c0 0-6.822-5.893-10.255-2.478-4.82 4.792-1.957 10.306 0 12.19 1.957 1.882 5.366.993 10.059-2.303l1.351 2.569c2.685-.422 11.323-1.426 14.737 2.475 4.065 4.644 2.917 7.555 2.917 7.555l-1.37 9.78c4.753 1.944 10.519 3.745 13.761 2.701.301-.097-.859-3.66 1.253-4.094 15.249-3.135 14.732-22.753 14.732-22.753Z"/>
  <path fill="#8283A6" d="M444.929 172.293c-.656-.396-17.754 3.839-36.712 4.676-23.562 1.041-49.952-2.251-49.952-2.251s-1.075 3.329-1.382 7.016v.02c-.054.614-.108 1.283-.162 1.969 0 .018-.019.035 0 .053-.94 11.565-2.53 31.424-3.29 43.982-.452 6.956-.63 10.335-.477 10.95.29 1.165 54.153 5.04 54.153 5.04l5.775-25.487 34.212 17.786s1.836-2.074 5.954-6.772c4.59-5.241 9.831-11.258 13.047-15.089.849-.994 1.535-1.825 2.059-2.476 1.571-1.95 3.976-4.191 6.487-6.304 1.517-1.303 5.133-5.448 5.151-5.448 0 0-28.42-16.843-37.721-22.652 0 0 2.865-5.008 2.858-5.013Z"/>
  <path fill="#F5F2FD" d="M512.054 356.463h-37.458l-8.907-.09-.687-5.221 46.24-1.012c1.209 2.746.956 5.384.812 6.323Z"/>
  <path fill="#D6BDA2" d="m511.345 351.367-46.344-.214-.018-.2-.433-3.379-2.982 3.451-17.87.342 14.618-39.281 19.714 6.649c-.994 1.934-1.735 3.451-2.169 4.445-4.517 10.39 16.263 16.714 27.321 20.328 4.662 1.517 7.059 5.366 8.163 7.859Z"/>
  <path fill="#FFDDB9" d="m484.534 241.651-22.55 60.549v.02l19.787 9.467c10.527-19.567 31-55.487 35.91-64.084-9.639-6.143-11.843-7.421-33.147-5.952Z"/>
  <path fill="#FFDDB9" d="M510.627 220.185a4828.478 4828.478 0 0 0-32.018-18.611c-7.427 6.396-18.377 18.683-26.056 27.591l31.982 12.486s27.337 14.428 33.146 5.951l1.078-1.886s8.817-15.593-8.132-25.531Z"/>
  <path fill="#595BD4" d="M481.771 311.687a475.433 475.433 0 0 0-3.741 7.048l-19.714-6.649 3.67-9.866 19.785 9.467Z"/>
  <path fill="#F5F2FD" d="m461.569 351.025-4.463 5.131-8.132.235-2.313.072h-4.86l1.283-3.469.614-1.627 17.871-.342Z"/>
  <path fill="#FFDDB9" d="m360.572 284.998-6.461 53.54-.037.362 21.07 3.739 7.409-39.571 3.185-17.016c-8.448.051-16.867-.155-25.166-1.054Z"/>
  <path fill="#FFDDB9" d="m365.946 240.368-5.059 42.029-.315 2.602c8.299.898 16.718 1.104 25.165 1.054l8.071-43.12c-7.063-.735-23.001-1.986-27.862-2.565Z"/>
  <path fill="#D6BDA2" d="M401.496 397.753c-13.3-1.573-25.653-.438-30.974-1.193l-3.547-9-2.584 9.432c-8.023-1.663-12.788-2.037-16.456-3.102l5.11-45.882h.017c5.856.632 14.854 1.607 21.033 2.294-.668 10.211.705 29.833 19.768 35.976 0 0 8.446 2.565 7.633 11.475Z"/>
  <path fill="#595BD4" d="m375.143 342.639-.253 1.32s-.541 2.512-.795 6.342a7995.187 7995.187 0 0 0-21.033-2.294l1.012-9.107 21.069 3.739Z"/>
  <path fill="#FE9526" d="M411.679 41.045c0 4.102-.433 10.264-.995 16.714-.884-4.95-3.36-7.119-6.829-8.004 1.717-3.722 2.097-9.27 2.186-12.197 1.5.433 2.818 1.102 3.884 1.88h.02c.686.506 1.245 1.03 1.734 1.607Zm-10.264-4.12c-3.397 3.669-4.246 9.469-4.463 12.306-1.517.037-3.108.127-4.751.198a8.307 8.307 0 0 0-.941.109c.326-2.927 1.826-11.167 7.699-12.395.252-.054.504-.109.777-.127.578-.072 1.138-.09 1.679-.09Z"/>
  <path fill="#FE9526" d="M406.041 37.559c-.089 2.926-.469 8.474-2.186 12.197-2.006-.507-4.355-.579-6.903-.525.217-2.837 1.066-8.637 4.463-12.305 1.699-.018 3.254.217 4.626.633Z"/>
  <path fill="#FFDDB9" d="M441.15 17.212c-1.048 3.65-13.732 8.005-21.358 8.692-.921 3.542-3.45 10.661-9.847 13.534h-.02a12.506 12.506 0 0 0-3.883-1.88 15.458 15.458 0 0 0-4.627-.632c-.541 0-1.101.017-1.68.09a5.293 5.293 0 0 0-.777.127c.235-1.898.976-6.235 2.836-10.066 1.754-3.65 4.517-6.83 8.782-7.01 6.704-.29 18.269-3.252 25.097-4.066 3.598-.415 5.893-.252 5.477 1.211Z"/>
  <path fill="#595BD4" d="M323.139 209.903c-.397 3.289-1.319 4.464-6.287 6.668-6.108 2.711-14.925-4.282-9.505-4.751 4.03-.325 10.915-2.656 14.185-3.831a16.247 16.247 0 0 0 1.607 1.914Z"/>
  <path fill="#595BD4" d="M351.183 198.394c0 9.035-7.336 16.37-16.389 16.37-4.553 0-8.674-1.862-11.655-4.861a16.37 16.37 0 0 1-1.607-1.915c-1.97-2.693-3.108-6.018-3.108-9.594a16.38 16.38 0 0 1 5.8-12.523c6.053 2.676 14.04 1.735 20.996-.125a16.314 16.314 0 0 1 5.963 12.648Zm30.465-139.803c-2.946 5.095-5.734 13.83-6.548 16.378-3.022-5.627-3.544 1.428-3.544 1.428-2.06-1.3-1.987 1.292-2.991 2.251-1.409-2.222-6.089-8.727-12.883-9.305a62.67 62.67 0 0 0-2.711-5.022c10.463-5.657 23.653-5.874 28.677-5.73Z"/>
  <path fill="#595BD4" d="M355.682 69.342c-4.192-.38-9.179 1.518-14.672 8.096-.18.216-.362.433-.523.65 2.439-6.504 7.101-10.859 12.486-13.767a62.401 62.401 0 0 1 2.709 5.021Z"/>
  <path fill="#FE9526" d="M435.675 16.001c-6.829.814-18.395 3.777-25.097 4.066-4.265.18-7.029 3.36-8.783 7.01a329.526 329.526 0 0 1-13.894 4.283c-11.023 3.09-23.924 5.944-26.111 3.017-3.09-4.156 15.51-8.7 23.641-9.513-1.933-4.681-1.037-18.25 17.16-22.56 25.582-6.06 30.446 5.369 33.084 13.697Z"/>
  <path fill="#8283A6" d="m537.206 356.463 18.511 15.018-18.511 12.989H422.177v-28.007h19.624l-.055.145 4.915-.145h27.935l37.403.38s.037-.128.055-.38h25.152Z"/>
  <path fill="#595BD4" d="m341.639 169.582-12.429.151-2.697-31.312 12.49-1.527 1.229 11.411.164 4.59 1.243 16.687Z"/>
  <path fill="#595BD4" d="m340.559 153.329.355 6.508s8.63-.636 12.444-4.626c2.723-2.847 17.466-16.864 20.704-25.147 0 0-6.399 1.394-9.148.038 0 0-16.299 15.058-24.769 18.295l.414 4.932Zm47.342-121.968s1.13 3.604 1.746 5.17c.616 1.568 2.23 2.78 2.23 2.78l1.961 1.837s.914-1.825 2.258-2.656c1.343-.831 2.863-1.35 2.863-1.35l2.538-9.966-13.596 4.185Z"/>
  <path fill="#FE9526" d="M396.273 142.035s.384 3.04-5.045 9.367c-5.429 6.326-9.411 9.907-9.411 9.907l2.26 3.311s5.402-2.944 11.158-12.046c5.755-9.101 5.403-10.54 5.403-10.54h-4.365v.001Z"/>
  <path fill="#8283A6" d="m493.913 384.398-2.878 16.329h-19.641l2.877-16.257 19.642-.072Z"/>
  <path fill="#F5F2FD" d="m347.935 393.641-.781 7.245h15.59l1.103-4.098-15.912-3.147Zm22.838 2.919 1.606 4.326 28.209.292.907-3.425-30.722-1.193Z"/>
  <path fill="#8283A6" d="M428.822 53.278s-2.76-.56-2.76 1.723c0 2.284 1.129 3.22 1.907 3.367.778.147.954-.957 1.154-1.936.2-.978.402-1.129.402-1.807 0-.678-.703-1.347-.703-1.347Z"/>
  <path fill="#1F1F23" d="M150.721 401.274a.387.387 0 0 1-.372-.498c5.049-17.08 14.997-50.271 20.261-66.335.457-1.414.901-2.728 1.311-3.938l.227-.672c3.421-10.035 12.507-36.686 28.617-60.512 20.276-29.985 43.9-44.22 70.256-42.294 31.626 2.316 63.107 29.651 90.132 55.089a.387.387 0 1 1-.531.564c-26.928-25.348-58.284-52.584-89.657-54.88-26.061-1.9-49.447 12.214-69.557 41.955-16.054 23.741-25.114 50.321-28.526 60.327l-.226.672c-.408 1.207-.852 2.518-1.308 3.929-5.263 16.056-15.207 49.239-20.254 66.315a.39.39 0 0 1-.373.278Zm-104.64-.331a.388.388 0 0 1-.308-.623c1.52-1.984 14.93-19.341 18.844-18.203.667.198 1.044.818 1.123 1.845.607 7.866-2.34 12.682-2.466 12.883a.386.386 0 1 1-.656-.41c.029-.048 2.935-4.818 2.35-12.414-.051-.673-.244-1.064-.571-1.162-2.538-.759-12.393 10.596-18.008 17.932a.388.388 0 0 1-.308.152Z"/>
  <path fill="#1F1F23" d="M29.834 401.274a.387.387 0 0 1-.332-.588c.127-.209 12.896-21.238 31.562-42.383 17.254-19.548 43.224-43.198 68.958-44.865 15.538-1.003 29.418 6.019 41.259 20.883a.387.387 0 1 1-.606.483C159 320.15 145.342 313.221 130.072 314.21c-48.793 3.159-99.403 86.039-99.907 86.877a.388.388 0 0 1-.331.187Z"/>
  <path fill="#1F1F23" d="M108.974 358.783c-.595 0-1.084-.921-2.628-4.399-.632-1.426-1.287-2.902-1.813-3.789-.264-.45-.458-.505-.456-.506-.307.062-.78 1.444-.971 2.844a.388.388 0 0 1-.768-.105c.133-.983.556-3.292 1.586-3.5.447-.091.882.202 1.277.87.547.928 1.211 2.423 1.853 3.871.591 1.333 1.367 3.081 1.812 3.727.093-.347.208-.827.343-1.393 1.165-4.875 1.928-7.4 2.867-7.665.247-.069.492.002.688.199.475.473 1.035 1.477 1.627 2.539.539.968 1.443 2.587 1.808 2.683.056-.242.215-.591.42-1.039 2.199-4.81 3.952-8.044 5.361-8.196.254-.03.62.027.93.44 1.557 2.076 2.729 7.543 2.779 7.774a.387.387 0 0 1-.3.459.384.384 0 0 1-.459-.298c-.011-.056-1.185-5.531-2.641-7.471-.107-.144-.183-.137-.226-.134-1.259.136-3.879 5.865-4.739 7.747-.209.46-.374.817-.478 1.023-.198.397-.489.463-.647.466h-.015c-.717 0-1.376-1.116-2.469-3.079-.541-.969-1.101-1.971-1.498-2.369-.631.307-1.811 5.241-2.255 7.099-.188.786-.337 1.41-.432 1.72-.122.397-.379.47-.522.479a.204.204 0 0 1-.034.003Zm69.564 24.864a.386.386 0 0 1-.377-.296c-.023-.093-2.271-9.364-3.605-13.214-.297-.858-.521-.902-.523-.902-.417.023-1.25 2.012-1.746 4.173a.384.384 0 0 1-.463.291.386.386 0 0 1-.292-.463c.324-1.414 1.212-4.708 2.459-4.774.828-.063 1.173 1.059 1.298 1.421.986 2.849 2.462 8.608 3.189 11.519.817-4.33 2.995-14.452 5.628-15.36.354-.121.895-.154 1.469.369 2.981 2.724 4.726 11.44 5.234 14.348 2.541-3.568 13.081-17.83 19.306-18.051 1.17-.039 2.159.407 2.904 1.338a.382.382 0 0 1 .083.21c.044.535 1.009 13.145-3.478 17.327-1.177 1.098-2.626 1.522-4.308 1.269a.387.387 0 0 1 .116-.766c1.46.221 2.654-.13 3.663-1.069 3.992-3.723 3.332-15.27 3.244-16.579-.578-.677-1.305-.989-2.196-.958-6.579.234-19.116 18.31-19.243 18.493a.387.387 0 0 1-.702-.162c-.019-.117-1.826-11.797-5.148-14.831-.314-.289-.535-.262-.694-.208-2.07.715-4.386 10.289-5.439 16.551a.385.385 0 0 1-.367.323l-.012.001Zm83.193-51.159a.388.388 0 0 1-.284-.124c-1.503-1.619-3.287-12.143-3.485-13.337a.387.387 0 0 1 .318-.445.38.38 0 0 1 .446.319c.679 4.09 1.946 10.268 2.934 12.357l3.214-7.775a.389.389 0 0 1 .343-.239.37.37 0 0 1 .36.21c.735 1.441 2.768 5.103 4.027 6.161 3.006-5.842 3.655-5.739 3.937-5.689a.385.385 0 0 1 .318.317c.01.053.901 5.246 1.972 6.852a.387.387 0 0 1-.644.429c-.935-1.403-1.696-5.038-1.977-6.518-.685.867-2.034 3.229-3.114 5.349a.387.387 0 0 1-.518.171c-1.349-.674-3.426-4.342-4.305-5.983l-3.184 7.704a.384.384 0 0 1-.289.232.234.234 0 0 1-.069.009Zm18.296 30.719a.387.387 0 0 1-.302-.631c.26-.321 6.427-7.819 9.951-7.368a.389.389 0 0 1 .332.44c-.018.123-.353 2.392-.661 4.036 2.215-2.012 7.091-6.285 8.636-6.095a.727.727 0 0 1 .546.319c1.018 1.526-1.312 5.108-1.581 5.512a.387.387 0 1 1-.644-.429c.904-1.359 2.134-3.823 1.581-4.652-.726-.26-5.197 3.272-8.899 6.732a.392.392 0 0 1-.462.051.39.39 0 0 1-.179-.429c.263-1.056.674-3.69.832-4.728-2.682.177-7.243 5.111-8.85 7.099a.387.387 0 0 1-.3.143Zm31.967-69.977a.936.936 0 0 1-.227-.029c-.552-.15-.777-.764-1.06-1.543-.189-.519-.404-1.107-.75-1.713-.135-.238-.289-.377-.366-.364-.414.047-1.115 1.457-1.487 2.692a.385.385 0 0 1-.483.259.386.386 0 0 1-.259-.483c.218-.727 1.017-3.111 2.141-3.239.299-.036.736.068 1.127.749.379.663.615 1.312.805 1.832.174.476.371 1.016.535 1.06.023.006.224.029.787-.438.443-.37 1.303-1.375 2.297-2.537 3.323-3.886 5.99-6.826 7.516-6.419.476.127.779.532.903 1.204.768 4.15-.871 7.345-.941 7.479a.387.387 0 0 1-.687-.36c.017-.03 1.584-3.101.867-6.979-.067-.352-.182-.553-.344-.596-1.164-.317-4.786 3.905-6.727 6.174-1.059 1.239-1.897 2.218-2.39 2.629-.358.299-.81.622-1.257.622Zm131.09 60.152a.386.386 0 0 1-.227-.073c-19.547-14.141-30.958-24.146-44.17-35.731-5.043-4.422-10.257-8.993-16.385-14.214a.388.388 0 0 1 .501-.591c6.134 5.226 11.35 9.799 16.394 14.222 13.199 11.572 24.598 21.565 44.113 35.685a.388.388 0 0 1-.226.702Zm77.966 47.892a.39.39 0 0 1-.18-.045l-27.138-14.247a.386.386 0 0 1-.162-.523.389.389 0 0 1 .523-.163l27.139 14.247a.388.388 0 0 1-.182.731Zm-71.97-44.427a.354.354 0 0 1-.145-.033 1.21 1.21 0 0 1-.181-.104.39.39 0 0 1-.099-.539.385.385 0 0 1 .539-.099c.194.092.312.342.221.536-.068.145-.194.239-.335.239Z"/>
  <path fill="#1F1F23" d="M512.054 356.85h-37.459l-8.912-.089a.389.389 0 0 1-.38-.338l-1.028-7.94-2.416 2.796-4.216 5.418a.387.387 0 0 1-.305.149l-15.538.004a.386.386 0 0 1-.363-.522l20.167-54.2a.438.438 0 0 1 .017-.063l22.549-60.549a.391.391 0 0 1 .498-.228.385.385 0 0 1 .228.498l-22.532 60.506a.438.438 0 0 1-.017.063l-19.989 53.721 14.79-.005 4.112-5.284 2.995-3.466a.386.386 0 0 1 .677.204l1.094 8.465 8.571.087h37.089c.06-1.765-.187-9.44-8.626-12.2l-1.211-.394c-9.247-3.008-23.224-7.556-26.368-14.538-.861-1.912-.854-3.902.023-5.919.434-.992 1.167-2.495 2.179-4.467a475.554 475.554 0 0 1 3.746-7.055c11.878-22.081 36.742-65.542 36.992-65.978.35-.622 8.423-15.381-7.991-25.006a4825.56 4825.56 0 0 0-32.016-18.609.388.388 0 0 1 .387-.671 4805.325 4805.325 0 0 1 32.02 18.612c17.082 10.014 8.363 25.896 8.274 26.056-.251.439-25.109 43.891-36.983 65.965a494.266 494.266 0 0 0-3.739 7.041c-1.004 1.957-1.73 3.445-2.157 4.422-.796 1.832-.806 3.563-.026 5.291 3.003 6.669 16.783 11.152 25.902 14.119l1.211.394c9.954 3.255 9.148 13.259 9.138 13.36a.389.389 0 0 1-.387.35Z"/>
  <path fill="#1F1F23" d="M503.633 249.484a.392.392 0 0 1-.141-.027l-51.08-19.931a.386.386 0 0 1-.22-.502.389.389 0 0 1 .502-.22l51.079 19.93a.385.385 0 0 1 .22.502.386.386 0 0 1-.36.248Zm-21.863 62.59a.378.378 0 0 1-.167-.038l-19.786-9.466a.389.389 0 0 1-.219-.35c0-.31.422-.486.637-.31l19.703 9.427a.386.386 0 0 1 .181.517.386.386 0 0 1-.349.22Zm-3.741 7.048a.36.36 0 0 1-.124-.021l-19.715-6.648a.388.388 0 0 1-.243-.491.39.39 0 0 1 .491-.243l19.715 6.648a.388.388 0 0 1-.124.755Zm33.067 32.633h-.003l-46.113-.415a.39.39 0 0 1-.384-.391.386.386 0 0 1 .388-.384h.003l46.112.415a.387.387 0 0 1-.003.775Zm-67.398 0a.387.387 0 0 1-.007-.775l17.869-.343c.228-.014.391.166.394.379a.386.386 0 0 1-.379.395l-17.87.344h-.007Z"/>
  <path fill="#1F1F23" d="M446.7 236.433a.378.378 0 0 1-.18-.045l-33.818-17.786a.386.386 0 0 1-.162-.523.389.389 0 0 1 .523-.162l33.537 17.637c.444-.541 1.785-2.145 5.66-6.642 5.412-6.277 18.754-21.5 26.946-28.656-2.659-1.933-23.376-14.347-37.332-22.617a.386.386 0 0 1-.135-.53.386.386 0 0 1 .53-.136c8.726 5.172 37.246 22.12 37.851 23.079a.388.388 0 0 1-.074.5c-8.119 6.992-21.726 22.516-27.199 28.866-5.171 6.002-5.813 6.83-5.837 6.863a.396.396 0 0 1-.31.152Z"/>
  <path fill="#1F1F23" d="M407.022 244.528c-.012 0-.025 0-.038-.002-.495-.048-49.591-4.829-54.081-5.437a.385.385 0 0 1-.336-.39c.007-.356.669-35.759 3.852-57.077.389-2.583.767-4.8 1.159-6.777.808-3.884 1.632-6.837 2.515-9.031a.385.385 0 0 1 .503-.215c.2.08.295.305.214.505-.866 2.15-1.676 5.061-2.473 8.896-.389 1.96-.766 4.165-1.153 6.736-3.007 20.136-3.759 52.897-3.836 56.63 5.906.727 49.062 4.936 53.368 5.355l8.596-39.34 1.351-8.507a.388.388 0 0 1 .765.121l-1.356 8.528-8.673 39.699a.384.384 0 0 1-.377.306Z"/>
  <path fill="#1F1F23" d="M415.618 205.539a.386.386 0 0 1-.339-.573l6.249-11.413-10.534 6.21a.388.388 0 0 1-.484-.593l8.132-9.035a.387.387 0 1 1 .575.519l-6.446 7.162 9.576-5.646a.388.388 0 0 1 .536.519l-6.927 12.649a.383.383 0 0 1-.338.201Zm-15.13 195.735H372.08a.387.387 0 0 1-.362-.249l-4.699-12.27-3.704 12.244a.39.39 0 0 1-.371.276h-15.79a.385.385 0 0 1-.385-.431l6.955-62.348 11.835-98.175a.386.386 0 0 1 .432-.338.39.39 0 0 1 .339.431l-11.836 98.171-6.906 61.913h15.068l3.948-13.052a.387.387 0 0 1 .357-.274c.156-.019.316.094.376.249l5.008 13.077h27.879c1.133-2.946 1.175-5.625.124-7.967-1.865-4.152-6.57-5.874-6.618-5.891-26.218-8.442-19.294-42.421-19.221-42.764l18.918-101.016a.387.387 0 1 1 .76.143l-18.919 101.026c-.073.345-6.85 33.645 18.711 41.878.217.077 5.076 1.856 7.075 6.306 1.171 2.606 1.1 5.572-.208 8.816a.386.386 0 0 1-.358.245Zm-23.122-224.303a.388.388 0 0 1-.328-.18c-3.234-5.12-12.132-8.466-12.221-8.499-6.553-2.312-11.365-6.048-14.295-11.101a.387.387 0 1 1 .671-.389c2.835 4.889 7.507 8.509 13.888 10.76.382.141 9.239 3.471 12.613 8.814a.386.386 0 0 1-.328.595Zm-29.87-32.469a.387.387 0 0 1-.387-.376c-.236-8.427 2.518-16.348 3.713-19.362a.384.384 0 0 1 .503-.217.385.385 0 0 1 .216.502c-1.176 2.971-3.891 10.772-3.66 19.055a.387.387 0 0 1-.376.399l-.009-.001Z"/>
  <path fill="#1F1F23" d="M369.421 131.049c-1.517 0-3.036-.113-4.544-.34a23.634 23.634 0 0 1-2.726-.495c-3.891-.901-7.655-2.58-11.186-4.99-8.696-5.882-15.035-15.6-16.54-25.359-1.245-8.078.746-15.691 5.757-22.02.158-.208.337-.424.516-.641 4.957-5.934 10.027-8.702 15.02-8.25 7.025.598 11.86 7.41 13.175 9.484a.388.388 0 1 1-.654.415c-1.267-1.998-5.918-8.559-12.588-9.128-4.737-.428-9.574 2.247-14.343 7.957-.185.224-.356.43-.512.635-4.88 6.162-6.817 13.569-5.604 21.427 1.473 9.552 7.685 19.07 16.21 24.836 3.452 2.357 7.128 3.997 10.929 4.877.908.218 1.775.375 2.652.48 3.141.472 6.31.441 9.43-.087 16.496-2.907 28.806-19.54 32.929-44.493a953.32 953.32 0 0 0 2.111-18.75c.29-2.907.579-5.924.849-8.886.668-7.69.994-13.146.994-16.679a.387.387 0 1 1 .774 0c0 3.555-.325 9.034-.996 16.747-.269 2.967-.559 5.985-.849 8.895a962.618 962.618 0 0 1-2.115 18.784c-4.18 25.307-16.727 42.178-33.564 45.146a30.36 30.36 0 0 1-5.125.435Z"/>
  <path fill="#1F1F23" d="M379.127 95.758a.386.386 0 0 1-.35-.551c2.142-4.567-1.139-13.994-3.414-18.843a25.159 25.159 0 0 0-1.191-2.258c-.38-.62-.76-.959-.973-.909-.556.118-1.087 1.964-1.259 3.251a.386.386 0 0 1-.59.277c-.527-.332-.801-.192-.893-.146-.482.244-1.341 1.381-1.677 6.242-.319 4.883.104 10.765.109 10.823a.387.387 0 0 1-.358.415.374.374 0 0 1-.414-.358c-.004-.06-.433-5.993-.11-10.932.284-4.113.952-6.299 2.099-6.881.263-.133.652-.228 1.147-.064.192-1.07.698-3.153 1.783-3.385.891-.19 1.574.902 1.794 1.263.374.61.799 1.417 1.231 2.332 2.333 4.973 5.679 14.675 3.415 19.501a.383.383 0 0 1-.349.223Zm4.95 69.251a.387.387 0 0 1-.32-.169l-2.259-3.313a.386.386 0 0 1 .061-.506c.139-.127 14.04-12.765 14.327-19.005.01-.207.18-.37.388-.37h4.365a.388.388 0 0 1 .36.532c-.279.699-6.938 17.204-16.731 22.78a.388.388 0 0 1-.191.051Zm-1.75-3.64 1.867 2.736c8.436-5.05 14.639-18.805 15.864-21.683h-3.428c-.727 6.232-12.377 17.176-14.303 18.947Zm35.205 9.802a.388.388 0 0 1-.343-.566c6.629-12.815 4.966-72.388 4.299-90.342a5.49 5.49 0 0 0-4.325-5.16c-1.528-.333-2.818-.545-3.838-.634a.389.389 0 0 1-.352-.42.384.384 0 0 1 .42-.351c1.051.092 2.375.308 3.935.648a6.265 6.265 0 0 1 4.935 5.888c.669 18.002 2.331 77.744-4.385 90.727a.392.392 0 0 1-.346.21Zm-16.21 12.975c-22.95 0-43.963-3.868-44.304-3.933a.387.387 0 1 1 .143-.76c.553.104 55.688 10.251 84.755-2.501a.387.387 0 1 1 .311.709c-11.301 4.957-26.487 6.485-40.905 6.485Z"/>
  <path fill="#1F1F23" d="m375.473 75.075-.741-.224c2.402-7.522 4.615-13.054 6.581-16.455 3.167-5.486 6.488-8.593 9.874-9.239.329-.058.669-.096.992-.115l1.41-.065c1.15-.054 2.271-.109 3.353-.134 2.231-.047 4.8-.021 7.008.536 4.025 1.026 6.285 3.666 7.115 8.312a.388.388 0 0 1-.762.136c-.78-4.369-2.798-6.742-6.544-7.697-2.116-.535-4.625-.56-6.798-.512-1.077.025-2.19.078-3.336.133l-1.408.065c-.287.016-.595.05-.889.103-3.15.6-6.295 3.581-9.344 8.863-1.938 3.355-4.129 8.836-6.511 16.293Z"/>
  <path fill="#1F1F23" d="M391.26 49.926c-.014 0-.028 0-.043-.002a.388.388 0 0 1-.342-.427c.297-2.656 1.749-11.423 8.004-12.732a5.62 5.62 0 0 1 .829-.134c.539-.068 1.153-.092 1.896-.092 1.592 0 3.123.22 4.549.651a12.983 12.983 0 0 1 3.943 1.896.334.334 0 0 1 .077.042c.697.513 1.285 1.06 1.801 1.67a.39.39 0 0 1-.046.546.389.389 0 0 1-.546-.046 9.658 9.658 0 0 0-1.613-1.506.37.37 0 0 1-.073-.04 12.152 12.152 0 0 0-3.762-1.819c-1.411-.427-2.917-.629-4.514-.618-.651 0-1.155.027-1.637.088-.274.02-.507.07-.742.122-5.749 1.202-7.115 9.534-7.397 12.06a.386.386 0 0 1-.384.341Z"/>
  <path fill="#1F1F23" d="m396.952 49.619-.029-.001a.388.388 0 0 1-.356-.416c.237-3.099 1.146-8.847 4.565-12.54a.385.385 0 0 1 .547-.02.39.39 0 0 1 .022.547c-3.26 3.52-4.131 9.074-4.361 12.072a.39.39 0 0 1-.388.358Zm6.903.524a.386.386 0 0 1-.35-.549c1.66-3.599 2.059-9.092 2.15-12.046.008-.214.193-.41.399-.375a.388.388 0 0 1 .375.398c-.113 3.68-.59 8.81-2.223 12.347a.385.385 0 0 1-.351.225Z"/>
  <path fill="#1F1F23" d="M398.959 37.531a.389.389 0 0 1-.385-.435c.166-1.343.865-6.05 2.872-10.187 1.719-3.576 2.756-5.735 7.13-6.91 7.758-2.084 22.281-3.813 27.052-4.382 3.344-.386 5.045-.229 5.687.528.185.218.371.598.208 1.175-1.123 3.908-14.125 8.29-21.697 8.97-1.21.096-2.251.108-3.102.037a.386.386 0 0 1-.353-.419.378.378 0 0 1 .418-.353c.808.068 1.809.056 2.973-.036 7.982-.718 20.062-5.091 21.016-8.412.074-.263.011-.384-.053-.46-.298-.348-1.409-.674-5.006-.26-4.757.567-19.238 2.292-26.941 4.36-4.032 1.084-4.956 3.008-6.634 6.5-1.956 4.03-2.638 8.63-2.8 9.944a.388.388 0 0 1-.385.34Z"/>
  <path fill="#1F1F23" d="M409.945 39.826a.395.395 0 0 1-.396-.388c0-.185.12-.338.292-.377 6.048-2.75 8.596-9.48 9.576-13.254a.387.387 0 1 1 .751.195c-1.02 3.92-3.683 10.924-10.064 13.79a.395.395 0 0 1-.159.034Zm38.125 58.923a.387.387 0 0 1-.379-.31c-1.169-5.777-3.53-11.7-7.021-17.607-3.717-6.293-7.78-11.014-9.87-13.268a.388.388 0 0 1 .569-.527c2.11 2.276 6.213 7.046 9.97 13.4 3.533 5.98 5.926 11.985 7.111 17.847a.388.388 0 0 1-.38.465Z"/>
  <path fill="#1F1F23" d="M448.395 159.064a.388.388 0 0 1-.221-.705c11.098-7.755 29.627-23.63 29.017-42.819-.751-23.1-27.965-32.27-36.287-34.53a.387.387 0 1 1 .204-.749c8.453 2.296 36.089 11.622 36.858 35.253.622 19.554-18.121 35.634-29.348 43.48a.384.384 0 0 1-.223.07Z"/>
  <path fill="#1F1F23" d="M450.04 124.416a.38.38 0 0 1-.388-.378c0-.041.007-.1.019-.138 3.068-9.419 6.959-14.692 11.563-15.672a.38.38 0 0 1 .46.299.386.386 0 0 1-.298.459c-4.253.905-8.05 6.141-10.984 15.14a.392.392 0 0 1-.372.29Zm-136.267 93.16c-2.958 0-5.885-1.392-7.356-2.735-.924-.843-1.31-1.673-1.085-2.335.209-.617.877-.977 1.982-1.073 4.06-.327 11.204-2.773 14.088-3.809a.387.387 0 1 1 .261.729c-3.617 1.301-10.283 3.53-14.283 3.852-.737.064-1.217.264-1.314.55-.09.264.093.801.874 1.514 1.867 1.703 6.253 3.503 9.755 1.948 4.933-2.188 5.685-3.261 6.061-6.361a.386.386 0 0 1 .431-.339.39.39 0 0 1 .339.432c-.429 3.551-1.587 4.789-6.517 6.976-1.035.459-2.137.651-3.236.651Z"/>
  <path fill="#1F1F23" d="M334.794 215.151c-4.504 0-8.74-1.767-11.929-4.976a16.39 16.39 0 0 1-1.649-1.964c-2.079-2.841-3.179-6.238-3.179-9.818 0-4.952 2.164-9.624 5.936-12.819a.387.387 0 1 1 .501.591 15.99 15.99 0 0 0-5.663 12.227c0 3.413 1.049 6.653 3.032 9.364.458.642.971 1.253 1.574 1.873 3.039 3.058 7.081 4.744 11.377 4.744 8.824 0 16.002-7.17 16.002-15.982 0-4.81-2.122-9.311-5.822-12.349a.388.388 0 0 1 .492-.599c3.879 3.187 6.103 7.906 6.103 12.948 0 9.243-7.524 16.76-16.775 16.76Z"/>
  <path fill="#1F1F23" d="M333.157 187.928c-3.483 0-6.521-.568-9.09-1.704-5.783-2.571-9.027-8.005-9.644-16.154-.214-2.801-.49-5.949-.791-9.368-3.179-36.163-9.097-103.477 29.852-113.005.176-.033 15.704-2.843 35.751-3.133.214.018.391.167.392.382a.387.387 0 0 1-.382.393c-19.977.287-35.446 3.087-35.6 3.114-38.28 9.364-32.4 76.248-29.242 112.18.301 3.423.578 6.573.792 9.378.594 7.841 3.684 13.058 9.186 15.503 5.049 2.232 12.028 2.182 20.739-.145 5.657-1.503 9.754-3.992 11.703-5.822a.387.387 0 1 1 .529.566c-2.016 1.892-6.238 4.464-12.033 6.004-4.508 1.208-8.571 1.811-12.162 1.811Z"/>
  <path fill="#1F1F23" d="M355.682 69.73a.385.385 0 0 1-.348-.22 61.89 61.89 0 0 0-2.694-4.991c-2.701-4.502-6.989-10.128-12.083-11.37-4.01-.957-7.086.29-8.924 1.036a.388.388 0 0 1-.292-.717c1.925-.781 5.145-2.09 9.397-1.07 5.356 1.306 9.79 7.096 12.566 11.723a63.324 63.324 0 0 1 2.728 5.055.387.387 0 0 1-.35.554Z"/>
  <path fill="#1F1F23" d="M340.486 78.475a.388.388 0 0 1-.363-.524c2.225-5.932 6.485-10.634 12.665-13.973 10.466-5.659 23.68-5.919 28.871-5.776a.387.387 0 0 1 .376.399c-.005.212-.176.368-.397.376-5.124-.15-18.179.112-28.482 5.682-6.009 3.248-10.149 7.811-12.306 13.563a.392.392 0 0 1-.364.253Zm.162-25.314a.386.386 0 0 1-.273-.662c2.585-2.587 17.63-5.04 39.261-6.401a.378.378 0 0 1 .412.362.388.388 0 0 1-.362.41c-20.802 1.31-36.379 3.791-38.763 6.177a.387.387 0 0 1-.275.114Zm25.668-17.176c-2.323 0-4.097-.385-4.836-1.375-.457-.614-.542-1.292-.247-1.963 1.84-4.167 18.238-7.575 24.158-8.166.214-.035.403.135.425.346a.387.387 0 0 1-.346.424c-7.229.722-22.016 4.287-23.528 7.708-.183.417-.134.795.16 1.188.928 1.248 5.511 2.498 25.694-3.16a329.388 329.388 0 0 0 13.877-4.276.39.39 0 0 1 .489.245.388.388 0 0 1-.246.49 329.469 329.469 0 0 1-13.909 4.288c-4.327 1.212-15.168 4.25-21.691 4.251Z"/>
  <path fill="#1F1F23" d="M385.43 25.252a.388.388 0 0 1-.379-.307c-.019-.091-.051-.215-.09-.372-.454-1.803-1.835-7.292 1.413-12.71 2.772-4.62 8.196-7.964 16.122-9.934 23.732-5.899 30.146 3.222 33.547 13.956a.388.388 0 0 1-.74.234c-2.208-6.98-6.321-19.976-32.621-13.438-7.719 1.918-12.982 5.142-15.644 9.58-3.084 5.143-1.762 10.397-1.327 12.122.042.17.077.305.098.402a.389.389 0 0 1-.379.467Zm6.445 14.446a.384.384 0 0 1-.276-.116c-1.001-1.021-4.253-4.635-4.086-8.239a.388.388 0 0 1 .388-.37h.019c.212.01.378.192.368.405-.156 3.376 3.193 6.974 3.865 7.662a.387.387 0 0 1-.278.658Z"/>
  <path fill="#1F1F23" d="M384.288 50.21c-.739 0-1.465-.115-2.145-.395-1.7-.7-2.804-2.313-3.284-4.788-.799-4.13.269-7.318 2.929-8.745 2.967-1.593 7.034-.514 10.358 2.753a.388.388 0 0 1-.543.553c-3.029-2.976-6.824-4.03-9.449-2.623-2.341 1.257-3.265 4.141-2.534 7.915.426 2.204 1.373 3.623 2.818 4.219 3.412 1.407 8.589-2.067 8.641-2.102a.388.388 0 0 1 .436.64c-.185.126-3.827 2.573-7.227 2.573Z"/>
  <path fill="#1F1F23" d="M382.661 45.34a.39.39 0 0 1-.328-.595c.256-.402 2.578-3.913 4.742-3.402a.388.388 0 0 1-.179.754c-1.406-.341-3.295 2.098-3.907 3.062a.388.388 0 0 1-.328.182Z"/>
  <path fill="#1F1F23" d="M389.165 44.61a.387.387 0 0 1-.363-.252c-1.169-3.13-4.689-3.545-4.725-3.55a.389.389 0 0 1-.345-.426.39.39 0 0 1 .425-.344c.164.018 4.032.463 5.371 4.049a.389.389 0 0 1-.363.523Zm148.047 340.243h-115.04a.388.388 0 0 1-.387-.388v-28.007c0-.213.173-.387.387-.387h115.041c.088 0 .175.031.244.088l18.505 15.023a.39.39 0 0 1-.021.618l-18.505 12.983a.409.409 0 0 1-.224.07Zm-114.653-.775H537.09l17.984-12.619-18-14.613H422.559v27.232ZM329.224 170.28a.387.387 0 0 1-.386-.355l-2.711-31.621a.388.388 0 0 1 .344-.419l12.617-1.377a.386.386 0 0 1 .428.357l2.509 32.688a.377.377 0 0 1-.098.289.394.394 0 0 1-.278.129l-12.415.31-.01-.001Zm-2.292-31.665 2.647 30.881 11.644-.291-2.447-31.883-11.844 1.293Z"/>
  <path fill="#1F1F23" d="M340.232 148.692a.389.389 0 0 1-.113-.759c.64-.194 2.619-.985 7.155-4.138 4.493-3.103 10.351-7.734 17.408-13.765a.388.388 0 0 1 .503.59c-7.078 6.048-12.955 10.695-17.469 13.812-4.459 3.1-6.532 3.989-7.371 4.243a.369.369 0 0 1-.113.017Zm.828 11.532a.387.387 0 0 1-.018-.775c1.923-.084 7.302-1.314 9.608-2.78 8.752-5.584 18.481-19.093 23.501-26.649a.388.388 0 0 1 .646.429c-5.054 7.606-14.858 21.212-23.731 26.872-2.45 1.556-7.944 2.812-9.988 2.901-.007.002-.012.002-.018.002Zm33.035 190.465-.043-.002a7718.423 7718.423 0 0 0-21.031-2.294.377.377 0 0 1-.376-.386c0-.214.185-.386.399-.386h.018c5.896.634 14.895 1.61 21.076 2.296a.387.387 0 0 1-.043.772Zm1.047-7.663a.545.545 0 0 1-.068-.005l-21.069-3.739a.388.388 0 0 1-.313-.449.379.379 0 0 1 .45-.315l21.068 3.739a.388.388 0 0 1-.068.769Zm-10.958 54.149a.36.36 0 0 1-.079-.008 991.705 991.705 0 0 0-15.911-3.145.386.386 0 0 1-.309-.452.382.382 0 0 1 .451-.309c.079.015 7.993 1.502 15.927 3.148a.387.387 0 0 1-.079.766Zm37.187.965h-.004c-12.79-.112-30.688-1.182-30.868-1.194a.387.387 0 0 1-.363-.41c.013-.213.151-.366.411-.364.178.011 18.055 1.082 30.827 1.192a.388.388 0 0 1-.003.776Zm-56.44-186.368a.389.389 0 0 1-.145-.747l9.288-3.741a.388.388 0 0 1 .29.719l-9.288 3.741a.393.393 0 0 1-.145.028Zm78.175-143.758c-2.19 0-4.41-.536-6.475-1.661l-6.571-3.583a.388.388 0 1 1 .372-.68l6.571 3.582a12.673 12.673 0 0 0 17.009-4.657 33.373 33.373 0 0 0 4.423-21.073l-2.265-18.288a.388.388 0 0 1 .338-.432.382.382 0 0 1 .432.337l2.265 18.288a34.156 34.156 0 0 1-4.527 21.564 13.444 13.444 0 0 1-11.572 6.603Zm-27.965 109.613c-21.047 0-36.965-2.283-37.238-2.322a.389.389 0 0 1-.328-.44.384.384 0 0 1 .439-.326c.47.068 47.374 6.787 86.821-2.992a.387.387 0 0 1 .47.283.39.39 0 0 1-.284.47c-16.646 4.126-34.612 5.327-49.88 5.327Zm75.925 223.647a.388.388 0 0 1-.382-.455l2.903-16.421a.385.385 0 0 1 .448-.314.389.389 0 0 1 .315.449l-2.903 16.421a.387.387 0 0 1-.381.32Zm19.944 0c-.023 0-.045-.003-.068-.006a.388.388 0 0 1-.314-.449l2.903-16.421a.388.388 0 0 1 .762.135l-2.903 16.421a.386.386 0 0 1-.38.32Z"/>
  <path fill="#1F1F23" d="M423.363 72.44c-.559 0-9.832-.055-13.979-3.538a.387.387 0 0 1 .499-.594c3.333 2.8 10.517 3.266 12.79 3.342-.247-.495-.49-1.225-.345-2.023.163-.898.771-1.657 1.805-2.258a.387.387 0 0 1 .53.14.389.389 0 0 1-.141.53c-.826.48-1.308 1.06-1.43 1.722-.197 1.061.577 2.037.585 2.047a.384.384 0 0 1 .048.41c-.065.14-.17.237-.362.222Z"/>
  <path fill="#1F1F23" d="M442.071 177.693a.386.386 0 0 1-.308-.622c3.15-4.142 4.866-11.323 6.251-18.467 2.113-13.175 2.425-27.343 1.641-34.523-2.379-21.673-12.11-36.088-16.183-41.28a62.739 62.739 0 0 1-3.097-4.281l-1.532-2.334a8.74 8.74 0 0 0-5.545-3.752.388.388 0 0 1 .154-.76 9.53 9.53 0 0 1 6.04 4.087l1.532 2.334a60.745 60.745 0 0 0 3.058 4.228c4.114 5.244 13.942 19.802 16.343 41.655.791 7.25.479 21.507-1.647 34.761-1.407 7.248-3.153 14.533-6.398 18.801a.39.39 0 0 1-.309.153Zm-12.26-129.101c-1.539 0-3.147-.532-3.246-.566a.387.387 0 0 1 .246-.735c.897.3 3.462.919 4.555.176.323-.22.491-.548.516-1.003.144-2.681-2.143-3.742-2.24-3.786a.39.39 0 0 1-.196-.511.389.389 0 0 1 .511-.196c.028.012 2.872 1.311 2.699 4.535-.037.704-.325 1.244-.854 1.603-.53.359-1.253.483-1.991.483Zm-9.753-11.261a.386.386 0 0 1-.305-.158c-.13-.17-.079-.424.091-.555.252-.195.906-.22 1.945-.076.212.029.36.224.331.437a.382.382 0 0 1-.437.33c-.603-.082-1.258-.106-1.407-.052a.358.358 0 0 1-.218.074Zm13.323-.987a.388.388 0 0 1-.137-.75c.692-.263 1.715-.042 1.829-.016a.387.387 0 0 1-.171.756c-.25-.057-.981-.17-1.384-.016a.371.371 0 0 1-.137.026Zm-2.008-5.724a.387.387 0 0 1-.04-.773 19.013 19.013 0 0 1 3.697 0 .387.387 0 1 1-.088.77 18.824 18.824 0 0 0-3.53 0c-.013.003-.025.003-.039.003Zm-14.096 2.07a.388.388 0 0 1-.215-.71c1.881-1.26 3.815-1.014 3.897-1.003.212.028.36.223.332.435a.402.402 0 0 1-.435.333c-.02-.004-1.734-.212-3.364.88a.388.388 0 0 1-.215.065Zm10.851 26.064a1.68 1.68 0 0 1-.281-.025c-.644-.114-1.276-.702-1.931-1.796a2.73 2.73 0 0 1 .12-2.963c.582-.834 1.511-1.221 2.482-1.034.61.117 1.072.415 1.3.84.139.255.254.677.022 1.24-.277.674-.379 1.334-.468 1.917-.114.743-.203 1.331-.634 1.64a1.03 1.03 0 0 1-.61.181Zm-1.548-2.219c.69 1.153 1.175 1.392 1.402 1.431.145.025.248.02.304-.023.166-.118.245-.632.32-1.128.092-.595.205-1.334.519-2.095.093-.226.098-.42.014-.577-.115-.212-.394-.375-.766-.447-.66-.13-1.297.14-1.7.718a1.956 1.956 0 0 0-.093 2.121Zm137.034 344.739H.387a.388.388 0 0 1 0-.775h563.226a.388.388 0 0 1 .001.775Z"/>
</svg>
