<svg xmlns="http://www.w3.org/2000/svg" width="34" height="19" fill="none" viewBox="0 0 34 19">
  <path fill="#000" d="M31.344 0a2.648 2.648 0 0 0-2.657 2.639c0 .3.062.582.153.85l-6.474 5.539a2.642 2.642 0 0 0-3.5.17l-5.072-2.524a2.642 2.642 0 0 0-2.638-2.452A2.648 2.648 0 0 0 8.5 6.862c0 .398.096.772.255 1.111l-5.171 5.924c-.29-.108-.6-.175-.928-.175A2.648 2.648 0 0 0 0 16.362 2.648 2.648 0 0 0 2.656 19a2.648 2.648 0 0 0 2.656-2.639 2.61 2.61 0 0 0-.197-.991l5.255-6c.25.076.51.13.786.13.773 0 1.463-.334 1.948-.858l4.961 2.471a2.647 2.647 0 0 0 2.654 2.61 2.648 2.648 0 0 0 2.656-2.64c0-.047-.011-.09-.014-.137l6.91-5.897A2.647 2.647 0 0 0 34 2.64 2.648 2.648 0 0 0 31.343 0Z"/>
</svg>
