<svg xmlns="http://www.w3.org/2000/svg" width="1268" height="978" fill="none" viewBox="0 0 1268 978">
  <path fill="#fff" d="m86.711 711.5 10.26 8.549 159.025-32.489 46.169 71.818 10.259-5.13 80.368-124.826-5.13-11.969-5.13-22.23 3.42-5.13h22.229l8.55-3.42 47.879-51.298 10.259-10.26 5.13-5.129 47.879 20.519 13.679 22.229-3.42 17.1 128.247 34.199 17.099-15.39 107.727-92.337 5.13-8.55 106.017-13.679 191.513 53.008 49.59-83.787-17.1-25.65-6.84-30.779-13.68-13.679-95.76-29.069-35.906 3.419 18.81-32.489 6.84-13.679 3.416-68.398v-25.649l-23.936-83.788-8.55-85.497-11.969 3.42-152.186 18.81h-54.718l-11.97-5.13-88.917-11.97-15.389-8.55-27.36-5.13-126.536 35.909-29.069 136.796-11.97 11.969-56.428 73.528-1.71 8.55-18.809 18.809-66.688 25.65-5.13-8.55-11.97-10.26-116.276-6.84-10.26 94.048-102.597-6.84-42.749 39.329 5.13 17.099 47.879-3.42 51.298 123.116-49.588 25.65-39.329 13.679v10.26h22.23l66.687-34.199h5.13l3.42 6.84h6.84l25.649-11.97 71.818-39.329 11.97 15.39L86.711 711.5Z"/>
  <path fill="#7C7C7C" stroke="#fff" stroke-linecap="round" stroke-linejoin="round" d="M531.913 118.251c-4.021-2.285-7.962-4.369-9.352-4.863-3.179-.267-10.566-2.285-15.109-5.29-1.162-.789-3.46-1.857-5.691-2.873-6.679-3.126-10.861-5.263-12.33-8.71-.748-1.723-4.368-4.609-5.771-4.822-2.352-.348-4.983-.668-6.105-.829L449.728 215.76c6.011-2.031 16.926-5.731 19.303-6.399l1.47-.428c4.863-1.416 16.298-4.729 22.216-5.597 3.032-.441 6.372-.975 9.418-1.456 3.406-.561 6.346-1.015 8.296-1.269 3.006-.388 15.63-1.296 20.72-1.683.187-10.835.694-31.901 1.95-36.084.388-1.269.628-2.378.882-3.393.668-2.792 1.296-5.437 3.433-8.429 1.096-1.537 3.353-4.035 5.571-6.399l-15.47-3.794a4.762 4.762 0 0 1-3.179-2.605 4.82 4.82 0 0 1 0-4.115l7.575-15.857Zm24.213 29.616-2.378-.575c-3.192 3.273-7.32 7.602-8.536 9.325-1.002 1.403-1.296 2.565-1.897 5.077-.294 1.162-.588 2.458-1.029 3.9-.721 2.739-1.402 21.254-1.603 37.551l-.013 1.269c.307.748.615 1.456.868 1.95 1.056 2.124.962 4.596.882 6.987-.053 1.269-.093 2.565.04 3.5.214 1.443 1.51 6.346 2.792 10.968 1.71-.655 3.634-1.269 5.424-1.47.975-.12 1.536-.32 2.378-.628 1.496-.534 3.326-1.202 6.799-1.202 2.124 0 3.754.254 4.943.428.454.08 1.002.147 1.296.173.401-.294 1.095-.962 1.59-1.456 1.857-1.843 4.181-4.114 7.521-4.114 2.177 0 9.017-.455 10.821-.802.881-.174 15.269-1.603 19.664 1.029 2.391 1.442 10.326 7.28 11.221 7.935l5.264 4.141 11.395.655.294-.762.294.12c.187-.213.427-.4.654-.561.268-.187 6.613-4.715 10.861-7.067 3.941-2.177 6.493-2.217 9.712-2.244 1.243-.013 2.645-.013 4.502-.147 2.458-.173 5.037-.147 7.187.588l2.752-.561.174.882c4.021-.455 9.138-1.069 10.647-1.323.895-.147 2.953-.895 4.983-1.737.307-2.377.761-5.624 1.069-7.12.574-2.872 2.431-6.225 2.792-6.853a4.768 4.768 0 0 1 3.406-2.351 4.793 4.793 0 0 1 3.968 1.189l1.723 1.576c2.084-1.736 3.808-2.778 5.197-3.126 1.403-.347 4.889-1.376 6.105-1.736.668-.187 1.363-.254 2.044-.147l8.616 1.229a29.99 29.99 0 0 0 4.155-2.017c2.752-1.577 5.33-4.022 5.798-4.81.254-.494.721-1.295 1.296-2.244.761-1.242 2.524-4.141 2.698-5.21 0-1.63.615-3.5 1.269-5.49.321-1.016.868-2.605 1.002-3.487-1.055-1.71-1.63-3.794-1.937-5.664l-1.242-3.3c-2.285-1.295-3.941-3.673-5.037-5.784l-7.414.614a4.822 4.822 0 0 1-3.794-1.376l-.842-.841-1.59 1.456a4.796 4.796 0 0 1-3.713 1.229 4.75 4.75 0 0 1-3.393-1.95l-.668-.922c-1.456.053-3.126-.321-4.983-1.096a26.82 26.82 0 0 0-1.363-.521c-.801 2.018-2.07 4.155-4.021 5.357-1.643 1.016-3.54 1.283-5.383.762-3.06-.882-8.831-3.66-10.688-4.582-2.511-.655-4.982-2.431-5.691-5.197h-23.445a4.773 4.773 0 0 1-4.034-2.204 4.771 4.771 0 0 1-.308-4.596l.401-.881c-.828-.014-1.496.227-2.752.761-1.269.521-2.818 1.162-4.822 1.456-.455.054-.561.121-.869.268-2.298 1.135-4.235 1.095-7.147-.147a92.609 92.609 0 0 1-1.95-.882c-.588-.267-1.403-.655-1.951-.868-2.07 1.135-5.223 1.99-7.721 2.565l-1.63 2.177a4.773 4.773 0 0 1-4.943 1.777c-.4-.094-9.752-2.311-13.96-3.741-2.351-.788-3.794-1.817-4.822-2.565-1.016-.721-1.136-.801-2.245-.801-4.194 0-6.853-.668-8.001-1.056-1.203-.254-3.607-1.015-5.251-3.139-1.242-1.63-1.736-3.634-1.442-5.785.4-2.818 2.431-6.131 4.074-8.443l-2.111-4.194-12.531 9.084-8.843 5.904.147.147-1.844 1.844-.881 3.902Zm179.853 82.248c-1.336-1.135-2.833-2.244-3.46-2.551-1.296-.361-3.033-1.096-4.996-1.951-1.537-.668-3.126-1.362-4.209-1.723-2.484-.828-5.918-1.683-8.002-2.111-2.391-.481-7.333-1.817-7.547-1.87a4.777 4.777 0 0 1-3.367-3.393 4.926 4.926 0 0 1 .134-2.886 45.034 45.034 0 0 0-2.512 2.338 4.786 4.786 0 0 1-6.265.441 456.66 456.66 0 0 0-.975 7.16 4.808 4.808 0 0 1-2.739 3.754c-1.068.495-6.626 3.006-9.805 3.541-1.724.294-6.666.881-10.474 1.322-.04.935-.32 1.857-.881 2.645-.695.935-1.684 1.603-2.792 1.857l.347.401c.788.935 1.162 2.124 1.095 3.353l-.494 8.603 10.674-3.086c2.017-.588 4.155.214 5.33 1.937l2.725 4.061a4.68 4.68 0 0 1 .789 2.966l-.147 2.178 4.008.427a4.793 4.793 0 0 1 4.288 4.769v10.834c0 1.55-.748 2.993-2.018 3.888 0 0-1.162.962-1.162 2.431 0 2.204 1.683 7.762 2.872 11.008.014.054.04.134.081.187l3.446 10.781c.254.347.935 1.189 2.017 1.643 3.14 1.336 4.476 4.181 4.997 6.84a4.79 4.79 0 0 1 4.314 2.925l3.487 8.296c1.67 2.859 6.306 11.075 6.8 15.63.294 2.659 1.336 6.84 1.91 8.924 1.109 1.71 3.66 5.691 4.555 7.909.321.801.455 1.629.428 2.458l47.304-26.451a135.976 135.976 0 0 1-4.208-5.357c-2.859-2.699-4.596-6.893-2.352-10.674.749-1.269 1.67-2.177 2.338-2.859l.08-.08c-.08-.294-.147-.561-.213-.801-2.886-1.243-6.226-3.22-8.937-7.548-.495-.802-.936-1.55-1.296-2.285h-1.229v-2.738l-2.124-4.035 1.683-.881v-2.351h.454v-4.863l-2.819-8.844-5.864-11.301-7.281-8.136a4.767 4.767 0 0 1-1.189-2.645l-.828-6.933-2.391-5.197a4.769 4.769 0 0 1-.441-2.017v-4.609l-3.139-5.331ZM282.432 374.469c-.655.04-1.336.054-2.044.08-1.51.04-4.061.094-4.716.628-2.257 1.911-3.807 3.5-5.156 5.29-.521.668-.869 1.109-1.136 1.443-.387.481-.401.481-1.069 2.017-.761 1.737-1.589 2.726-2.124 3.367-.387.454-.454.561-.627 1.91-.495 4.021-1.55 9.057-1.844 10.394.401.975.588 1.723.721 2.244.014.08.041.134.054.214.08.093.294.32.668.694l.668.615c3.66 3.393 6.345 5.958 7.628 8.309.361.655.695 1.229 1.029 1.777.708 1.189 1.442 2.431 2.244 4.195.267.574.628 1.189 1.069 1.87.975 1.576 2.164 3.487 2.725 6.132 1.469 1.63 1.803 3.5 1.803 5.931v9.044c.294.134.575.254.869.388.561.254 1.001.481 1.335.668.628 0 1.497-.014 2.512-.054 2.565-.053 5.998-.133 8.336-.133 2.124 0 4.863-.748 7.281-1.403.935-.254 1.843-.494 2.658-.695.093-.053.294-.427.294-.427a4.783 4.783 0 0 1 4.823-3.754l5.023.173 8.71-1.536 5.611-1.403c-.054-.521-.134-.935-.187-1.375-.187-1.189-.388-2.418-.562-5.024-.253-3.58.174-5.156.722-6.679.147-.428.214-.574.254-.975.347-2.725.828-6.373 3.526-9.365l-42.762-50.563.013.361 1.056 4.555c1.028 2.204 1.148 3.433 1.162 3.981.628 4.809-2.338 6.613-3.634 7.161-2.204.935-4.101.387-5.116.08-.615-.054-1.016-.175-1.817-.135Zm157.965-47.365 42.441 5.116 4.609-1.095.401 1.71.748.093 1.817.134-.441-5.264a4.738 4.738 0 0 1 1.322-3.713 4.74 4.74 0 0 1 3.661-1.47l9.097.388.494-.388-.293-1.99 1.629-.227v-.147l.882.013.962-.134 2.779-2.164 1.229 1.59 9.484-1.363 5.023-1.67a5.073 5.073 0 0 1 1.67-.253l7.762.253c-.521-2.992-1.109-6.398-1.336-7.788-.628-3.794.494-10.967 1.536-14.053.588-2.418 1.109-18.917 1.109-22.443 0-2.285.762-12.758.895-14.655 0-1.737.08-11.035 1.002-15.684.321-1.643-.935-4.408-1.897-5.771l-2.752-3.887 1.937-1.403c-1.269-4.515-2.872-10.473-3.179-12.664-.254-1.804-.187-3.62-.134-5.223.04-.842.08-2.071.013-2.592-.293-.574-.574-1.269-.881-1.95-6.199.454-17.794 1.322-20.359 1.643-1.777.227-4.783.708-7.962 1.202-3.099.494-6.506 1.055-9.592 1.496-5.263.748-16.619 4.061-20.893 5.304l-1.51.441c-2.258.654-14.455 4.769-20.893 6.946l-13.306 50.232a4.144 4.144 0 0 1-.214.614c-.053.147-.133.321-.187.521 1.136.094 2.285.094 3.006.094 2.431 0 10.647.387 13.92 5.303 1.991 3.006 3.927 7.067 1.029 11.89-.976 1.79-8.616 19.221-14.628 33.008Zm-99.69 88.335c-.722.722-.922 2.084-1.189 4.235-.174 1.443-.521 2.391-.748 3.033-.187.534-.321.895-.187 2.752.147 2.217.307 3.192.481 4.248.147.975.32 2.07.48 4.008.094 1.189.147 1.269.695 1.977.454.614 1.069 1.442 1.71 2.685.214.427.321.534 1.096 1.135.841.668 2.017 1.59 3.259 3.26 1.47 1.95 1.683 2.258 4.195 3.166 1.403.494 2.859.895 4.034 1.189l.014-.053h.04c1.456-2.565 3.233-5.598 4.636-7.655l-.308-.321 1.51-1.456c.053-.975.214-2.471 1.229-4.368.481-.895.561-1.55.708-3.353.053-.668.12-1.363.214-2.151.227-1.844.213-2.752.173-3.794-.013-.428-.013-.842-.013-1.296 0-2.044.882-5.651 1.269-7.08a4.737 4.737 0 0 1 .668-1.47l3.807-5.65 1.363-4.502-9.993-10.153c-.521.975-1.189 1.977-2.551 3.54-.748.842-1.243 1.496-1.71 2.071-.922 1.189-1.804 2.311-3.58 3.847-.521.441-.869.975-1.336 1.71-.842 1.269-1.977 2.992-4.195 4.248-.054.04-.12.08-.174.12l.321.415-3.834 3.232a23.73 23.73 0 0 1-2.084 2.431Zm95.894-77.186-.521-.228-15.63 39.049.147.053-1.109 2.832 26.317 20.106c2.739-.829 7.161-2.298 9.539-3.621 1.295-.721 2.925-4.007 3.566-6.479.094-.36.228-.721.401-1.055l14.802-28.281c.708-1.723 4.248-10.286 6.065-13.466.213-.668.12-2.832-.227-5.29l-1.644-.12.041-.441-40.933-4.943-.814 1.884Z"/>
  <path fill="#7C7C7C" stroke="#fff" stroke-linecap="round" stroke-linejoin="round" d="M716.348 354.839a8.793 8.793 0 0 0 1.189-.388 123.404 123.404 0 0 0-2.592-4.101 5.215 5.215 0 0 1-.614-1.336c-.08-.267-1.911-6.759-2.418-11.181-.214-1.817-3.1-7.722-5.691-12.103a3.813 3.813 0 0 1-.294-.575l-2.245-5.33-1.001.093a4.749 4.749 0 0 1-3.928-1.456 4.753 4.753 0 0 1-1.282-3.981c.133-.962.08-2.244-.08-2.912-4.182-2.044-6.039-5.611-6.239-6.012a2.4 2.4 0 0 1-.267-.694l-3.581-11.208c-.654-1.777-3.433-9.619-3.433-14.214 0-3.847 1.71-6.639 3.166-8.336v-4.515l-4.315-.455a4.776 4.776 0 0 1-4.274-5.076l.32-4.903-13.653 3.941a4.74 4.74 0 0 1-4.328-.868 4.91 4.91 0 0 1-1.803-4.022l.788-13.479-1.056-1.269a4.841 4.841 0 0 1-1.028-3.927l.895-4.983c0-.053.04-.093.04-.147-1.269.054-2.311.054-3.22.08-2.778.04-3.353.04-5.169 1.056-2.659 1.469-6.479 4.061-8.51 5.49l-1.189 4.729-.588-.147-14.534 39.261 4.101.521a4.8 4.8 0 0 1 4.194 4.755v7.682c0 .267.214.748.588 1.576.441 1.002 1.016 2.218 1.497 3.888.44 1.509.935 2.297 2.605 4.809.627.935 1.376 2.044 2.257 3.433 1.269 1.99 1.71 2.204 2.779 2.725 1.002.481 2.338 1.136 3.981 2.552 3.62 3.099 4.409 6.839 3.941 9.511.173 5.023.36 13.065-.12 15.403-.094.935.895 3.887 1.375 5.29l.294.842c.495 1.509 3.394 5.343 7.495 8.616.521.428.921.668 1.189.802a4.854 4.854 0 0 1 3.166-.401 4.76 4.76 0 0 1 3.62 3.527l1.51 6.064c1.95 2.205 6.065 7.188 7.414 11.209a471.885 471.885 0 0 0 2.819 8.068l.614.695 14.281-6.8 3.22-2.685.48.575 13.987-9.218-.227-.428 1.536-.868-1.015-3.059a4.77 4.77 0 0 1 .321-3.794c.681-1.109 1.749-1.975 3.032-2.322Zm-105.401-68.808 2.391-.214.668-5.33 1.736.213 14.361-38.781-9.952-.575a4.724 4.724 0 0 1-2.686-1.015l-6.318-4.983c-2.993-2.204-8.31-6.051-10.113-7.2-2.338-.615-11.208-.388-13.118-.014-2.592.521-9.231.922-12.023 1.002-.401.321-1.029.935-1.47 1.376-1.002 1.002-2.151 2.111-3.5 2.926-2.859 1.723-5.464 1.322-7.548 1.002-1.028-.147-2.11-.321-3.5-.321-1.776 0-2.431.254-3.526.628-1.069.387-2.418.882-4.462 1.135-1.069.134-2.565.655-3.968 1.229l.267.895-.04.014c.401 1.803.561 3.794.147 5.798-.668 3.313-.801 11.221-.801 13.986 0 .121 0 .227-.014.348-.347 4.649-.895 12.597-.895 14.12 0 .214-.267 21.481-1.603 25.476-.761 2.311-1.456 7.788-1.162 9.458.267 1.629 1.029 6.051 1.603 9.311 1.63.08 3.54.307 5.691.842 3.099.761 4.756 1.843 5.958 2.605 1.029.654 1.336.868 3.273.868 4.649 0 23.365 1.322 32.062 1.95l1.67-8.082c.093-.427.227-.828.427-1.202l12.664-24.861c.695-1.483 2.151-2.458 3.781-2.604Zm-41.723 135.77a53.528 53.528 0 0 1 2.244 1.95l8.697-7.721c.094-.081.174-.147.267-.228 0 0 7.722-5.904 11.342-8.616 4.542-3.406 7.241-4.008 12.411-4.943 4.715-.868 15.095-.347 18.635-.133l-14.788-69.906-8.069.961-.267 1.243-3.767-.788-3.701.441-.147-1.23-1.763-.36.053-.267c-10.994-.789-26.317-1.844-30.111-1.844-4.408 0-6.439-1.069-8.47-2.378-.881-.574-1.536-.975-3.085-1.376-.789-.187-1.51-.32-2.178-.427l-1.296 12.691c1.643 8.122 2.245 13.693 1.737 16.605.654 2.418 4.769 9.365 6.372 12.05 1.029 1.736 1.777 2.992 2.178 3.794 1.589 3.166 1.095 9.311-1.456 18.248-.04 1.069 1.055 4.181 2.297 6.505.308.575.495 1.203.535 1.857 0 .054.441 5.157 1.269 8.844.708 2.739 8.656 13.024 11.061 15.028Z"/>
  <path fill="#7C7C7C" stroke="#fff" stroke-linecap="round" stroke-linejoin="round" d="m564.094 430.35.708.361.014-.04c-.561-.494-1.149-1.015-1.723-1.51-2.926-2.458-12.999-14.614-14.268-20.265-.721-3.313-1.189-7.334-1.363-9.151-1.469-2.952-3.794-8.537-2.645-12.624 1.51-5.291 2.245-10.193 2.031-11.663-.321-.614-1.055-1.817-1.737-2.992-6.479-10.915-8.536-15.283-7.521-18.77.187-1.776-.801-8.389-1.87-13.559a5.322 5.322 0 0 1-.08-1.456l1.282-12.504-8.483-.267-4.609 1.536a4.466 4.466 0 0 1-.841.187l-7.722 1.109-1.242 56.442c.841 2.458.454 5.664-2.338 8.47-1.603 1.603-4.075 4.983-4.889 6.145a4.034 4.034 0 0 1-.535.628c-3.086 3.086-6.238 6.719-6.773 7.788-.895 1.803-1.763 3.5-1.763 4.195 0 1.549-.762 4.582-2.285 9.004l-.147 4.515-1.002-.04-1.669 6.88h.053v.12c1.536.147 3.26.321 4.849.494.962.12 1.857.187 2.752.267 2.993.268 6.065.535 10.527 1.644 4.101 1.028 31.541 7.761 44.606 10.954l1.282-.08c.588-1.296 1.283-2.859 1.817-4.289a38.88 38.88 0 0 1 1.296-2.992l-.093-.053.307-.588h-.014l.081-.134 4.007-7.762Zm52.975 145.927c1.296 1.456 2.031 2.779 2.472 3.741h10.887l9.792-.12.481-.147-.294-3.086c-.868-3.099-2.217-8.069-2.391-9.378-.093-.628-.267-2.565-.454-4.555-.147-1.603-.361-4.035-.441-4.542-.147-.922-.053-1.737.013-2.605.134-1.336.308-2.873-.454-4.075a650.858 650.858 0 0 0-4.195-6.573c-.213-.307-.36-.654-.494-1.001l-1.015-2.859-2.245-4.035c-1.188-1.496-2.778-3.233-4.421-4.288-.121-.08-.228-.147-.321-.214a6.712 6.712 0 0 1-1.804.054c-1.269-.094-1.736-.014-2.618.133-.521.081-1.055.174-1.71.227-.962.094-2.485.121-4.248.134-1.536.013-4.074.04-4.769.147a21.511 21.511 0 0 1-5.437.668c-2.992 0-6.666-2.084-8.67-3.58-2.031.614-4.689.614-8.336.561-1.055-.014-2.472-.04-2.912 0-1.109.254-2.993.187-5.518-.147l-2.551 1.776-1.269-1.803-2.886.588-4.769 2.217-7.16 4.289c-.134.08-.268.147-.428.227-5.464 2.565-11.582 5.517-12.931 6.238-.962.788-5.13 4.315-9.231 7.788.213.388.347.749.347 1.069 0 2.391 2.391 8.363 2.992 11.956.187 1.163.521 2.151.789 3.06 4.074 1.496 7.721 2.778 8.83 3.059 1.362.133 2.752.788 5.21 1.91 1.296.615 3.927 1.817 5.023 2.084 1.055-.12 2.311-.053 4.275.054 1.469.08 4.381.227 5.691.04 1.496-1.416 3.433-2.285 5.17-3.046.627-.294 1.576-.695 2.017-.962.147-.227.294-.441.401-.628.828-1.322 1.937-3.126 5.076-4.061 2.485-.748 8.83-1.323 10.727-1.469 2.351-.187 13.426.12 15.604.173a4.82 4.82 0 0 1 3.7 1.911l2.151 2.952c.921 1.229 1.362 2.177.935 3.58.053.374.28 1.309 1.389 2.538Zm76.742-132.829c.454-1.376.869-2.752 1.016-3.526.868-4.315 4.715-6.092 6.799-7.067.254-.121.495-.227.722-.348 2.044-1.015 4.916-1.055 7.508-.761l1.068-.895a4.746 4.746 0 0 1 3.621-1.069c1.576.187 3.299.307 4.755.347a36.474 36.474 0 0 0-2.685-.975 3.845 3.845 0 0 1-.895-.4l-10.393-5.879a4.825 4.825 0 0 1-2.432-3.9c-.093-1.724-.921-16.913-.921-19.251-.041-.975-1.27-4.114-1.991-5.998-.307-.761-.588-1.536-.882-2.257-.454-1.243-1.629-3.06-2.832-4.73l-14.588 6.934a4.81 4.81 0 0 1-5.624-1.149l-3.62-4.061a4.935 4.935 0 0 1-.922-1.55c-.08-.214-1.843-5.076-3.193-9.151-.708-2.111-4.114-6.412-6.198-8.656-.561-.588-.935-1.323-1.136-2.084l-.761-3.1c-1.857-.387-3.754-1.362-5.705-2.912-5.076-4.061-9.351-9.325-10.594-13.078l-.267-.802c-1.109-3.259-2.351-6.946-1.683-10.246.187-1.296.12-8.203-.093-13.814a4.737 4.737 0 0 1 .093-1.148c-.053-.134-.254-.441-.695-.829-.694-.587-1.188-.841-1.91-1.189-2.164-1.055-4.181-2.244-6.679-6.198-.829-1.296-1.537-2.351-2.124-3.233-1.804-2.685-2.993-4.462-3.848-7.508-.294-.975-.628-1.736-1.002-2.565-.654-1.416-1.456-3.179-1.456-5.53v-3.46l-2.151-.267-.654 1.736-.842-.307-.013.013c-.762 1.416-2.178 2.378-3.794 2.512l-2.338.214-11.168 21.922-1.242 6.038 9.231-1.095a4.789 4.789 0 0 1 5.25 3.767l16.725 79.099a4.78 4.78 0 0 1-.708 3.66 4.783 4.783 0 0 1-3.126 2.044l-4.983.895c-.387.08-.788.093-1.162.08-5.023-.32-14.174-.654-17.353-.08-4.689.868-5.651 1.149-8.389 3.179-3.313 2.485-10.073 7.642-11.128 8.443l-8.043 7.147-4.755 4.756c5.343 2.699 10.246 5.09 11.475 5.557.628.147 1.296.214 1.777.254l35.642-9.685c1.817-.708 10.166-3.847 15.977-3.847 6.84 0 11.048 4.368 12.117 5.624l1.603 1.603h5.25c1.136 0 2.218.401 3.086 1.135l5.878 4.983a4.804 4.804 0 0 1 1.63 4.449l-.187 1.149 18.903 5.089a120.9 120.9 0 0 0 3.527-1.776c-.388-1.002-.388-2.111-.04-3.22.534-1.576 1.949-2.672 3.552-3.033Z"/>
  <path fill="#7C7C7C" stroke="#fff" stroke-linecap="round" stroke-linejoin="round" d="m651.609 479.46.147-.08c.174-.427.401-.922.762-1.469 1.376-2.071 4.942-4.449 6.853-4.917.721-.187 1.509-.227 3.233-.307.935-.04 2.658-.133 3.179-.227.187-.053.441-.133.721-.214l.121-1.416a4.793 4.793 0 0 1 1.376-3.005l3.433-3.434c.04-.187.08-.387.133-.561a4.715 4.715 0 0 1 2.873-3.139l.841-.321.227-1.269c.04-.227.121-.441.187-.654l-14.521-3.901c-2.378-.628-3.887-2.993-3.487-5.397l.455-2.739-2.458-2.084h-5.478a4.783 4.783 0 0 1-3.393-1.402l-3.166-3.166c-.134-.134-.267-.294-.401-.441-.04-.04-1.87-2.218-4.809-2.218-3.673 0-10.567 2.431-12.677 3.273a2.68 2.68 0 0 1-.521.174l-36.617 9.939c-.401.12-.828.173-1.269.173-.254 0-2.472-.013-4.769-.588-1.336-.32-6.146-2.604-14.281-6.746a30.083 30.083 0 0 0-.868 1.977c-1.029 2.779-2.458 5.771-3.18 7.281l.013.267h8.644a4.773 4.773 0 0 1 4.782 4.676l.842 36.309 2.818 1.803a4.767 4.767 0 0 1 1.871 2.258c.828 2.07 1.108 5.597-.789 8.75-.04.08-.12.387-.146.615-.321 1.496-1.19 5.477-6.974 6.185-.428.053-.802.08-1.189.093.094.348.187.695.307 1.002l3.888 5.557 1.336-.267.32 1.55c.762.093 1.403.147 1.724.134 1.108-.214 2.431-.214 4.782-.174 1.59.013 4.555.08 5.437-.147l.267-.12c2.739-1.149 4.849-1.363 7.521 1.055l.347.307c.842.722 2.726 1.737 3.487 1.937 1.069-.013 1.937-.133 3.046-.4 1.282-.321 3.166-.361 6.853-.401 1.269-.014 2.859-.014 3.393-.08.441-.04.802-.094 1.162-.147 1.002-.147 2.111-.321 3.928-.267 2.738-1.417 5.57.44 7.561 1.723 2.618 1.71 4.849 4.074 6.452 6.051l1.296-.721a4.786 4.786 0 0 1 2.017-.588l5.771-.361 11.476-1.229 2.351-.881a4.9 4.9 0 0 1 2.284-.268c.267.041.535.054.802.094l-.748-3.767a5.577 5.577 0 0 1-.094-1.149l.361-8.643a4.774 4.774 0 0 1 1.496-3.273l1.763-1.67-.04-1.63c-.32.08-.668.134-1.015.147l-9.926.361a4.676 4.676 0 0 1-3.433-1.283 4.884 4.884 0 0 1-1.536-3.326l-.147-4.208a196.168 196.168 0 0 0-1.71-4.649c-.481-1.203-.588-2.645-.721-4.863-.04-.588-.054-1.136-.121-1.47-.681-4.301 3.074-6.531 5.545-8.014ZM419.707 335.14a4.908 4.908 0 0 1-2.245.121l-19.53-3.674c-1.55 3.527-3.968 8.71-5.878 11.582-2.298 3.447-4.636 5.557-6.506 7.241-.615.561-1.202 1.068-1.763 1.63-.695.694-1.47 1.375-2.352 2.15-1.937 1.684-4.141 3.607-6.038 6.546-1.095 1.71-2.177 3.3-3.179 4.769-2.084 3.046-4.235 6.186-4.422 7.695-.321 2.685-2.124 7.935-3.5 11.703l1.843 1.683.174.174 12.317 12.49 2.378.708-.427 1.403 14.08 15.777 13.212-33.625-.227-.093.147-.388-.628-.48 1.737-2.298 18.462-46.141-1.63-.722-6.025 1.749Zm373.452 59.677 7.281-11.716-.347-8.362-.04-.348c-.014-.133-.441-4.635-2.218-8.215-2.218-4.422-7.588-14.749-7.641-14.842-2.592-5.33-5.878-11.435-7.829-14.428l-56.681 31.674.254.722-3.46 1.149-17.701 11.662c1.282 1.87 2.605 4.035 3.326 5.972.268.708.561 1.416.829 2.15 1.362 3.487 2.645 6.76 2.645 9.485 0 1.376.4 9.592.761 16.111l7.682 4.341c13.385 4.382 12.557 9.405 12.276 11.075-.841 5.05-3.58 6.533-6.572 7.722-2.352.935-6.533.868-10.207.521l-1.162.961a4.842 4.842 0 0 1-3.927 1.029c-1.443-.254-3.313-.387-4.061-.294-.228.12-.455.214-.708.321-.455.213-1.163.534-1.55.788-.615 2.618-2.151 6.893-2.338 7.388a4.227 4.227 0 0 1-.628 1.189c-.12 1.91-1.055 3.673-2.685 4.982-.614.495-1.469 1.029-2.458 1.603l21.281 2.552 37.017 4.061 29.336 2.699 1.069-19.905.895-19.398c0-.187.04-.387.053-.561.214-1.269.388-2.685.455-3.767a24.65 24.65 0 0 0-3.167-.628 4.774 4.774 0 0 1-3.713-2.778 4.823 4.823 0 0 1 .387-4.636l13.546-20.279ZM123.03 594.95c2.792.628 4.101 2.378 4.903 4.235 3.006-1.135 8.737-3.834 13.439-6.279l59.127-30.752c-1.603-2.926-1.269-6.84-.882-9.004l-4.141-76.893c-.013-.187 0-.36 0-.561.013-.227 0-.494 0-.761-.655.267-1.296.561-1.737.748-1.536.694-2.738 1.229-3.981 1.416-1.336.187-5.437.788-8.777-3.233-2.458-2.952-2.043-7.628-1.683-11.756l.08-.802c.04-.454.081-.801.094-1.068-.04-.054-.094-.12-.134-.174l-.04-.053c-1.336-.348-2.819-.935-4.595-2.525-3.754-3.367-3.3-6.493-2.619-8.537v-.013c.014-1.403.147-3.927.227-5.196l-.534-2.178-.975-.013.013-.722-5.864-1.509-.014.133-4.715-.801a72.22 72.22 0 0 1-1.897-.321l-2.913-.187.014-.307c-4.983-.868-12.491-2.164-15.897-2.859a668.517 668.517 0 0 1-3.701-.761c-2.738-.575-4.715-1.002-8.523-1.537a214.048 214.048 0 0 0-5.704-.721c-3.834-.454-7.788-.935-11.249-1.67-2.257-.481-4.822-.721-7.521-.975-2.752-.267-5.624-.535-8.51-1.096-2.163-.427-4.18-.227-6.932.04-2.752.254-6.186.575-10.674.308-5.437-.321-6.306-.121-7.829.267-.801.214-1.803.454-3.313.708-1.683.294-3.26.454-4.649.628-1.51.173-3.406.401-3.968.654h-.013l10.206 22.31 1.844-.121.307 4.81 1.029 2.244c16.378 35.454 39.743 85.819 41.692 89.358 1.135 1.724 1.643 3.193 2.151 4.649.36 1.056.748 2.151 1.456 3.541 1.843 3.673 1.91 7.868 1.977 10.941.013.828.013 1.576.08 2.204l.094 1.109c.173 2.043.267 3.179 1.055 6.145.868 3.193 1.843 4.769 3.059 6.76.494.801 1.857 3.005.561 9.818.174.094.363.226.576.359ZM750.41 77.109c.147.32.294.695.361 1.055.881 3.741-2.338 6.493-3.394 7.415-2.07 1.777-4.034 2.591-5.356 3.14 3.794 2.925 6.679 10.673 6.893 11.515-.014-.054-.04-.121-.054-.187.388 1.028 2.739 4.956 4.756 8.068 1.803 2.312 5.704 7.695 6.265 11.583.494 3.5-.962 8.803-1.737 11.301l.428 12.277c.013.575-.053 1.136-.254 1.683l-1.362 4.061c-.361 1.109-1.149 2.044-2.165 2.646.842 4.328.869 9.538-2.885 12.023-.441.293-.668.694-1.243 1.723-.667 1.229-1.589 2.912-3.393 4.341a22.49 22.49 0 0 1-2.965 1.937c.147 1.016.36 1.871.587 2.245 2.726 3.393 1.203 7.948 0 11.609-.307.895-.748 2.257-.801 2.725 0 3.006-1.857 6.305-4.075 9.952-.4.655-.748 1.203-.935 1.59-1.509 3.006-6.065 6.773-9.592 8.79-2.458 1.403-4.635 2.311-5.824 2.752l-1.242 1.737c-.121.147-.227.307-.361.441 1.47.387 2.966.828 4.315 1.269 1.496.494 3.273 1.269 4.996 2.017 1.242.534 3.126 1.363 3.7 1.496 2.432.615 5.624 3.126 7.895 5.13.401.347.722.762 1.002 1.229l4.062 7.241c.4.708.614 1.536.614 2.351v4.823l2.284 4.916c.214.454.348.935.401 1.456l.722 6.185 6.666 7.468c.267.307.494.628.694 1.002l6.319 12.196c.134.254.227.495.308.749l3.166 9.938c.147.481.227.962.227 1.457v2.725c5.343-2.752 8.175-4.115 9.725-4.809.08-.481.12-1.056.12-1.537 0-1.322.575-2.605 1.537-3.499a4.846 4.846 0 0 1 3.607-1.27l13.265.976-.32-13.252a4.708 4.708 0 0 1 1.362-3.46 4.81 4.81 0 0 1 3.433-1.443h6.346l-.267-7.695a4.767 4.767 0 0 1 3.099-4.649l3.62-1.363a4.8 4.8 0 0 1 4.556.655l1.803 1.363a4.826 4.826 0 0 1 1.911 3.66l.293 8.336 4.382-.134-.227-4.635a4.774 4.774 0 0 1 .628-2.605l1.803-3.166a4.917 4.917 0 0 1 2.244-2.018c.762-.347 7.628-3.313 10.995-4.288 4.114-1.189 8.87.054 11.435.722l.535.133c1.683.428 5.196 2.298 10.42 5.558a4.67 4.67 0 0 1 1.87 2.217l2.258 5.424c.213.494.32 1.028.36 1.576l.441 7.788.975 4.863h.134c1.87 0 3.58 1.095 4.368 2.819l.08.187 94.663-54.144-.187-.387.254-.121-18.168-44.817c-.081-.214-.147-.428-.214-.628-.615-2.458-2.418-9.378-3.447-12.144-.868-2.311-.841-4.408.081-6.185 1.362-2.618 3.927-3.313 5.303-3.673.214-.054.441-.121.655-.187 1.015-.521 2.591-2.071 3.981-3.46.013-.187.04-.361.053-.575.094-.975.214-2.298.829-3.834 1.068-2.658 2.872-3.66 3.834-4.101.347-.655.721-1.296 1.148-1.95l-3.219-1.283a4.778 4.778 0 0 1-3.006-4.448V50.418c-21.601 2.726-144.036 18.168-153.307 18.716-8.122.481-41.788.962-54.985 1.136l-.094 6.84.012-.001Z"/>
  <path fill="#7C7C7C" stroke="#fff" stroke-linecap="round" stroke-linejoin="round" d="m974.653 228.303-98.309 56.226a4.838 4.838 0 0 1-3.847.401c-1.283-.428-2.338-1.336-2.886-2.565l-.975-2.164h-.975a4.766 4.766 0 0 1-4.689-3.848l-1.804-9.044c-.04-.227-.08-.44-.08-.667l-.401-7.321-1.362-3.233c-2.699-1.643-5.664-3.326-6.533-3.634l-.481-.12c-1.296-.347-4.782-1.242-6.399-.788-1.897.534-5.878 2.178-8.349 3.233l-.321.561.388 8.096a4.782 4.782 0 0 1-1.269 3.459 4.812 4.812 0 0 1-3.367 1.537l-14.014.454a4.585 4.585 0 0 1-3.192-1.096c-.708.428-1.537.628-2.392.628l-6.385.027.32 13.64a4.667 4.667 0 0 1-1.496 3.58 4.73 4.73 0 0 1-3.66 1.296l-14.094-1.029c-.695 2.204-2.03 4.235-4.582 4.916-1.296.481-7.053 3.393-13.025 6.493 1.51 2.377 3.18 3.192 4.903 3.887 3.66 1.469 4.515 3.807 5.09 6.092.093.387.213.828.387 1.375 1.536 4.582-1.403 7.548-2.685 8.831.227.213.454.454.628.694 3.086 4.182 6.746 8.51 7.855 9.245 2.512 1.683 6.573 8.256 12.05 19.517.147.307 5.397 10.366 7.654 14.855 1.136 2.258 1.871 4.649 2.352 6.68h.187c2.217-.308 4.782-.521 6.612-.214 3.166.534 4.596 2.084 5.571 3.567.053.08.094.147.147.227.895.521 1.857.882 3.059 1.336a40.38 40.38 0 0 1 3.674 1.536c.828.134 3.046-.133 4.408-.294 2.926-.347 5.464-.654 7.629.214.721.254 2.952-.307 3.807-.534.361-.361.882-1.069 1.095-1.47a4.812 4.812 0 0 1 3.367-2.351l2.725-.454c1.376-.227 2.819.147 3.887 1.069a4.814 4.814 0 0 1 1.684 3.66v8.002l5.931.173.307-9.685a4.784 4.784 0 0 1 4.783-4.635h18.983a4.8 4.8 0 0 1 3.567 1.589l3.179 3.527c.214.013.495.013.829 0-.521-1.817.133-3.741 1.643-4.956.294-.227 6.853-5.478 8.71-6.88 2.685-2.017 6.987-2.071 9.592-1.87l12.677-1.296c.401-.04.829-.04 1.229.04 1.63.254 3.674.454 5.21.521.321-1.643.575-4.328.575-6.626 0-.388.053-.788.133-1.162 5.29-21.188 7.695-23.579 8.483-24.38 3.874-3.874 9.378-3.674 14.254-3.18 5.224.521 8.176 4.916 9.485 8.483l.668.428 1.269-2.886c.12-.254.254-.494.401-.721.401-.615 4.101-6.065 7.241-8.71 2.564-2.151 7.32-4.289 9.631-5.264l.495-.588c-1.47-.427-2.926-1.002-4.182-1.777-4.462-2.792-5.33-6.145-4.996-8.509-.12-2.031-.481-8.363-.842-11.222-.481-3.807.976-9.084 2.151-13.292.254-.921.494-1.763.668-2.471 1.403-5.558 4.208-7.361 7.468-9.004.12-.054.227-.12.347-.174l.655-5.597c.013-.147.04-.294.08-.441 0 0 3.179-14.962 4.074-19.036-.04-.481-1.095-2.165-1.723-3.166-1.416-2.258-3.033-4.81-3.326-7.989-.348-3.393-.094-5.09.975-6.88.387-1.777 1.362-3.326 2.391-4.756l-6.573 3.22.615 1.536-8.871 3.607-.093-.479ZM313.997 595.121l4.502-4.689 5.424-6.346c.053-.053.093-.12.147-.173 0 0 1.496-1.577 2.859-3.006-.014-.134-.054-.267-.081-.401-.32-2.258-.387-4.275-.213-5.971.053-.561.12-.962.173-1.323.054-.387.094-.668.134-1.229a9.549 9.549 0 0 1-1.51-1.269c-1.91-1.91-2.965-2.966-3.673-3.447-.227-.133-.615-.294-1.056-.481-1.402-.614-3.313-1.469-5.33-2.912-1.91-1.362-4.074-2.912-3.834-6.612 0-.134.013-.308 0-.575-.267-3.126.828-4.729 1.87-5.998.04-.04.04-.054.08-.094-1.763-1.897-3.005-4.462-4.234-7.721-1.149-3.059-1.59-4.542-2.378-7.695a14.374 14.374 0 0 1-.214-5.958 78.92 78.92 0 0 0-1.777-3.927c-.828.347-1.803.654-2.912.788-.668.08-.962.214-1.51.494-1.055.521-2.792 1.403-5.423.935-2.244-.401-3.794-1.376-6.105-2.859a143.562 143.562 0 0 0-4.102-2.511c-2.965-1.737-5.53-3.26-5.023-6.706.134-.882.695-2.832 3.033-3.808 1.028-1.91 2.471-2.698 3.834-3.099l-.04-1.376-.254-.173c-.695-.054-1.47-.094-2.351-.147a9.45 9.45 0 0 1-.869-.081 8.102 8.102 0 0 1-.44 1.764c-.348 2.645-1.684 4.275-4.369 5.343-.427.174-1.068.615-1.723 1.056-1.029.708-2.338 1.576-3.901 2.244-1.242.521-2.565.868-3.74 1.149-.521 1.149-1.403 2.164-2.645 3.086-.361.267-.575.481-.802.708-.721.721-2.872 2.872-6.412 1.549-.187 5.558-4.462 6.439-6.306 6.546-3.326.228-4.956 0-7.628-1.068-2.031-.802-4.729-2.164-7.361-3.46-.628-.307-1.282-.695-1.977-1.069-1.416-.788-3.567-1.977-4.609-1.937-.481.04-.922.04-1.296.013-1.189 2.859-2.351 6.092-2.591 7.081-.227 1.015-.588 1.897-.922 2.658-.427 1.002-.748 1.777-.828 2.859-.054.868-.12 1.549-.174 2.151-.134 1.336-.174 1.643.08 2.819l.134.667c.361 1.764.427 1.991 1.71 4.155 1.135 1.91 1.803 2.551 1.803 2.551-.214-.187-.32-.253-.32-.253l-.014.013 17.581 19.731c1.496.842 2.925 2.285 3.459 4.288 1.604.575 3.033 1.71 3.848 3.541 1.028 2.311.962 5.771.788 7.774l.04 1.684h.307c1.603 0 3.1.801 3.981 2.124.455.668 2.752 4.235 3.447 7.547.588 2.779 1.069 5.304.828 8.203-.08 1.028-.213 1.99-.347 2.992-.147 1.109-.307 2.298-.401 3.754-.267 3.887-.801 6.492-1.777 8.443-.253.521-.627 1.162-1.068 1.91-.481.829-1.496 2.552-1.643 3.18-.014.093-.04.174-.054.267 2.592.615 3.62.828 5.424 1.202l1.069.228c.667.146 1.669.253 2.725.387 2.591.294 5.263.588 7.387 1.763.455.254 1.069.481 1.71.748 1.63.628 3.674 1.443 5.464 3.193 1.844 1.844 4.863 6.012 5.464 6.84.08.12.174.254.254.361.12.173.227.387.361.574a4.822 4.822 0 0 1 3.179-1.63 5.04 5.04 0 0 1-.133-1.109v-4.595a4.786 4.786 0 0 1 4.782-4.783h5.29a4.68 4.68 0 0 1 1.764-1.509l-.081-.748-.187.013-.12-2.391-.387-1.47c-.401-1.509-.975-4.368-.347-6.586 1.055-3.66 4.862-4.889 6.011-5.17a4.651 4.651 0 0 1 1.55-.133c.761.053 1.576.12 2.284.147-.655-1.51-1.002-3.367-1.002-5.304 0-2.992 2.218-6.011 3.567-7.547a.443.443 0 0 1 .147-.174Zm168.875-162.753 1.67-6.813-21.12-.708a4.83 4.83 0 0 1-2.793-1.016l-16.952-13.212-1.536.428-.575-2.071-3.273-2.551.04-.041-22.469-17.166-13.733 34.934 5.691 4.342c20.746-.347 32.409-.12 34.681.628 1.162.387 2.071.842 2.819 1.443 2.511.133 9.685.347 13.466.454l6.759-.388.04.575.388.013-.014.454 16.911.695Z"/>
  <path fill="#7C7C7C" stroke="#fff" stroke-linecap="round" stroke-linejoin="round" d="M216.154 534.691c.174-2.698 1.002-4.676 1.55-5.971.147-.361.36-.842.4-1.016.521-2.311 2.458-7.28 3.607-9.885 1.63-3.714 3.928-5.117 7.695-4.756.454.04.869.08 1.376.054 3.834-.254 7.161 1.629 9.846 3.126.561.307 1.095.614 1.589.868 2.432 1.229 4.956 2.485 6.626 3.139.495.187.802.321 1.189.401.121-.387.268-.801.481-1.229.294-.561.481-1.162.695-1.817.321-1.015.708-2.164 1.456-3.299a5.466 5.466 0 0 1 3.754-2.378c1.67-.227 2.993.32 4.061 1.015.174-.361.388-.721.628-1.055 1.323-1.764 3.273-2.258 5.517-2.819.882-.227 1.897-.481 2.552-.748.695-.294 1.443-.788 2.244-1.323.708-.481 1.496-1.002 2.351-1.456.014-.04.014-.08.041-.12.013-.254-.014-.748-.014-1.069-.053-1.403-.147-3.126.695-4.782 2.03-4.035 6.372-3.046 8.029-2.659.748.174 1.509.348 2.257.401.762.04 1.47.094 2.111.134 1.002-1.336 2.204-2.993 3.273-4.409-.975-.628-1.977-1.496-3.099-2.565-3.006-2.872-4.756-5.597-6.172-7.788-.655-1.015-1.202-1.897-1.723-2.511-3.1-3.674-4.85-6.92-5.304-9.899-.094-.588-.174-.829-.321-1.296-.387-1.162-.721-2.338-.975-4.823-.12-1.135-.294-2.244-.441-3.259-.427-2.699-.788-5.037-.133-7.188.093-.614.133-2.177.12-4.074-1.149 0-2.338.013-3.313.08-.708.04-1.002.227-2.111 1.095-.481.361-.935.722-1.416 1.056-1.723 1.149-3.7 1.67-5.29 2.11-.454.121-.882.228-1.202.348-2.258.962-6.479 2.658-9.231 3.086-1.59.254-6.226.387-13.079.561-2.658.08-5.971.147-6.612.214-.361.04-1.056.08-1.951.08-3.66 0-10.74-.401-13.693-1.403-2.11-.708-3.366-1.91-4.154-2.859-4.609-.053-8.523-1.71-11.449-2.952-.962-.401-1.857-.788-2.458-.962-1.376-.401-2.926-1.202-5.597-2.605-1.604-.842-3.447-1.817-5.157-2.592a22.859 22.859 0 0 1-3.407-1.897c.014.174.014.361 0 .561-.08 1.189-.253 4.542-.253 5.705 0 .534-.054 1.015-.147 1.443.04.04.053.04.053.04.08.013.174.04.267.053 1.577.361 3.233.975 4.85 3.126l.294.388c2.11 2.792 2.257 4.021 1.95 7.721l-.08.962c-.094 1.149-.294 3.233-.227 4.555.361-.147.828-.361 1.202-.534 3.46-1.55 8.697-3.901 12.277-.321 2.912 2.912 3.046 7.588 2.966 9.365l4.154 77.242c.013.427 0 .841-.093 1.242-.188.962-.294 2.218-.214 2.912l10.46-6.278-.588-.668.481-.428c-.013-.013-.04-.04-.04-.08-1.897-3.233-2.258-4.449-2.819-7.053l-.133-.628c-.562-2.619-.428-4.075-.254-5.771-.067-.562 0-1.136.053-1.858Zm181.562 44.049-1.136-.842-.227.267-1.857-1.589-4.782-1.416.521-1.804c-.454-.267-.962-.574-1.536-.895-2.726-1.509-3.661-1.87-8.336-2.792-2.392-.454-2.966-.494-3.46-.534-.882-.054-1.683-.121-3.941-.575-1.99-.401-3.086-.427-4.596-.454a42.626 42.626 0 0 1-4.074-.214c-3.366-.32-4.769-.761-6.76-1.496a33.998 33.998 0 0 0-2.124-.721c-3.767-1.189-5.971-2.017-9.899-3.968-1.002-.494-1.536-.668-2.03-.842-2.084-.708-3.1-1.416-5.21-3.66-1.002-1.055-1.683-2.071-2.164-3.032-3.086.053-7.815.147-12.117.227l-1.029 2.07-1.295-.654c-.121.147-.228.32-.321.454 1.135.761 2.311 1.282 3.366 1.763.922.428 1.724.762 2.472 1.269 1.496 1.002 2.792 2.298 5.156 4.649v.014c4.329 1.229 4.329 5.196 4.329 6.492 0 2.298-.121 3.166-.268 4.208-.04.254-.08.535-.133.922-.054.534-.094 1.456.08 2.886 1.897 2.965.828 5.784-.895 7.507-1.149 1.149-3.754 3.901-4.235 4.422l-5.437 6.346c-.053.08-.12.133-.187.213l-4.502 4.676c-.441.521-.922 1.203-1.149 1.643.04.401.094.708.147.895.054.081.12.134.187.228 1.443 1.736 5.264 6.358 1.804 10.38-1.269 1.469-2.913 2.15-4.342 2.484.668.895 1.229 2.111 1.55 3.754a34.92 34.92 0 0 1 .481 3.313c.12 1.069.187 1.724.454 2.552.213.614.347 1.162.454 1.67 1.229.254 3.233.227 5.036.214h1.537c1.63 0 3.179.093 4.542.187.494.04 1.109.08 1.603.093.32-.401.708-.895 1.095-1.443.668-2.752 2.485-5.771 5.932-6.626 3.5-.868 7.067.895 8.964 1.844l.454.227c.267.12 1.002.481 1.897.935.561.294 1.589.842 2.458 1.242.187-.133.401-.267.614-.4 2.205-6.666 4.89-9.512 8.603-9.111 1.644.173 2.859.828 3.714 1.402 1.109-.881 2.952-2.337 5.557-2.337 2.258 0 4.008 1.028 5.157 1.723.187.12.361.227.534.32 1.804.134 3.834.882 5.357 1.577l3.941-.227-.12-7.254-.869-6.64c-1.108-1.362-2.311-3.499-2.043-6.131 0-.147-.054-.361-.094-.535-.227-1.242-.721-3.847 1.202-6.452 1.764-2.338 5.13-4.422 6.84-5.264 1.51-.748 6.492-2.484 8.603-3.219l1.069-.628c-.722-.628-2.592-1.99-4.315-3.139-.12-.081-.174-.134-.227-.174Zm42.681-68.467s3.66-2.177 6.011-3.634c.401-.253.454-.307 1.096-1.442.454-.802 1.068-1.897 2.043-3.166.615-.789.628-.895.749-1.764.08-.561.173-1.322.427-2.244.882-3.233 3.139-5.117 4.956-5.798a4.78 4.78 0 0 1 4.89.935l-.081-.881-11.702-3.18-.401.762-1.029-.521a4.922 4.922 0 0 1-2.484 1.095c-4.369.521-11.262 1.456-12.945 1.897-1.136.307-2.298.494-3.407.668-2.03.321-3.968.655-5.784 1.55-3.834 1.91-16.445 5.557-19.29 6.359l-6.88 2.351a5.236 5.236 0 0 1-1.363.254l-6.679.294-.401 1.603-.227-.054c-.428 1.149-.869 2.258-1.283 3.099-.387.762-.962 1.737-1.603 2.779.655.08 1.296.187 1.937.361.08 0 .348.013.615.04 1.843.134 5.25.401 7.013 3.487.081.133.147.253.227.36.668 1.029 2.739 4.208-.427 8.27-.187.253-.387.454-.574.667.267.174.534.321.761.455l11.128 4.141a4.521 4.521 0 0 1 1.937 1.336l1.283 1.456c.761-.307 1.897-.869 3.099-1.51l-.187-.481.574-.213-.254-2.125a4.755 4.755 0 0 1 1.27-3.847 4.772 4.772 0 0 1 3.754-1.509c.04 0 3.406.173 6.185.173 2.177 0 2.698-.187 4.422-.828l.401-.401c.761-.761 2.043-2.044 4.234-2.525 3.621-.801 5.598 1.71 6.626 3.741.321-.214.655-.427 1.016-.628.454-.267.801-.481 1.055-.654-.561-1.136-1.443-2.686-2.298-4.022a4.697 4.697 0 0 1-.628-3.673 4.923 4.923 0 0 1 2.218-3.033Zm42.509-145.79a5.54 5.54 0 0 1-.187.401l-14.668 28c-.668 2.391-2.966 9.098-8.043 11.93-1.469.828-3.353 1.63-5.223 2.338l10.5 8.202 21.562.721.32-1.322.321.08c.347-1.189.588-2.151.655-2.565.04-2.872 1.242-5.29 2.751-8.336 1.497-2.992 6.399-8.082 8.296-9.993.802-1.135 3.233-4.475 5.344-6.679a4.347 4.347 0 0 1-.12-1.162l1.189-53.436c-.08 0-.134.013-.214 0l-5.424-.227.455 5.437a4.756 4.756 0 0 1-1.376 3.767c-.895.922-2.124 1.416-3.407 1.416-.12 0-.227 0-.347-.013l-5.598-.428c.308 3.394.174 6.933-1.188 9.312-1.336 2.364-4.476 9.872-5.598 12.557ZM240.025 574.294a.436.436 0 0 0-.081-.054l-14.133-15.857-12.01 7.214.174.321-.521.267.093.214-2.752 1.188-2.244 1.163-2.418 1.456-.093-.147-60.29 31.367c-4.141 2.151-14.147 7.2-18.168 7.775l-.628.093c-.668.094-1.376.214-2.111.214-1.068 0-2.204-.227-3.299-1.069-1.764-1.336-1.991-3.179-2.084-3.968a3.152 3.152 0 0 0-.094-.587 9.635 9.635 0 0 1-1.71-.936l-2.378-.667-11.088 4.475-18.77 9.765-14.2 7.722c-.12.053-.227.12-.347.173l-2.338 1.029a4.78 4.78 0 0 1-4.595-.387c-.134-.094-.294-.174-.441-.267a56.367 56.367 0 0 0-2.11 2.017 4.686 4.686 0 0 1-1.871 1.149c-2.124.708-4.502 1.603-5.05 1.91-.762.454-1.777.882-2.725 1.229-.895 2.311-2.659 5.09-5.972 5.824-.454.094-.788.187-1.028.254-1.59.388-2.03.388-4.422.388-2.178 0-7.027.36-8.697.494a4.122 4.122 0 0 1-.4.013c-.121 0-.228 0-.348-.013l-8.47-.615c.014 3.5.147 6.506.147 6.506l-1.189 13.132s-2.992-.588 2.992 4.782c5.972 5.384-.587 7.161 8.363 4.182 8.964-2.993 10.153-4.783 13.746-5.384 3.58-.588 8.363-.588 11.355 1.189 2.993 1.803 3.58 8.964 3.58 8.964l4.182 8.363s-.587 2.992 4.182 7.774c3.633 3.634 14.147 17.941 19.023 24.634l151.238-137.289Z"/>
  <path fill="#7C7C7C" stroke="#fff" stroke-linecap="round" stroke-linejoin="round" d="M174.089 340.612c.454 14.482.173 17.394-.267 18.636-.535 2.552-2.659 17.674-4.462 31.046l-2.071 12.664-1.763 26.558 9.711 2.511 7.374.188c1.63.04 3.126.921 3.968 2.297.187.187.922.829 2.685 1.63 1.977.895 3.928 1.937 5.651 2.832 1.376.722 3.26 1.723 3.834 1.897 1.109.321 2.258.802 3.46 1.323 2.645 1.108 5.611 2.351 8.643 2.164 3.794-.294 5.571 2.257 6.265 3.219.04.054.081.121.134.174 1.99.561 9.806.975 11.435.842.708-.094 2.485-.134 7.415-.268 3.981-.093 10.674-.267 11.876-.44 1.162-.174 4.021-1.163 6.933-2.432.788-.32 1.603-.561 2.485-.788.708-.187 2.044-.561 2.458-.828.294-.187.561-.401.828-.615 1.456-1.149 3.674-2.885 7.415-3.126 1.416-.093 3.179-.093 4.715-.08v-8.59c-.801-.975-1.282-2.15-1.576-3.673-.187-1.016-.762-1.951-1.496-3.126-.521-.842-1.136-1.804-1.63-2.913-.615-1.335-1.162-2.284-1.803-3.353-.388-.654-.762-1.295-1.189-2.044-.628-1.162-4.075-4.341-5.732-5.878l-.694-.628c-2.311-2.15-3.033-3.633-3.5-5.624-.094-.4-.147-.627-.347-1.015-.455-1.002-1.817-3.927-.254-6.533.401-1.937 1.135-5.624 1.496-8.576.481-3.807 1.59-5.424 2.779-6.84.36-.427.494-.614.721-1.095 1.015-2.338 1.376-2.966 2.431-4.248.214-.268.481-.588.882-1.109 1.763-2.351 3.807-4.475 6.626-6.853 3.22-2.726 7.361-2.832 10.674-2.913.588-.013 1.162-.013 1.71-.053.147 0 .307-.013.454-.013l-.975-4.235a3.37 3.37 0 0 1-.12-.895l-.187-4.783a5.202 5.202 0 0 1 .4-2.11l3.193-7.334 2.966 1.295 3.366-2.858.214.253c.12-.267.214-.534.294-.868.588-2.992-.588-5.384-.588-5.384s-3.58-4.782-8.964-5.971c-5.383-1.189-5.383-1.189-8.362-1.189-2.859 0-83.709-4.903-98.216-5.864l-1.295 15.616ZM393.065 654.73l4.783-5.972s-2.993-2.391-3.581-6.572c-.4-2.819-.534-10.233-.574-14.789l-10.674.628c-.841.04-1.67-.12-2.418-.494-1.055-.521-2.525-1.096-3.006-1.149-1.91.04-3.607-.975-4.689-1.63-1.002.802-2.471 1.937-4.542 2.298a7.233 7.233 0 0 1-4.021-.401c-.32.828-.628 1.724-.881 2.552a4.886 4.886 0 0 1-1.844 2.565c-2.378 1.683-4.074 2.725-5.036 3.099-2.605 1.029-4.997-.12-9.352-2.418-.481-.254-.881-.454-1.109-.574-.173-.054-.534-.254-1.015-.481-.294-.134-.895-.455-1.509-.708a5.2 5.2 0 0 1-.628 1.442c-3.487 5.224-5.291 5.825-6.146 6.106-.841.293-1.723.36-2.751.36-.842 0-1.817-.053-2.953-.133-1.229-.081-2.605-.174-3.901-.174h-1.456c-3.393.013-6.612.053-9.378-1.109-3.233-1.362-4.275-3.633-4.755-5.303-.094.12-.147.227-.254.32a4.823 4.823 0 0 1-3.714 1.47 4.785 4.785 0 0 1-3.767 1.843h-1.136c.04.321.04.668 0 1.002l-.294 2.953c.455 1.709 2.151 8.175 2.432 10.647.267 2.337.494 4.555 1.002 7.547.294 1.71.267 3.46.267 5.17 0 1.323-.014 3.327.227 3.981l.267.668c.975 2.392 1.897 4.676 1.897 8.924 0 1.911.147 3.701.307 5.264.121 1.269.214 2.338.214 3.313 0 .254.04.441.053.628.254 1.843.348 4.061-1.803 6.919-1.202 1.604-2.819 2.565-3.981 3.26-.094.054-.214.12-.321.187v.08c-.013.187-.04.361-.04.535.094.093.267.253.521.44a62.795 62.795 0 0 1 2.699 2.165c1.242 1.028 2.217 1.87 4.996 3.567a18.69 18.69 0 0 0 3.099 1.549c2.298.962 4.182 1.977 5.624 5.745.321.841.628 1.549.922 2.177.895 2.044 1.737 4.008 1.737 7.067 0 .387-.04 9.672-2.913 15.015-1.336 2.485-2.872 4.235-4.074 5.651-.655.748-1.202 1.376-1.536 1.897-.976 1.55-2.245 4.008-2.645 4.809l-.829 1.67c.428 1.416.628 2.565.628 2.565s-.588 2.391 1.804 3.58c2.391 1.189 3.58 5.384 5.383 8.363 1.804 2.992 12.544 8.363 12.544 8.363l7.161 6.572 7.161-1.803 10.767-8.363s-3.581-3.58-2.392-5.971c1.189-2.392 6.573-5.972 6.573-5.972h19.117s-1.189-4.782 2.391-8.363c3.581-3.58 7.775-4.181 10.153-5.383 2.392-1.189 7.161-2.391 7.161-2.391l1.189-6.573s-4.182-2.992-6.573-5.384c-2.391-2.391-3.58-.588-2.992-5.383.588-4.783 0-7.775 0-7.775l-2.993-11.956s-2.992-7.775-2.391-10.153c.588-2.392 4.182-10.153 4.182-10.153l4.782-4.783-4.182-5.971 12.545-11.355-9.539-5.317ZM7.027 442.593s.976 9.766 2.926 15.604l17.447-2.565c.134-.014.267-.04.387-.04l29.11-1.871-10.808-23.591a4.87 4.87 0 0 1 .053-4.115 4.885 4.885 0 0 1 3.26-2.551c.427-.094 1.87-.495 2.819-1.029 2.03-1.162 4.462-1.456 7.52-1.817a81.21 81.21 0 0 0 4.196-.574c1.135-.187 1.87-.388 2.524-.535 2.458-.614 4.155-.961 10.768-.561 3.754.227 6.532-.04 9.19-.294 3.14-.294 6.106-.574 9.619.094 2.458.454 5.077.708 7.628.962 2.859.267 5.798.561 8.577 1.149 3.045.627 6.773 1.095 10.42 1.536 2.017.254 4.021.481 5.918.761 4.114.588 6.345 1.056 9.137 1.644 1.056.213 2.205.454 3.621.748 3.045.614 9.765 1.776 14.655 2.618l1.723-26.09c.013-.147.013-.294.053-.441l2.084-12.731c3.22-23.993 4.249-30.298 4.756-32.302.187-1.576.08-9.418-.133-15.91 0-.174 0-.361.013-.535l1.269-15.817c-16.392-1.189-49.387-3.5-54.773-3.006-6.573.588-109.358-.587-109.358-.587l.588 8.362 1.189 10.767s1.189 9.552.587 11.957c-.587 2.391-1.189 31.086-1.189 31.086S1 391.883 1 396.051c0 4.181 1.803 3.58 2.992 10.767 1.19 7.16 4.182 25.101 4.182 25.101l-1.147 10.674Zm437.371-2.496c-1.63-.094-3.447-.347-4.916-1.857-3.326-.401-19.13-.401-33.13-.147a4.82 4.82 0 0 1-2.993-.975l-6.412-4.903-.494.521-.254-.227a401.388 401.388 0 0 0-1.416 4.502c-.014.361-.014.882-.04 1.456-.04 2.485-.08 4.101-.441 5.357-.428 1.456-1.189 2.485-1.723 3.139-.014 1.203-.014 3.46.013 5.919h.134l.013.36c6.265 2.552 18.248 7.495 28.361 12.063 7.642 3.46 15.951 7.655 24.193 12.157l.321-.361 1.536 1.376c.347.187.668.361 1.015.561l11.543 3.126-2.245-28.361-.187.013-.093-1.736-.962-.134.668-4.983-.094-1.736-.147-1.977h.04l-.133-2.378-1.029-.04.014-.321c-4.115-.12-9.392-.294-11.142-.414Zm19.185 106.461c-.588-2.992-1.189-6.572 1.189-11.355 1.47-2.952.895-4.074 1.643-5.076l-4.034-24.501-.121.014-.04-.321c-1.108.147-2.244-.08-3.179-.668-.387 1.002-1.002 2.071-1.977 3.313-.535.695-.868 1.269-1.269 1.951-.842 1.469-1.871 3.299-4.409 4.862-.628.388-1.336.829-2.044 1.269 2.525 4.903 1.87 6.626 1.456 7.762-1.189 3.166-3.58 4.769-5.931 6.132-.561.32-1.055.694-1.51 1.015-1.603 1.136-3.807 2.698-6.759 2.378-2.312-.267-3.714-1.723-4.596-3.233a6.93 6.93 0 0 1-.962.401c-2.378.868-4.021 1.403-7.695 1.403h-.481l.054.146 1.322 2.151-.4.254 3.54 9.311c.628 1.296 2.084 5.05.04 8.336-1.496 2.392-4.248 3.447-14.695 5.624-.521.121-.975.214-1.336.294-.147.214-.347.495-.521.722-.668.975-1.59 2.297-3.086 3.794-1.229 1.229-1.723 2.03-2.418 3.139-.654 1.055-1.456 2.351-2.872 3.981a14.26 14.26 0 0 0-.401.494l1.203.896c1.87 1.242 5.089 3.5 6.399 5.036.173.214.574.575 1.068.975l1.323-.788 1.87 3.22 2.966 2.124-.935 1.322.935 1.603-3.621 2.124-1.95 2.739-1.202-.882-2.351 1.376c3.9 2.659 4.582 6.64 8.563 8.136 4.782 1.803 5.971 4.782 15.536 5.383 9.552.588 15.537 0 19.117-2.391s11.355-13.132 11.355-13.132 1.189-5.971 1.189-8.362 3.58-7.775 1.803-15.537c-1.776-7.868-1.188-14.428-1.776-17.434Z"/>
  <path fill="#7C7C7C" stroke="#fff" stroke-linecap="round" stroke-linejoin="round" d="M299.839 752.129c.481-.962 1.443-2.793 2.591-4.556l-1.723-.868 2.151-4.288c.08-.134 1.683-3.353 3.086-5.598.721-1.149 1.59-2.15 2.431-3.126 1.056-1.202 2.044-2.351 2.872-3.9 1.149-2.151 1.764-7.455 1.764-10.474 0-1.029-.187-1.536-.935-3.233-.321-.748-.695-1.589-1.069-2.591-.04-.08-.054-.147-.094-.227a.892.892 0 0 0-.267-.094c-.962-.401-2.418-1.002-4.448-2.244-3.394-2.071-4.756-3.22-6.172-4.409a44.084 44.084 0 0 0-2.258-1.817c-4.288-3.219-4.462-6.439-4.288-9.217.013-.267.04-.561.04-.869 0-4.101 3.219-6.011 4.956-7.053.387-.227.922-.561 1.162-.748-.053-.454-.133-1.069-.133-1.844 0-.534-.081-1.456-.174-2.431-.147-1.683-.347-3.794-.347-6.145 0-2.378-.361-3.3-1.189-5.331l-.294-.708c-.962-2.391-.935-5.036-.922-7.601 0-1.296.013-2.645-.134-3.54-.534-3.26-.801-5.691-1.068-8.069-.094-.788-.535-2.779-1.056-4.903l-.347-.04a5.023 5.023 0 0 1-1.416 1.015c-1.469.655-3.407 1.283-5.304 1.283-.935 0-1.856-.147-2.738-.521-1.764-.762-3.54-2.592-5.25-5.464-1.296-1.804-3.434-4.582-4.342-5.491-.347-.347-1.229-.695-2.164-1.055a22.29 22.29 0 0 1-2.819-1.243c-.588-.267-2.658-.521-3.887-.654-1.229-.134-2.512-.294-3.634-.535l-1.055-.227c-1.871-.4-2.953-.628-5.651-1.269-3.433-.801-4.916-1.59-6.586-4.368-.12-.187-.254-.428-.401-.668-2.244-3.527-1.015-5.971.094-7.254.481-1.67 1.416-3.326 2.565-5.304.307-.521.588-1.001.761-1.362.134-.254.561-1.363.788-4.782.121-1.71.294-3.1.455-4.329.12-.841.213-1.67.293-2.551.121-1.456-.12-2.913-.654-5.397-.12-.561-.441-1.323-.842-2.111h-2.204c-2.592 0-4.716-2.071-4.782-4.649l-.187-6.626v-.053L95.766 718.13c2.391 1.804 5.09 4.035 6.278 5.825 2.392 3.58 3.581 8.362 3.581 8.362l-.588 16.125s1.189 14.935 2.992 17.326c1.804 2.391 3.581 2.993 5.972 5.972 2.391 2.992 2.992 3.58 2.992 7.16 0 3.581 1.189 10.153 1.189 10.153s-.588 1.189 1.189 5.972a795.475 795.475 0 0 0 4.182 10.767l5.383 8.964v7.775s0 .587 1.804 3.58c1.803 2.992 0 5.971 4.782 8.363 4.783 2.391 4.182 3.58 10.153 2.391 5.972-1.189 6.573-2.993 10.153-3.58 3.58-.588 1.189 0 8.964-.588s8.964-1.804 11.355-2.993c2.391-1.189 2.992-1.189 5.384-.587 2.391.587 1.189 2.391 1.189 4.782s-2.993 2.992-2.993 8.964c0 5.971-1.189 7.16 1.189 10.153 2.391 2.992 8.363 5.971 8.363 9.551 0 3.581 3.58 3.581 0 7.775-3.58 4.182-3.58 2.392-7.775 7.161-4.181 4.782-24.5 59.154-24.5 59.154s0 5.383 1.189 10.767c1.188 5.384 5.383 11.355 4.782 13.746-.588 2.392-1.804 16.124-1.804 16.124l34.066-3.58s1.536-.841 8.122-1.456c6.573-.588 6.813-.347 9.819-.935 2.992-.588 11.128-.174 11.128-.174l19.931-5.21 17.634-1.763-19.437-119.549 2.391-20.319 1.189-45.406s5.384-5.384 5.971-7.775c.588-2.391 4.182-18.516 4.182-18.516l3.58-15.536s5.972 2.992 9.552 3.58c3.58.588 4.782-.588 7.775-1.804 2.992-1.188 5.383-1.188 5.971.588.588 1.804 1.804 11.957 1.804 11.957l6.572 10.767s3.581 3.58 5.972 2.391c2.391-1.189 4.782-5.384 4.782-5.384.014.067-3.539-4.65-2.336-7.041Zm228.893-207.93c.268.36.655.761 1.096 1.189 4.769-4.035 9.993-8.47 10.553-8.884.428-.308 1.109-.842 14.228-7.027l5.691-3.393c-1.136-2.298-2.151-4.275-2.512-4.809-.307-.321-1.897-1.403-3.232-2.125-.187-.12-.401-.227-.575-.36l-9.004-6.8-15.91-11.529-50.03-36.603-11.796-8.443 2.258 28.615.307-.04.094.935h.013v.04l1.55 15.724.574 2.378-.294.08 3.714 22.577c2.378-1.136 4.061-1.844 6.706-1.844 4.181 0 8.363 2.391 12.544 4.782 4.182 2.392 11.355 4.783 16.739 6.573 5.33 1.777 15.496 6.572 17.286 8.964Zm672.868-297.6 10.77-19.116-16.74-1.189s-1.81 1.189-2.39-1.804c-.59-2.992-1.19-11.355-1.19-11.355s1.8-6.573 4.18-9.552c2.39-2.992 3.58-4.181 3.58-4.181s-.59-32.863-1.19-37.646c-.59-4.783.59-5.384.59-5.384l8.96-69.92s4.18-32.863 4.78-39.435c.59-6.572 1.19-40.638 1.19-40.638l-16.12-1.19s-7.16-1.803-20.32.589c-11.76 2.15-175.12 35.83-209.415 42.923v79.752l6.038 2.418a4.765 4.765 0 0 1 2.872 3.326 4.752 4.752 0 0 1-1.055 4.275c-1.069 1.229-3.059 3.754-3.847 5.33-1.056 2.124-2.352 3.18-3.581 3.848-.013.146-.04.347-.053.561-.134 1.496-.361 4.021-2.685 6.345-2.044 2.044-4.182 4.182-6.666 5.424a7.76 7.76 0 0 1-.561.254c1.229 3.887 2.605 9.311 2.965 10.7l17.794 43.871 7.521-3.701c2.605-1.443 6.279-2.952 9.245-2.204 2.685.668 4.598 2.952 5.088 6.105.26 1.603.15 3.46-.25 5.13-.46 1.817-1.645 3.326-2.915 4.943-.521.654-1.362 1.737-1.603 2.244a8.642 8.642 0 0 1-.895 2.432c0 .267.04.708.094 1.416.093.935 1.069 2.484 1.91 3.847 1.723 2.752 3.889 6.185 2.969 10.326-.845 3.768-3.623 16.886-4.024 18.73l-.869 7.334c-.253 3.126-3.299 4.635-5.343 5.664-2.031 1.015-2.031 1.015-2.472 2.752-.187.788-.454 1.71-.721 2.725-.748 2.658-2.124 7.628-1.87 9.538.454 3.621.881 11.649.935 12.491.12.093.294.187.481.32 1.589 1.002 5.864 1.537 8.309 1.537a4.77 4.77 0 0 1 4.328 2.752 4.779 4.779 0 0 1-.654 5.09l-6.747 8.055c-.521.615-1.162 1.096-1.897 1.376-2.525 1.015-6.746 2.992-8.215 4.208-1.537 1.283-4.008 4.596-5.197 6.319l-1.723 3.928 1.416.921-1.576 2.432.347.975c.227.628.32 1.296.267 1.977-.04.668-.481 6.626-.962 9.485-.347 2.07-1.443 3.7-2.859 4.862 2.205.575 6.012 1.016 8.296 1.296 1.416.174 2.792.321 4.061.521 4.582.655 9.191 1.069 11.249 1.243a512.62 512.62 0 0 0 8.8-3.607c1.73-.748 2.43-1.136 2.65-1.243 1.74-1.295 4.21-1.282 5.93.147.79.655 2.55 1.857 3.87 2.298 1.54.521 3.04 1.323 4.61 2.164 1.71.922 3.49 1.87 4.99 2.258.92.227 3.75.935 5.05 3.527 1.09 2.124.49 4.101.09 5.156.36.534 1.01 1.202 1.54 1.376 3.31 1.109 7.93 6.091 11.22 10.099.36.454.65.975.84 1.537.52 1.576 1.57 4.314 2.52 6.064.5-.093 1.1-.227 1.59-.347 1.37-.307 3.04-.695 4.92-.868l1.36-.12c.23-.014.43-.041.59-.041 0 0 .01-.013.01-.04.22-.347.44-.721.72-1.189 1.37-2.164 3.3-4.689 6.28-5.023.56-.053 1.11-.04 1.65.054h38.16c4.6 0 8.35 4.315 11.65 8.095.66.748 1.23 1.416 1.68 1.871 3.45 3.446 2.53 8.336 2.03 10.967-.04.227-.09.454-.13.655.56 1.322 2.35 4.475 4.14 7.24.71 1.096.94 2.432.63 3.701-.57 2.458-1.11 7.32-.15 9.925 1.19 3.26 6.99 12.771 10.38 18.021l6.01 9.004 5.29.748 48.4-79.885 9.56-17.928s-3-1.189 5.97-7.775c8.96-6.572 22.09-16.124 22.09-16.124s14.35-6.572 16.74-9.551c2.39-2.993 19.73-26.291 19.73-26.291l-65.04-50.15Z"/>
  <path fill="#7C7C7C" stroke="#fff" stroke-linecap="round" stroke-linejoin="round" d="m1138.84 463.25-3.35-.481a4.841 4.841 0 0 1-3.31-2.084l-7.25-10.835c-1-1.536-9.41-14.694-11.35-20.011-1.64-4.542-1.07-10.287-.56-13.333-4.69-7.507-4.69-9.484-4.69-10.46 0-.921.17-1.816.35-2.778.13-.695.38-2.044.32-2.699a47.95 47.95 0 0 1-1.87-2.111c-1.1-1.269-3.58-4.141-4.81-4.809h-37.27c-.1.134-.19.294-.31.455-.25.4-.45.748-.65 1.055-2.21 3.674-3.8 4.328-8.05 4.689l-1.28.12c-1.27.12-2.48.388-3.67.655-3.03.694-8.07 1.817-11.13-2.779-1.68-2.525-3.22-6.573-3.87-8.389-2.52-2.966-5.4-5.878-6.48-6.493-4.33-1.536-8.09-6.319-8.09-10.366v-.147c-1.77-.695-3.43-1.576-4.94-2.391-1.15-.615-2.34-1.269-3.08-1.51-1.58-.521-3.06-1.336-4.28-2.084-.4.187-.87.388-1.36.588-3.18 1.363-9.767 4.008-10.061 4.115a4.61 4.61 0 0 1-2.124.32c-.267-.013-6.573-.481-12.985-1.403-1.202-.173-2.511-.32-3.847-.48-7.642-.896-14.254-1.684-16.485-6.186-1.991-3.981-1.443-7.414-1.323-8.042a4.737 4.737 0 0 1 4.101-3.807c.014 0 .041 0 .054-.014.254-1.897.521-4.916.655-6.773l-.535-1.496-5.798-3.754a4.804 4.804 0 0 1-2.084-3.032c-.347-1.457-1.295-2.993-1.67-3.033-1.442-.147-5.156-.521-6.358.294-1.203 2.204-4.008 11.542-5.999 19.491-.12 12.838-3.874 14.935-6.706 15.416-2.872.481-7.588-.08-9.484-.348l-12.504 1.296c-.307.04-.615.04-.922 0-1.296-.12-3.032-.04-3.714.134-1.242.935-4.007 3.139-5.998 4.729a8.426 8.426 0 0 1-.628 3.54c-.588 1.443-1.91 3.367-4.729 4.422-5.423 2.031-9.685.04-10.153-.187a4.832 4.832 0 0 1-1.416-1.069l-2.645-2.925h-12.223l-.307 9.819a4.784 4.784 0 0 1-4.783 4.635h-.133l-15.363-.454a4.794 4.794 0 0 1-4.649-4.782v-4.035c-.121.04-.254.08-.388.121l-.347.093c-2.284.575-6.038 1.536-9.498.294-.655-.013-2.204.147-3.26.294-3.366.401-6.879.801-9.631-.561-1.002-.494-1.951-.869-2.966-1.243-1.456-.561-2.966-1.135-4.596-2.084-1.456-.881-2.311-1.843-2.832-2.565-.828 0-2.124.134-3.567.321l.013.254-.173.013.254 5.798c.04.962-.214 1.91-.708 2.725l-8.136 13.105-9.926 14.896c3.447 1.589 3.941 3.54 4.182 4.475.561 2.218.133 5.998-.321 8.884l-.881 19.157-1.096 20.305.147.014-.361 4.034-.013.347 2.592 26.665h36.203l2.992 4.782 75.306-.587 3.581 2.992 39.434-2.992 148.802 57.977 3-16.739-11.36-5.971 45.35-74.997ZM673.839 608.185c-6.199.321-9.819.454-12.01.454-2.738 0-3.219-.187-3.794-.427-.521-.214-1.603-.628-6.225-4.422a4.563 4.563 0 0 1-.628-.615l-4.034-4.782a4.629 4.629 0 0 1-.655-1.002l-3.313-6.8c-.12-.214-.187-.441-.267-.668l-.147-.454-12.331.147h-10.727c-5.33 0-7.334-2.031-8.696-5.077-.308-.668-.521-1.162-1.136-1.843-2.685-2.992-3.54-5.838-3.754-7.855-5.517-.134-11.075-.227-12.117-.134-3.486.294-7.147.722-8.469 1.016l-.014.013c-.227.387-.521.828-.882 1.336-1.402 2.017-3.633 2.992-5.784 3.94-.788.348-2.084.922-2.458 1.243-2.552 3.126-7.761 2.859-12.771 2.591-1.016-.053-2.392-.12-2.819-.08-2.512.428-5.464-.828-9.993-2.925-.841-.401-1.977-.922-2.484-1.109-1.029-.174-3.353-.828-10.153-3.313-1.029 2.177-1.71 4.208-2.913 6.225-1.803 2.993-5.971 10.153-8.362 11.956-2.392 1.804-7.161 7.775-7.161 7.775l2.391 4.783s9.552 0 12.545 1.803c2.992 1.803 16.738 7.775 16.738 7.775l13.132 11.956 5.384-4.782 11.355 10.767s1.803 1.189 4.782 0c2.992-1.189 8.363-9.552 8.363-9.552l5.383 8.964 17.327 6.573s7.16 7.16 14.935 4.181c7.775-2.992 18.516-12.544 18.516-12.544l19.116 4.182-2.391-16.739 5.972-11.355.549-1.202Zm118.704-103.452-6.011.574-2.739-28.227-.708-.04.04-.628-29.777-2.739-37.15-4.074-22.657-2.725a2.758 2.758 0 0 1-.494-.094l-5.878-1.362a5.303 5.303 0 0 1-.695-.228 4.772 4.772 0 0 1-1.576.094l-.788-.08a4.82 4.82 0 0 1-2.859 3.099l-1.016.401c-.36.668-.881 1.336-1.549 2.017l-2.645 2.632-.227 2.832a4.762 4.762 0 0 1-3.26 4.154s-2.886.962-4.248 1.336c-1.202.348-2.859.441-5.223.561-.455.014-.882.04-1.229.054-.428.254-.976.654-1.323.935-.521 1.443-1.336 2.859-3.607 4.195l-.441.267c-.227.133-.494.307-.761.454v.174c.04.588.093 1.67.173 2.151a548.258 548.258 0 0 1 1.978 5.383c.173.454.267.962.293 1.443v.174l4.582-.174 5.344-1.496a4.81 4.81 0 0 1 4.195.788 4.776 4.776 0 0 1 1.897 3.807v2.031l.187 7.788c.04 1.363-.521 2.658-1.496 3.607l-1.897 1.777-.268 6.132.615 3.059c1.817 2.778 2.431 5.263 1.87 7.374a5.576 5.576 0 0 1-3.139 3.673c-1.737.762-4.729.936-8.884.521l-1.87.748a4.855 4.855 0 0 1-1.229.294l-5.705.561-6.359.722c-.08 0-.173.013-.253.013l-4.809.307-.521.294.347.976a679.05 679.05 0 0 1 3.941 6.185c2.524 4.008 2.084 8.175 1.87 10.193-.013.147-.04.307-.04.427.12.802.254 2.285.481 4.823.173 1.777.32 3.5.401 4.075.133.761 1.282 5.076 2.257 8.576.08.267.134.561.147.841l.615 6.627 1.469 4.755 2.886 5.932 3.366 3.981c1.149.935 2.351 1.87 3.126 2.418 2.525.04 9.445-.307 15.296-.628l1.51-.094 1.737-3.967 7.774 7.16 4.783-2.992s7.775 5.971 11.956 8.964c4.182 2.992 13.132 7.775 13.132 7.775l51.377 18.515s-1.804-8.362 0-13.746c1.803-5.384 4.181-10.767 4.181-10.767l10.153-22.71s-.587-8.363 1.189-12.545c1.804-4.181 7.161-12.544 7.775-15.536.588-2.993 1.189-12.544 1.189-12.544l-1.189-7.161 4.783-3.58-4.395-30.512ZM21.357 599.156s0 5.972 1.803 9.552c1.804 3.58 5.384 7.775 4.182 11.956-1.19 4.182-2.993 4.182-4.182 6.573-.08.147-.147.388-.213.655l8.255.588c1.416-.121 6.493-.495 9.111-.495.976 0 1.416.014 1.737-.013.094-.013.227-.053.4-.094.081-.013.174-.04.268-.053.174-.387.32-.922.427-1.363.348-1.803 1.684-3.273 3.447-3.754 1.149-.307 2.552-.801 2.966-1.055 1.282-.762 4.034-1.777 5.864-2.418 3.313-3.22 4.422-3.794 4.863-4.008.721-.36 2.725-1.362 6.573.481l14.08-7.681 19.05-9.926a2.1 2.1 0 0 1 .427-.187l12.558-5.076c.294-1.497.454-2.832.441-3.567-1.323-2.111-2.739-4.596-3.874-8.844-1.016-3.794-1.149-5.557-1.363-7.815l-.093-1.055c-.081-.842-.094-1.817-.121-2.913-.04-2.257-.093-5.089-.961-6.813-.976-1.95-1.51-3.46-1.938-4.675-.44-1.269-.667-1.897-1.148-2.619-1.55-2.311-29.47-62.68-42.79-91.523l-32.556 2.084-15.283 2.258c1.777 5.61 3.46 12.103 3.874 15.242.588 4.783 2.392 21.508 1.19 27.48-1.203 5.971 1.188 5.383-2.392 7.16-3.58 1.804-1.189-3.58-4.181.588-2.993 4.182-2.993 10.153-2.993 10.153s-3.58 1.189-3.58 7.161v15.536l5.383 16.739s-1.803 8.363.588 11.956c2.392 3.58 4.182 7.775 4.182 7.775l3.58-1.189 2.419 13.199Zm311.381-157.452-6.399 1.603c-.12.014-.214.054-.321.08l-9.378 1.644c-.32.053-.654.08-1.002.08l-2.471-.08c-1.202 1.643-3.033 3.192-5.651 3.807-.721.174-1.536.387-2.351.614-2.832.762-6.372 1.724-9.766 1.724-2.284 0-5.624.08-8.135.133-1.55.04-2.779.054-3.273.054-.975 0-1.723-.12-2.431-.388-.041 3.447-.308 4.756-.481 5.344-.014.574.213 2.03.387 3.099.187 1.189.387 2.458.521 3.768.147 1.603.321 2.11.534 2.738.228.668.495 1.496.722 2.886.04.294.401 1.937 3.166 5.17.935 1.108 1.683 2.284 2.485 3.526 1.242 1.937 2.524 3.941 4.715 6.038.588.561 1.002.922 1.269 1.149.628-.013 1.416 0 2.392.227.12.014.307.054.494.081l2.645-.668.214.841c2.338.094 5.29.174 7.24.214 2.178.04 4.102.093 5.157.147 1.242.08 1.977-.254 3.927-1.229.481-.227.976-.481 1.497-.722.387-.187 1.202-.561 1.402-.694.054-.08.214-.267.441-.521.294-.321.628-.708 1.096-1.202.48-.869.494-4.65.521-6.065 0-.962.013-1.804.053-2.432.174-2.525.655-4.208 1.202-6.185.134-.454.267-.962.428-1.51.213-.828.387-1.536.534-2.164.401-1.71.748-3.192 1.59-4.675.748-1.296 4.101-6.893 4.101-6.893.147-.268.347-.521.561-.762l3.674-4.034c.213-.228.427-.428.668-.615l.614-.454c-.654-.695-1.296-1.577-1.87-2.739-.307-.334-.494-.628-.721-.935Zm50.409 3.112c.308-1.803 1.283-3.005 1.857-3.74.04-.04.081-.094.121-.134.04-.574.053-1.897.053-2.658.013-1.777.04-2.605.254-3.407.174-.708 1.029-3.406 1.549-5.036l.308-6.012-3.434-3.313.521-.534-7.08-7.949a4.901 4.901 0 0 1-.521 1.109l-3.754 5.558c-.401 1.669-.748 3.366-.748 3.9 0 .348.014.668.014 1.016.04 1.269.08 2.698-.254 5.263-.08.655-.134 1.243-.174 1.804-.174 1.99-.361 4.034-1.536 6.439l3.353 3.486c.093.094.187.214.294.321.721.895 1.776 1.99 2.204 2.257 1.015.495 2.258 1.363 3.58 2.258.802.534 1.603 1.109 2.311 1.536.268.147.588.361.962.615 0-2.084.08-2.525.12-2.779Z"/>
  <path fill="#7C7C7C" stroke="#fff" stroke-linecap="round" stroke-linejoin="round" d="M333.936 462.874c-.147.267-.388 1.242-.575 2.11-.174.722-.361 1.537-.614 2.458-.147.588-.308 1.136-.441 1.63-.495 1.764-.762 2.726-.882 4.288-.04.481-.04 1.109-.04 1.817-.04 3.901-.08 9.245-3.059 12.491-.401.441-.708.761-.935 1.055-1.59 1.804-2.245 2.258-4.956 3.527-.455.214-.882.427-1.296.628-2.111 1.055-4.502 2.217-7.855 2.217-.294 0-.575 0-.882-.013-.975-.054-2.752-.094-4.783-.134-2.778-.053-5.129-.12-7.08-.213a14.37 14.37 0 0 1-1.536 2.377c-.895 1.136-2.284 3.006-3.54 4.689.427.695.668 1.47.708 2.298l.173 5.09c.268 2.298-.574 5.157-2.965 6.933.267.174.521.321.761.481 1.096.695 1.817 1.149 2.285 1.363a12.83 12.83 0 0 1 4.515-1.363c.267-.04.694-.294 1.162-.574 4.996-2.966 7.962-.428 9.284 1.336 1.937 2.591 4.369 8.563 4.85 9.725a4.91 4.91 0 0 1-.014 3.62c.041-.08-.293.842.041 2.151.721 2.872 1.028 3.968 2.043 6.64 1.23 3.259 1.951 4.341 2.352 4.689.133.12.267.213.4.32l.869.294c3.526-.08 10.553-.214 14.561-.294.588-1.99 1.135-3.086 2.819-5.517 1.229-1.764 2.297-2.752 3.406-3.794.441-.428.962-.882 1.55-1.47 1.71-1.71 3.099-2.311 4.502-2.818.254-.094.454-.174.654-.268-1.549-2.03-3.139-4.007-4.034-4.782-2.552-2.218-4.315-5.971-6.199-9.939a68.248 68.248 0 0 0-1.897-3.847c-2.751-5.117-1.776-11.516-1.068-16.178l.227-1.47c.227-1.643.214-2.885.174-4.328-.054-1.91-.121-4.101.561-6.933 1.028-4.449 2.872-8.844 5.397-14.588 2.11-4.823 3.633-9.685 3.66-9.725a5.08 5.08 0 0 1 .788-1.51l1.576-2.017a26.582 26.582 0 0 1-1.335-.454c-2.285-.829-3.835-1.643-5.13-2.685l-1.323 1.001-3.046 3.354c-.855 1.322-3.232 5.276-3.833 6.332Zm36.763-11.389c.428.094.802.187 1.189.307-.013-.013-.08-.04-.093-.053-2.071-1.029-4.182-3.446-5.13-4.609l-.628-.668c-.494.828-1.069 1.777-1.67 2.792l.655.521-.147.214c2.004.561 4.195 1.136 5.824 1.496Z"/>
  <path fill="#7C7C7C" stroke="#fff" stroke-linecap="round" stroke-linejoin="round" d="M345.631 497.414c-.521 3.327-1.202 7.896.04 10.193.708 1.296 1.416 2.793 2.124 4.289 1.109 2.351 2.792 5.918 3.848 6.84 1.589 1.402 3.7 4.007 5.396 6.238l.308.321a87.595 87.595 0 0 0 2.872-1.844c1.95-1.296 4.649-4.061 5.517-4.996l.294-.294 7.388-6.813c1.549-2.178 3.927-5.651 4.675-7.147.428-.868.976-2.418 1.497-3.981l.427-1.723c.494-2.044 1.857-7.869 2.084-10.207.214-2.11-.133-6.011-.294-7.454l-.588-3.193-.667.134-1.764-8.777a21.853 21.853 0 0 1-1.416-3.193c-.013-.04-.04-.08-.04-.12-.227-.147-.655-.441-1.469-.895a47.262 47.262 0 0 1-3.661-2.311c-1.416-.962-1.803-1.229-3.673-1.643-2.686-.615-6.666-1.724-9.325-2.472l-.521.935-.762-.427-2.872 3.714c-.561 1.709-1.95 5.771-3.754 9.885-2.298 5.264-4.008 9.271-4.823 12.905-.387 1.67-.347 2.872-.307 4.542.04 1.629.094 3.486-.254 5.931l-.28 1.563Zm45.143-3.248 3.353-.134 6.346-2.164c.08-.013.147-.053.253-.08 5.598-1.59 15.363-4.556 17.741-5.745 3.139-1.576 6.132-2.044 8.537-2.458.935-.147 1.816-.294 2.484-.481.962-.253 2.619-.561 4.476-.841-5.772-3.006-11.449-5.825-16.793-8.229-8.002-3.62-17.22-7.495-23.765-10.193l.36 5.931a4.792 4.792 0 0 1-1.776 4.021l-1.51 1.203.788 4.235c.014.093.04.213.04.307.08.614.695 6.051.321 9.672-.147 1.335-.468 3.152-.855 4.956ZM623.532 63.293c-1.469 3.94-8.977 15.095-10.46 17.273l-25.449 39.89 4.542 9.084c.842 1.71.615 3.754-.614 5.209-1.283 1.55-2.565 3.447-3.313 4.81.694.146 2.244.454 4.595.454 4.209 0 6.306 1.509 7.829 2.605.761.561 1.282.921 2.258 1.242 2.431.802 7.053 1.991 10.112 2.752l.828-1.095a4.8 4.8 0 0 1 2.886-1.817c2.752-.561 5.998-1.47 6.773-1.937 3.634-2.739 7.869-.748 10.674.574.521.254 1.055.494 1.603.722.708-.294 1.63-.588 2.885-.762.829-.12 1.577-.427 2.525-.828 1.603-.668 3.607-1.496 6.306-1.496 4.181 0 8.443 2.07 8.924 2.311 2.017 1.015 3.032 3.259 2.525 5.357H679.6a4.785 4.785 0 0 1 4.783 4.782v1.109c.013.013.04.013.053.04 1.977.975 5.21 2.511 7.548 3.46.227-.628.428-1.336.521-1.87a4.7 4.7 0 0 1 1.323-2.512c1.576-1.576 4.729-2.872 10.954-.534a4.433 4.433 0 0 1 1.069-.762 4.801 4.801 0 0 1 6.091 1.416l.481.655 1.015-.922a4.81 4.81 0 0 1 6.613.147l2.485 2.485 8.643-.722a4.792 4.792 0 0 1 4.943 3.26c.561 1.603 1.67 3.634 2.244 4.074.668.348 1.269.749 1.817 1.189.401-.227.761-.48 1.055-.721.294-.227.561-.708.962-1.456.695-1.269 1.603-2.952 3.433-4.422.04-1.229-.387-3.7-1.002-5.651a4.815 4.815 0 0 1 2.204-5.597l1.577-.895.494-1.51-.427-12.263c-.014-.575.053-1.136.253-1.67 1.002-2.992 1.764-6.706 1.603-7.761-.227-1.069-2.337-4.516-4.448-7.214a3.434 3.434 0 0 1-.254-.361c-3.58-5.531-5.624-9.218-6.051-10.941-.348-1.189-2.311-5.023-3.327-6.145-1.99-1.15-3.567-3.14-4.235-5.437-.694-2.391-.387-4.863.882-6.947 1.536-2.551 3.767-3.46 5.397-4.14.935-.388 1.71-.696 2.485-1.297V64.455h7.414c.868-1.91 1.576-3.968 1.576-5.558 0-4.181-.587-7.774-.587-7.774l-62.147 1.803-3.58-2.391s-30.472 4.181-34.065.588c-3.581-3.58-4.783-7.161-4.783-7.161l-23.979-1.47c2.311 7.802 4.355 16.94 2.899 20.8Z"/>
  <path fill="#7C7C7C" stroke="#fff" stroke-linecap="round" stroke-linejoin="round" d="M485.026 82.17c4.649.668 10.874 5.558 13.065 10.194 1.136 1.068 5.397 3.059 7.735 4.154 2.658 1.242 5.17 2.418 6.946 3.607 3.1 2.071 9.138 3.634 10.514 3.714 1.162.053 3.046 0 17.273 8.336a4.777 4.777 0 0 1 1.897 6.185l-6.946 14.575 14.922 3.66 1.496-1.51c.227-.227.481-.441.748-.614l9.498-6.319 13.305-9.659-.36-.721 4.195-2.084 25.783-40.372c4.021-5.918 8.509-13.025 9.418-15.19.213-2.07-1.457-9.885-3.634-16.992l-1.403-4.582 5.09-1.55c-.214-1.763-.387-3.74-.387-5.53 0-4.783 3.58-11.956-1.804-17.928-5.383-5.971-10.767-10.153-13.746-11.355C595.638 1 583.696 1 583.696 1l-13.132 1.803 5.383 20.907s-8.362-4.181-19.731-7.775l-11.368-3.62s-8.363-4.782-11.956-5.971c-3.581-1.19-13.747-5.384-19.117-4.182-5.383 1.19-10.767.588-13.746 4.182-2.993 3.58-6.573 13.131-6.573 13.131l-13.813 61.959c1.362.2 3.446.47 5.383.737Zm-76.161 466.543c.441-.094 1.109-.254 1.91-.401 1.456-.307 4.996-1.029 7.428-1.723l-2.752-7.254c-2.071 1.055-4.288 1.99-5.958 2.244a10.2 10.2 0 0 1-1.243.094c-3.219 0-5.664-1.844-6.893-3.941l-.12-.134-10.26-3.807a5.112 5.112 0 0 1-.481-.214c-1.189-.588-5.223-2.819-6.919-6.185-.882-1.737-1.363-4.141.347-6.626-.722-.094-1.857-.094-3.233-.094-.748 0-1.403-.08-2.031-.214l-.654.896-.722-.535-4.635 4.275c-.802.868-4.101 4.328-7.12 6.346-2.178 1.456-4.823 3.046-6.146 3.834-.614.534-1.71 1.443-3.486 2.725-1.71 1.202-3.006 1.71-3.888 2.017-.668.254-.668.254-1.028.588a32.7 32.7 0 0 1-1.844 1.737c-.935.868-1.416 1.296-2.03 2.177-1.243 1.804-1.269 1.857-1.71 3.5-.134.494-.268.935-.401 1.363-.08.254-.174.534-.227.788.093.12.227.294.427.494.615.655.922.935 1.056 1.056.08.013.133.04.213.08.668.227 1.67.561 3.26 1.362 3.5 1.737 5.29 2.378 8.51 3.394 1.028.32 1.816.614 2.511.868 1.51.534 2.071.748 4.409.962 1.362.133 2.378.147 3.353.147 1.723.04 3.486.053 6.359.654 1.736.361 2.124.388 2.565.401.962.053 1.937.134 4.729.695 5.397 1.055 7.387 1.723 11.141 3.834.321.173.615.347.895.521.321-.441.695-.882 1.069-1.323.895-1.028 1.376-1.817 1.95-2.725.828-1.336 1.777-2.859 3.794-4.863.882-.881 1.443-1.683 1.977-2.471 1.136-1.603 2.645-3.794 5.878-4.542Zm-34.917-256.116c5.17 2.872 5.931 2.431 10.767 5.05l4.422-5.437a4.731 4.731 0 0 1 3.58-1.764 4.741 4.741 0 0 1 3.674 1.577c1.416 1.549 3.26 3.767 3.927 5.477.401 1.015.561 1.91.668 2.645.121.708.187 1.202.535 1.99 1.095 2.459 1.095 4.075 1.095 5.518 0 .494 0 1.055.054 1.803l.04.521c.253 2.792.494 5.424-.521 8.51a115.63 115.63 0 0 0-1.163 3.968l17.087 3.219 6.586-1.937a4.76 4.76 0 0 1 3.299.214l2.792 1.242c5.037-11.609 14.789-33.892 16.004-35.95.04-.053.054-.093.081-.133-.081-.187-.254-.588-.749-1.376-.868-.588-3.834-1.189-6.064-1.189-2.859 0-6.132-.094-9.018-1.243-1.549-.614-2.778-1.843-3.433-3.406-1.269-3.006-.187-6.747.668-8.884l13.118-49.482c-1.362.12-4.101 1.108-9.484 5.156-9.552 7.161-19.731 18.516-19.731 18.516l-20.319 19.13-7.161 7.775s-.588-4.182-4.782-1.189c-4.182 2.992-8.363 2.992-9.552 7.16-1.189 4.182-1.804 8.964-1.804 8.964 0-.026 0 .562 5.384 3.555Zm92.371 151.057c.762.12 1.51.4 2.151.841l16.178 11.583 50.057 36.616 15.977 11.569 8.83 6.666c1.269.708 3.567 2.124 5.13 3.674-.361-1.87-.494-4.155.134-6.359.254-.882.922-3.193 3.193-4.409 2.164-1.135 4.141-.454 5.089-.147.121.04.214.081.294.094a9.338 9.338 0 0 1 .655-1.59l-2.685-1.71a4.85 4.85 0 0 1-2.218-3.927l-.801-34.199h-8.43a4.769 4.769 0 0 1-4.769-4.462l-.133-1.897c-12.157-2.992-42.106-10.326-46.422-11.408-3.741-.936-6.199-1.149-9.057-1.403a85.192 85.192 0 0 1-2.953-.294c-2.084-.227-4.408-.454-6.172-.628l-.187.748-3.847-.935-20.132-.828.118 2.405Z"/>
  <path fill="#7C7C7C" stroke="#fff" stroke-linecap="round" stroke-linejoin="round" d="m339.92 401.828.133.08c.495-.347 1.016-.708 1.603-1.028.214-.134.495-.561.962-1.229.668-1.002 1.577-2.378 3.1-3.701 1.055-.895 1.469-1.456 2.257-2.458a46.398 46.398 0 0 1 2.044-2.485c1.096-1.242 1.243-1.576 1.603-2.337.214-.441.481-.976.828-1.603l-.574-.521 2.618-2.873c1.603-4.274 3.541-9.845 3.768-11.662.481-3.807 2.925-7.388 6.038-11.93.962-1.402 1.99-2.912 3.046-4.542 2.645-4.101 5.624-6.706 7.815-8.603a36.194 36.194 0 0 0 1.87-1.683c.695-.695 1.403-1.323 2.151-1.991 1.71-1.536 3.313-2.965 4.943-5.396 1.456-2.178 3.633-6.854 5.156-10.287l1.336-7.12 1.002.187c.534-1.91 1.149-4.034 1.536-5.21.388-1.135.294-2.284.081-4.596l-.054-.534c-.093-1.109-.093-1.937-.093-2.658 0-1.002 0-1.029-.268-1.63a15.528 15.528 0 0 1-.761-2.124l-5.023 6.172-4.983-4.035-19.424 18.276s-12.544 4.181-17.928 6.572c-5.383 2.391-21.508 7.775-23.899 8.363-1.897.481-18.195 7.775-24.768 10.727l43.885 51.859Z"/>
</svg>
